<?xml version="1.0" encoding="UTF-8" standalone="no"?>
<svg
   xmlns:dc="http://purl.org/dc/elements/1.1/"
   xmlns:cc="http://creativecommons.org/ns#"
   xmlns:rdf="http://www.w3.org/1999/02/22-rdf-syntax-ns#"
   xmlns:svg="http://www.w3.org/2000/svg"
   xmlns="http://www.w3.org/2000/svg"
   xmlns:sodipodi="http://sodipodi.sourceforge.net/DTD/sodipodi-0.dtd"
   xmlns:inkscape="http://www.inkscape.org/namespaces/inkscape"
   version="1.0"
   width="1058.000000pt"
   height="1280.000000pt"
   viewBox="0 0 1058.000000 1280.000000"
   preserveAspectRatio="xMidYMid meet"
   id="svg8"
   sodipodi:docname="Anchor.svg"
   inkscape:version="1.0.1 (3bc2e813f5, 2020-09-07)">
  <defs
     id="defs12" />
  <sodipodi:namedview
     pagecolor="#ffffff"
     bordercolor="#666666"
     borderopacity="1"
     objecttolerance="10"
     gridtolerance="10"
     guidetolerance="10"
     inkscape:pageopacity="0"
     inkscape:pageshadow="2"
     inkscape:window-width="1024"
     inkscape:window-height="650"
     id="namedview10"
     showgrid="false"
     inkscape:zoom="0.31523438"
     inkscape:cx="705.33333"
     inkscape:cy="853.33333"
     inkscape:window-x="0"
     inkscape:window-y="0"
     inkscape:window-maximized="0"
     inkscape:current-layer="svg8" />
  <metadata
     id="metadata2">
Created by potrace 1.15, written by Peter Selinger 2001-2017
<rdf:RDF>
  <cc:Work
     rdf:about="">
    <dc:format>image/svg+xml</dc:format>
    <dc:type
       rdf:resource="http://purl.org/dc/dcmitype/StillImage" />
    <dc:title></dc:title>
  </cc:Work>
</rdf:RDF>
</metadata>
  <g
     transform="matrix(0.08542518,0,0,-0.06389028,65.164382,860.81364)"
     fill="#000000"
     stroke="none"
     id="g6">
    <path
       d="m 5125,12131 c -280,-46 -538,-199 -706,-420 -71,-94 -155,-267 -186,-386 -23,-86 -26,-121 -27,-255 -1,-175 12,-252 67,-400 61,-162 168,-314 304,-431 l 63,-54 v -367 -368 h 40 40 v -230 -230 h -40 c -36,0 -40,-2 -40,-25 v -25 h -867 -868 l -45,57 c -208,262 -616,234 -790,-54 -176,-290 1,-666 342,-723 163,-28 359,49 450,176 l 31,44 h 874 c 857,0 873,0 873,-19 0,-16 8,-20 38,-23 l 37,-3 3,-586 2,-586 -104,-77 c -58,-43 -130,-104 -159,-135 -30,-31 -73,-71 -96,-89 -55,-44 -122,-146 -238,-360 -118,-217 -143,-273 -143,-316 0,-19 -6,-61 -14,-93 -52,-218 -59,-265 -52,-357 3,-50 10,-159 15,-242 9,-137 14,-163 51,-275 22,-68 56,-187 75,-263 35,-140 66,-208 102,-220 10,-4 33,-28 51,-55 18,-27 51,-67 72,-89 26,-26 44,-57 52,-87 10,-36 23,-56 56,-83 28,-23 56,-61 79,-106 38,-76 122,-165 185,-197 60,-31 60,-24 27,-229 -26,-168 -73,-369 -180,-770 -88,-328 -131,-517 -145,-632 -3,-32 -7,-58 -8,-58 0,0 -33,13 -73,29 -40,17 -118,41 -175,55 -324,80 -809,286 -1139,485 -278,166 -486,330 -704,553 -158,161 -242,263 -350,423 -205,307 -322,590 -400,971 -4,19 2,21 139,32 79,6 159,17 178,25 68,28 96,114 77,236 -23,157 -148,454 -304,727 -128,223 -341,524 -370,524 -20,0 -107,-102 -184,-215 -201,-296 -355,-625 -458,-980 -50,-174 -39,-235 49,-281 40,-21 161,-44 231,-44 34,0 68,-4 75,-9 8,-5 22,-57 33,-122 161,-960 729,-1935 1524,-2618 575,-493 1238,-859 2069,-1141 268,-90 340,-121 436,-185 78,-52 136,-113 181,-191 39,-70 74,-97 113,-90 40,8 48,17 94,94 69,116 188,212 346,279 33,14 156,57 271,95 1164,387 2065,978 2702,1775 480,601 804,1345 898,2063 l 6,46 145,11 c 214,17 252,43 262,172 6,91 -14,174 -85,356 -93,236 -211,457 -378,710 -99,148 -178,251 -208,269 -16,9 -25,4 -58,-34 -117,-132 -265,-367 -380,-605 -123,-253 -238,-587 -241,-696 -2,-55 24,-106 68,-131 38,-22 160,-48 228,-48 30,0 68,-3 86,-6 l 32,-7 -6,-52 c -9,-82 -69,-309 -111,-420 -61,-166 -169,-374 -274,-531 -271,-404 -634,-732 -1110,-1003 l -124,-70 -47,97 c -26,53 -58,111 -72,127 -14,17 -31,48 -37,70 -6,22 -23,61 -39,85 -44,69 -311,348 -340,355 -27,7 -84,51 -196,153 -52,48 -100,78 -200,127 -143,70 -219,111 -255,137 -13,9 -59,31 -101,48 -66,27 -88,42 -147,104 -38,40 -84,79 -101,87 l -32,14 v 1302 c 0,866 3,1303 10,1303 6,0 40,24 78,53 37,28 96,75 132,102 101,79 150,126 164,160 7,17 53,72 102,122 121,124 186,203 246,301 28,45 54,82 59,82 14,0 101,125 139,200 21,41 43,95 50,120 7,25 26,61 41,82 31,39 41,60 90,186 l 33,82 h 299 299 l 63,-68 c 261,-281 709,-173 819,197 77,261 -105,551 -379,602 -168,32 -361,-42 -465,-176 l -42,-55 h -233 -232 l -6,56 c -3,31 -1,68 5,82 13,32 16,345 5,414 -5,26 -19,63 -33,83 -20,29 -24,48 -24,104 0,79 -12,122 -49,171 -14,19 -31,55 -37,80 -48,193 -66,237 -108,259 -13,7 -28,27 -33,44 -14,46 -120,205 -149,223 -13,9 -24,22 -24,29 0,18 -95,157 -137,200 -20,21 -48,41 -64,47 -15,5 -32,22 -39,39 -7,16 -36,51 -64,77 l -51,47 8,80 c 9,95 -6,253 -33,358 -81,310 -300,570 -596,708 -134,64 -254,90 -419,94 -77,2 -162,0 -190,-4 z m 336,-416 c 182,-47 351,-186 432,-356 41,-85 55,-131 71,-225 l 5,-31 -112,4 c -62,2 -125,8 -141,13 -104,35 -340,-12 -400,-79 -11,-12 -25,-21 -33,-21 -54,0 -174,-100 -202,-168 -8,-18 -27,-47 -42,-63 -29,-31 -65,-129 -76,-204 -3,-22 -16,-53 -29,-69 l -25,-28 -39,27 c -83,58 -180,187 -221,294 -97,257 -38,532 156,727 68,68 97,89 176,127 52,25 119,50 149,56 30,6 64,13 75,15 38,9 191,-3 256,-19 z m 673,-1535 c 85,-40 175,-129 176,-173 0,-37 85,-193 115,-213 28,-18 60,-89 81,-180 8,-37 20,-77 27,-88 6,-12 11,-73 12,-146 1,-110 3,-131 24,-173 31,-63 25,-123 -17,-182 -16,-23 -33,-52 -37,-64 -6,-21 -10,-21 -291,-21 h -284 v 25 c 0,20 -5,25 -25,25 h -25 v 230 230 h 25 25 v 374 374 l 38,30 37,31 25,-24 c 14,-13 56,-38 94,-55 z m 186,-1765 c 0,-28 -53,-137 -76,-156 -8,-6 -14,-20 -14,-29 0,-10 -12,-28 -26,-39 -15,-12 -24,-21 -20,-21 3,0 -10,-21 -29,-46 -20,-25 -47,-70 -60,-99 -33,-70 -95,-139 -148,-164 -24,-12 -46,-21 -50,-21 -4,0 -7,126 -7,280 v 280 h 25 c 18,0 25,5 25,20 0,19 7,20 190,20 h 190 z M 4718,5433 c -3,-236 -4,-246 -19,-213 -9,19 -19,53 -23,75 -4,22 -20,63 -36,92 -30,53 -32,68 -42,378 -1,17 11,59 26,93 15,35 34,103 43,150 8,48 22,103 32,122 15,34 16,26 19,-207 1,-133 1,-353 0,-490 z M 6085,3393 c 22,-15 77,-55 123,-90 45,-35 90,-63 99,-63 9,0 61,-47 117,-103 56,-57 120,-116 144,-131 42,-26 68,-61 125,-166 15,-28 41,-59 57,-68 34,-20 63,-98 41,-112 -7,-4 -76,-26 -154,-49 -128,-38 -364,-116 -409,-136 -16,-6 -18,-1 -18,35 0,101 -48,356 -139,733 -23,93 -41,170 -41,173 0,10 18,2 55,-23 z"
       id="path4" />
  </g>
</svg>
