<?xml version="1.0" encoding="utf-8"?>
<!-- Generator: Adobe Illustrator 25.0.1, SVG Export Plug-In . SVG Version: 6.00 Build 0)  -->
<svg version="1.1" id="Layer_1" xmlns="http://www.w3.org/2000/svg" xmlns:xlink="http://www.w3.org/1999/xlink" x="0px" y="0px"
	 viewBox="0 0 37.3 37.3" style="enable-background:new 0 0 37.3 37.3;" xml:space="preserve">
<style type="text/css">
	.st0{fill:none;stroke:#FFFFFF;stroke-width:0.5;}
	.st1{fill-rule:evenodd;clip-rule:evenodd;fill:url(#SVGID_1_);}
	.st2{fill-rule:evenodd;clip-rule:evenodd;fill:#FFFFFF;}
	.st3{fill:none;}
</style>
<symbol  id="f" viewBox="-18.7 -18.7 37.4 37.3">
	<path class="st0" d="M18.4,0c0-5.1-1.8-9.4-5.4-13S5.1-18.4,0-18.4c-5.1,0-9.4,1.8-13,5.4s-5.4,7.9-5.4,13c0,5.1,1.8,9.4,5.4,13.1
		s7.9,5.4,13,5.4c5.1,0,9.5-1.8,13-5.4S18.4,5.1,18.4,0z"/>
</symbol>
<radialGradient id="SVGID_1_" cx="136.8229" cy="307.8584" r="15.38" gradientTransform="matrix(0.7071 0.7071 -0.7071 0.7071 139.0894 -296.0841)" gradientUnits="userSpaceOnUse">
	<stop  offset="0" style="stop-color:#E8F4F7"/>
	<stop  offset="0.4627" style="stop-color:#E6F3F6"/>
	<stop  offset="0.7137" style="stop-color:#DEEFF3"/>
	<stop  offset="0.9098" style="stop-color:#D0E8EE"/>
	<stop  offset="1" style="stop-color:#C7E4EB"/>
</radialGradient>
<path class="st1" d="M37.1,18.7c0,5.1-1.8,9.4-5.4,13c-3.6,3.6-8,5.4-13.1,5.4c-5.1,0-9.4-1.8-13-5.4c-3.6-3.6-5.4-7.9-5.4-13
	c0-5.1,1.8-9.4,5.4-13.1s7.9-5.4,13-5.4c5.1,0,9.4,1.8,13,5.4C35.3,9.3,37.1,13.6,37.1,18.7z"/>
<g>
	<defs>
		<rect id="SVGID_2_" width="37.3" height="37.3"/>
	</defs>
	<clipPath id="SVGID_3_">
		<use xlink:href="#SVGID_2_"  style="overflow:visible;"/>
	</clipPath>
	<g style="clip-path:url(#SVGID_3_);">

			<use xlink:href="#f"  width="37.4" height="37.3" x="-18.7" y="-18.7" transform="matrix(1 0 0 -1 18.675 18.675)" style="overflow:visible;"/>
	</g>
</g>
<path class="st2" d="M9.1,6.9c2.5,0.1,2.8,1.2,0.9,3.5c-1.9,2.4-3.3,3.3-4,2.4C5.3,12.2,5.4,11,6.2,9.4C6.9,7.7,7.9,6.9,9.1,6.9z"/>
<path class="st2" d="M5.1,14.7c0.6,0.1,0.8,0.6,0.6,1.4c-0.2,0.8-0.6,1.1-1,0.8c-0.4-0.3-0.5-0.8-0.4-1.4
	C4.4,14.9,4.7,14.6,5.1,14.7z"/>
<rect x="6" y="16.4" class="st3" width="28.7" height="18"/>
<g id="e">
	<path class="st2" d="M18.2,35.2c0,0,18.2-2,16.4-19.7C34.7,15.4,34.2,31.4,18.2,35.2z"/>
</g>
</svg>
