<svg id="Layer_2" data-name="Layer 2" xmlns="http://www.w3.org/2000/svg" viewBox="0 0 826.2 842.4"><path d="M790.47,397.49a100.85,100.85,0,0,0-48.41-86.19,100.93,100.93,0,0,0-90.34-145.9c-2.55,0-5.09.09-7.59.28A100.94,100.94,0,0,0,495.55,79a100.95,100.95,0,0,0-184.88,6.32,101,101,0,0,0-138.25,70.14c-1.68-.08-3.36-.12-5.06-.12A101,101,0,0,0,75.43,297.9,100.93,100.93,0,0,0,58,471.87,100.91,100.91,0,0,0,131,623.6,346.15,346.15,0,0,0,307.31,744c-11.9,11.9-24.2,30.31-13.82,49.61a11.66,11.66,0,0,0,.69,1.09c.05.07.1.15.16.22a11.34,11.34,0,0,0,.83,1l.17.18q.44.48.93.93l.15.14c.36.34.76.66,1.17,1l.27.21c.42.32.87.64,1.34.95l.1.07c.46.3.94.59,1.43.88l.3.18c.52.3,1.07.59,1.63.88l.31.16c.55.28,1.12.55,1.71.82l.15.07,1.95.84.4.16c.67.27,1.36.54,2.08.81l.2.07c.69.25,1.4.5,2.13.74l.33.11c.76.26,1.55.51,2.35.75l.4.12q2.49.75,5.21,1.44l.41.1,2.78.68.21,0c.94.22,1.9.43,2.88.64l.2,0,3.05.62.37.07q3.17.61,6.52,1.17l.29,0c1.13.19,2.27.37,3.44.54l.14,0c2.37.36,4.81.69,7.3,1l.23,0c2.53.31,5.11.61,7.74.88h0q6,.63,12.37,1.11h0C441.7,820,545.06,811,558.38,791c13.14-19.71-3.66-42.62-21.16-57.6a346.07,346.07,0,0,0,141.5-104.29,100.92,100.92,0,0,0,75.89-154.51A100.69,100.69,0,0,0,790.47,397.49Z" style="fill:#f7ac69"/><path d="M816.62,408.91a100.85,100.85,0,0,0-48.41-86.19,100.93,100.93,0,0,0-90.34-145.9c-2.55,0-5.09.1-7.59.28A100.93,100.93,0,0,0,521.7,90.4a100.94,100.94,0,0,0-184.88,6.32,101,101,0,0,0-138.25,70.13c-1.68-.08-3.36-.12-5.06-.12a100.95,100.95,0,0,0-91.92,142.59,100.93,100.93,0,0,0-17.42,174A100.94,100.94,0,0,0,157.11,635,346.27,346.27,0,0,0,333.46,755.38c-11.9,11.89-24.2,30.31-13.82,49.6,17.66,32.8,244.71,27.75,264.89-2.53,13.14-19.7-3.66-42.62-21.16-57.6a346.13,346.13,0,0,0,141.5-104.28,100.93,100.93,0,0,0,75.89-154.52A100.69,100.69,0,0,0,816.62,408.91Z" style="fill:#ffd8ad"/><path d="M441.47,698.35c-23.32-.39-90.93-445.83-50.85-505.85s61.66-44.64,92,1.62S464.78,698.74,441.47,698.35Z" style="fill:#ffc68d"/><path d="M486.06,682.83c-9.57-1.6,39.89-494.64,95.74-470.7s16,134-23.94,266.46S495.63,684.42,486.06,682.83Z" style="fill:#ffc68d"/><path d="M514.78,684.42c-11.17-3.19,127.65-437.19,173.92-395.7s-19.15,122.86-59,194.66S526,687.61,514.78,684.42Z" style="fill:#ffc68d"/><path d="M548.29,687.61c-4.79-11.17,138.82-292,177.11-252.1S553.08,698.78,548.29,687.61Z" style="fill:#ffc68d"/><path d="M389,686c9.57-1.6-39.89-494.63-95.74-470.7s-15.95,134,23.94,266.46S379.43,687.61,389,686Z" style="fill:#ffc68d"/><path d="M360.28,687.61c11.17-3.19-127.65-437.19-173.92-395.7s19.15,122.86,59,194.66S349.11,690.8,360.28,687.61Z" style="fill:#ffc68d"/><path d="M326.77,690.8c4.79-11.17-138.82-292-177.11-252.1S322,702,326.77,690.8Z" style="fill:#ffc68d"/></svg>
