<?xml version="1.0" encoding="utf-8"?>
<!-- Generator: Adobe Illustrator 25.0.1, SVG Export Plug-In . SVG Version: 6.00 Build 0)  -->
<svg version="1.1" id="Layer_1" xmlns="http://www.w3.org/2000/svg" xmlns:xlink="http://www.w3.org/1999/xlink" x="0px" y="0px"
	 viewBox="0 0 413 570" style="enable-background:new 0 0 413 570;" xml:space="preserve">
<style type="text/css">
	.st0{fill-rule:evenodd;clip-rule:evenodd;fill:#FFD8AD;}
	.st1{fill:#FFD8AD;}
	.st2{fill:#FFE4CA;stroke:#FFD8AD;stroke-miterlimit:10;}
</style>
<g transform="translate(-182.75 -209.46)">
	<path class="st0" d="M221.2,416.9l-3.7,9.3c24.5,9.5,45.2,29,56.4,53c11.2,24,12.8,52.7,4.2,78c-6,17.9-17,34.1-27.6,50.4
		c-10.7,16.3-21.2,33.4-26.2,52.7c-3.4,13.4-3.8,27.4-1.4,40.9l0,0c2.4,13.5,7.7,26.5,15.4,37.7c7.8,11.2,18,20.6,29.7,27.6
		s24.8,11.5,38.2,13c-13.4-1.8-26.3-6.6-37.8-13.7c-11.4-7.2-21.3-16.7-28.7-27.8c-7.4-11.2-12.2-24-14.2-37.2
		c-2.1-13.2-1.4-26.8,2.2-39.5c5.1-18.4,15.8-34.8,26.8-50.8s22.5-32.3,29.4-51.1l0,0c9.7-26.7,8.8-57.2-2.7-83.5
		C269.8,449.6,247.9,428,221.2,416.9L221.2,416.9L221.2,416.9z"/>
	<path class="st0" d="M267,437.9l-4.4,9c17.1,8.1,31.6,22,40.4,39c8.8,16.9,12,36.9,8.8,55.9c-3.2,19.6-13.2,37.8-22.7,56.1
		c-9.6,18.3-18.9,37.7-20.7,58.6l0,0c-1.9,23.2,6.4,47,22.1,63.8c15.7,16.9,38.6,26.6,61.4,26.3c-22.8-0.3-45.2-10.7-60.1-27.5
		c-14.9-16.9-22.2-40.2-19.8-62.3l0,0c2.1-20,11.8-38.5,21.7-56.5c10-18,20.6-36.4,24.8-57.3c4-20.4,1.2-42.1-8-60.9
		C301.3,463.2,285.8,447.5,267,437.9L267,437.9L267,437.9z"/>
	<path class="st0" d="M314.5,436.5l-8,5.9c15.2,19.9,25.8,43.4,31.2,68.1c5.4,24.7,5.7,50.6,0.3,75.4l0,0
		c-3,13.9-7.8,27.5-11.6,41.6c-3.8,14.1-6.4,28.8-5.1,43.4l0,0c1.7,19.3,10.7,37.7,24.6,50.9s32.6,21.1,51.5,21.8
		c-18.9-1.3-37.2-9.7-50.4-23c-13.2-13.3-21.4-31.5-22.5-50c-0.9-14.1,2.1-28.3,6.2-42s9.2-27.3,12.8-41.5l0,0
		c6.3-25.5,6.8-52.4,1.9-78.3C340.4,483.1,330,458.1,314.5,436.5L314.5,436.5L314.5,436.5z"/>
	<path class="st0" d="M367.8,436.9l-6,8c14,10.1,25.3,24.1,32.3,40s9.6,33.8,7.5,51.2c-2.4,20.2-11.3,39.5-19.6,59l0,0
		c-8.4,19.4-16.3,39.9-16.6,61.5c-0.3,23.2,9,46.1,25.1,62.5c16,16.4,38.6,25.9,61.3,26.1c-22.6-0.8-44.7-11-60-27.4
		s-23.6-39-22.7-61.1c0.7-20.6,9.1-40.3,17.8-59.4l0,0c8.8-19.1,18.4-38.6,21.7-60.2c2.8-18.6,0.5-37.9-6.6-55.5
		C394.8,464.1,382.9,448.5,367.8,436.9L367.8,436.9L367.8,436.9z"/>
	<path class="st0" d="M421.6,430.6l-3.9,9.2c13.9,5.6,25.9,16.5,32.9,29.9c7,13.5,9.1,29.6,5.6,44.6c-3.2,14.1-11.3,27-20,39.5
		c-8.8,12.4-18.4,24.7-25.1,38.9c-7.6,16-10.9,33.9-9.7,51.5c1.2,17.6,7,34.7,16.6,49.3s23,26.7,38.4,34.7s32.9,11.9,50.1,11.4
		c-17.3,0.1-34.5-4.3-49.5-12.5c-15-8.3-27.8-20.5-36.8-34.9c-9-14.5-14.2-31.2-14.9-48.1c-0.8-16.9,2.9-34,10.5-49
		c6.7-13.3,16.4-25,25.6-37.4l0,0c9.2-12.3,18-25.8,22.1-41.4c4.3-16.6,2.5-34.7-5.1-50.3C450.8,450.3,437.6,437.6,421.6,430.6
		L421.6,430.6L421.6,430.6z"/>
	<path class="st0" d="M299.7,433.7l-8.8-4.8c-21.9,41.4-32.1,88.6-29.4,135l0,0c1.4,24.1,6.2,47.5,9.6,71
		c3.3,23.5,5.2,47.4,0.9,70.6c-4.6,24.7-16.4,48.2-33.6,66.8c17.7-18.1,30.3-41.4,35.7-66.4c5-23.5,3.9-47.8,1.2-71.6l0,0
		c-2.7-23.7-6.8-47.2-7.5-70.7C266.3,518.4,277.6,472.8,299.7,433.7L299.7,433.7L299.7,433.7z"/>
	<path class="st0" d="M541.3,448.1l-6.1-7.9c-17.1,13.5-30.7,31.2-39.8,50.8c-9.1,19.6-13.8,41.2-13.2,62.8
		c0.7,23.2,7.1,45.5,12.7,67.4l0,0c5.5,21.9,10.4,44.3,8.1,66.5c-2.1,20.4-10.4,40.3-23.6,56.3s-31.2,28-51.2,34.1
		c20.1-5.5,38.6-17.2,52.4-33c13.8-15.9,22.9-35.9,25.6-57c2.9-22.8-1.4-45.9-6.4-68.1c-5-22.2-10.8-44.2-10.8-66.4l0,0
		c-0.1-20.4,4.9-40.8,14-59C512,476.3,525.1,460.1,541.3,448.1L541.3,448.1L541.3,448.1z"/>
	<path class="st0" d="M466.7,442.9l-7.3-6.8c-25,27.5-39.3,64-39.7,100.7c-0.2,23.7,4.9,46.6,8.6,69.3l0,0c3.7,22.7,6,46.1,0.1,68.1
		c-4,15.1-11.9,29.2-22.7,40.8c-10.7,11.6-24.3,20.7-39.3,25.9c15.2-4.7,29.1-13.5,40.3-24.9c11.2-11.4,19.8-25.5,24.3-41l0,0
		c6.6-22.5,5-46.6,1.9-69.6c-3-23-7.5-45.9-6.5-68.4C427.9,502,442.6,467.8,466.7,442.9L466.7,442.9L466.7,442.9z"/>
	<path class="st0" d="M317.5,435.9l-0.2,10c9.5,0.1,19.1,2.6,27.6,7.2s16,11.1,21.4,19.1l0,0c5.4,8,8.8,17.4,9.9,27.1l0,0
		c1.1,9.7-0.1,19.7-3.6,28.8c-3.7,9.7-10.1,18.4-17.1,26.7c-7.1,8.2-14.9,15.9-22.2,24.4c-7.3,8.5-13.9,17.9-17.9,28.5
		c-4.1,10.7-5.1,22.8-1.4,33.8c2.7,7.9,7.8,14.6,13.7,20.2c5.9,5.5,12.7,9.9,19.5,14c6.9,4.1,13.9,7.8,20.5,12.1
		c6.5,4.3,12.7,9.1,17.5,15.1l0,0c8.3,10.3,12.5,23.9,11.3,37.2c-1.1,13.3-7.6,26.2-17.7,35c10.3-8.7,17.2-21.4,18.7-34.9
		s-2.4-27.6-10.8-38.5c-4.9-6.3-11.1-11.5-17.6-16c-6.6-4.5-13.6-8.5-20.3-12.6c-6.7-4.1-13.2-8.6-18.6-14l0,0
		c-5.5-5.4-10-11.8-12.3-18.9c-3.2-9.9-1.8-21,2.1-30.8s10.4-18.5,17.6-26.6s15.2-15.6,22.7-23.9c7.5-8.3,14.5-17.5,18.9-28.2
		c4.2-10.2,5.8-21.3,4.8-32.3l0,0c-1-10.9-4.5-21.7-10.6-31.1l0,0c-6-9.3-14.4-17.1-24.1-22.5C339.8,439.5,328.8,436.3,317.5,435.9
		L317.5,435.9L317.5,435.9z"/>
	<path class="st0" d="M533.7,443.1l-0.2-10c-11.2,0.4-22.2,3.6-31.9,9c-9.7,5.5-18.1,13.2-24.1,22.5l0,0c-6,9.4-9.6,20.1-10.6,31.1
		l0,0c-1,10.9,0.6,22.1,4.8,32.3c4.5,10.7,11.4,19.9,18.9,28.2s15.5,15.8,22.7,23.9c7.2,8.1,13.7,16.8,17.6,26.6
		c3.9,9.8,5.3,20.9,2.1,30.8c-2.2,7.1-6.8,13.5-12.3,18.9s-12,9.8-18.6,14c-6.7,4.2-13.7,8.1-20.3,12.6l0,0
		c-6.5,4.5-12.7,9.7-17.6,16l0,0c-8.3,10.9-12.3,25-10.8,38.5s8.3,26.3,18.7,34.9c-10.1-8.9-16.6-21.7-17.7-35s3-26.9,11.3-37.2
		c4.8-6,11-10.9,17.5-15.1c6.6-4.3,13.6-8.1,20.5-12.1c6.8-4,13.6-8.4,19.5-14l0,0c5.9-5.5,11-12.3,13.7-20.2
		c3.7-11,2.6-23.1-1.4-33.8s-10.7-20.1-17.9-28.5c-7.2-8.5-15.1-16.2-22.2-24.4c-7-8.2-13.4-17-17.1-26.7
		c-3.5-9.1-4.7-19.1-3.6-28.8c1.1-9.7,4.5-19.2,9.9-27.1c5.4-8,12.9-14.5,21.4-19.1C514.6,445.7,524.2,443.1,533.7,443.1
		L533.7,443.1L533.7,443.1z"/>
</g>
<path class="st1" d="M207.5,0C95.3,0,4.3,96,4.3,214.4c0,8.5-4.3,32.3,4.7,40.8c26.5,24.9,67.1-11.7,100.9-11.8
	c33-0.2,65.6,10.7,98.7,10.5s65.6-11.4,98.7-11.8c32.6-0.4,71.7,32.8,97.6,9.2c8.3-7.6,5.8-28.4,5.8-36.8C410.6,96,319.6,0,207.5,0
	L207.5,0L207.5,0z"/>
<path class="st2" d="M17.6,218.8C16,226.6,27.2,60.4,147.2,24.4C147.2,24.4,51.2,62,17.6,218.8z"/>
</svg>
