<?xml version="1.0" encoding="utf-8"?>
<!-- Generator: Adobe Illustrator 25.0.1, SVG Export Plug-In . SVG Version: 6.00 Build 0)  -->
<svg version="1.1" id="Layer_1" xmlns="http://www.w3.org/2000/svg" xmlns:xlink="http://www.w3.org/1999/xlink" x="0px" y="0px"
	 viewBox="0 0 212.8 233.4" style="enable-background:new 0 0 212.8 233.4;" xml:space="preserve">
<style type="text/css">
	.st0{fill-rule:evenodd;clip-rule:evenodd;fill:#76B571;}
	.st1{fill-rule:evenodd;clip-rule:evenodd;fill:url(#SVGID_1_);}
	.st2{fill-rule:evenodd;clip-rule:evenodd;fill:url(#SVGID_2_);}
	.st3{fill-rule:evenodd;clip-rule:evenodd;fill:#8ED089;}
	.st4{fill-rule:evenodd;clip-rule:evenodd;fill:url(#SVGID_3_);}
	.st5{fill-rule:evenodd;clip-rule:evenodd;fill:url(#SVGID_4_);}
	.st6{fill-rule:evenodd;clip-rule:evenodd;fill:url(#SVGID_5_);}
	.st7{fill:url(#SVGID_6_);}
	.st8{fill-rule:evenodd;clip-rule:evenodd;fill:url(#SVGID_7_);}
	.st9{fill-rule:evenodd;clip-rule:evenodd;fill:#2E3436;}
	.st10{fill-rule:evenodd;clip-rule:evenodd;fill:url(#SVGID_8_);}
	.st11{fill-rule:evenodd;clip-rule:evenodd;fill:url(#SVGID_9_);}
	.st12{fill:#76B571;}
	.st13{fill:#8ED089;}
	.st14{fill:url(#SVGID_10_);}
	.st15{fill-rule:evenodd;clip-rule:evenodd;fill:#76B571;stroke:#76B571;stroke-miterlimit:3.0744;}
	.st16{fill-rule:evenodd;clip-rule:evenodd;fill:#847052;stroke:#564B40;stroke-width:1.0734;stroke-miterlimit:3.0744;}
	.st17{fill-rule:evenodd;clip-rule:evenodd;fill:#938C6F;stroke:#564B40;stroke-width:0.4503;stroke-miterlimit:10;}
	.st18{fill-rule:evenodd;clip-rule:evenodd;fill:#B0B089;}
	.st19{fill-rule:evenodd;clip-rule:evenodd;fill:#938C6F;}
	.st20{fill-rule:evenodd;clip-rule:evenodd;fill:url(#SVGID_11_);}
	.st21{fill:url(#SVGID_12_);}
	.st22{fill:url(#SVGID_13_);}
	.st23{fill:none;}
</style>
<g>
	<path class="st0" d="M127.5,17.3C123,10.9,100.1-2,88.8,2.3C75.4,7.3,66,24.5,64.7,31.8C63.5,39,66.1,49.5,69.5,51
		c3.3,1.6,15.7,22.3,21.3,7.5c0-0.3,0-0.6,0.1-0.9c-0.5,1.3-1,2.3-1.6,3c-0.1-0.3-0.4-0.8-0.6-1.2c-0.2-0.5-0.6-1.8-0.7-2.9
		c-0.3-1.9-0.3-2,0.8-2.9c0.9-0.7,1.2-0.8,2.5-0.4c0-0.2,0.1-0.4,0.1-0.6c-0.2,1.2-0.3,2.4-0.4,3.6c0.9-9.9,6.1-16.6,10.5-25.6
		c1.6-4.1,22.6-6.7,26.5-10.5C128.5,19.5,128.3,18.5,127.5,17.3L127.5,17.3z"/>

		<radialGradient id="SVGID_1_" cx="-563.9206" cy="98.3695" r="49.478" gradientTransform="matrix(-0.62 -0.7846 -0.7846 0.62 -190.6334 -461.3534)" gradientUnits="userSpaceOnUse">
		<stop  offset="0" style="stop-color:#8ED089"/>
		<stop  offset="0.9955" style="stop-color:#FFFFFF;stop-opacity:0"/>
	</radialGradient>
	<path class="st1" d="M122.6,13.9c-0.1,0.3-0.2,0.7-0.2,1c-0.2,1.1,0.7,2.4,2.8,4.1c1,0.8,1.2,0.9,1.6,0.3c0.1-0.1,0.3-0.3,0.3-0.4
		c-0.1-0.4-0.3-0.7-0.6-1.2C125.7,16.6,124.3,15.2,122.6,13.9z M126.5,20.6L126.5,20.6c0.2,0,0.3-0.1,0.4-0.2
		c0.2-0.2,0.3-0.5,0.3-0.7C126.9,19.9,126.5,20.5,126.5,20.6z M114.7,8.8c-0.3,0.2-0.7,0.6-1.1,1c-1,0.9-1.7,1.8-1.8,2
		c0,0.2,0.1,1.1,0.2,2c0.2,1.3,0.4,1.8,1,2.1c0.4,0.2,1.3,0.9,2,1.5c1.3,1.1,1.3,1.1,4.2-0.4c1.8-1,1.8-1,2.1-2.4
		c0.1-0.7,0.2-1.1,0-1.6C119.4,11.6,117.2,10.2,114.7,8.8z M124.6,20c-1.1-0.9-1.5-1.1-1.7-0.7c-0.2,0.3-1,1.2-1.8,2.1
		c-0.7,0.8-1.3,1.7-1.6,2.2c2.6-0.8,4.8-1.6,6.3-2.4C125.5,20.7,125.1,20.4,124.6,20z M121.2,16.6c-0.1,0.1-1.2,0.7-2.4,1.3
		l-2.2,1.1l1.3,1.7c0.9,1.2,1.4,1.6,1.6,1.4c0.3-0.2,1.2-1.2,2.7-3.2c0.4-0.5,0.3-0.8-0.2-1.5C121.7,16.9,121.3,16.5,121.2,16.6z
		 M110,6.4c0.3,0.2,0.7,0.3,1,0.5c-0.4,0.2-0.7,0.3-0.8,0.4c-0.1,0.2,0.1,1.1,0.4,2l0.6,1.7l0.9-0.7c0.5-0.4,1.3-1.2,1.8-1.7
		c0,0,0-0.1,0.1-0.1C112.7,7.7,111.4,7.1,110,6.4z M103,3.8L103,3.8l1.3,1.5c0.8,0.8,1.4,1.4,1.5,1.4s0.9,0,1.8-0.1
		c0.6,0,1.4-0.1,2.3-0.2C107.6,5.4,105.3,4.5,103,3.8z M107.8,7.5c-0.9,0-1.9,0.2-2.3,0.4s-1.4,1.7-2.4,3.2
		c-1.8,2.7-1.8,2.7-1.2,3.8c1.1,2,0.7,1.9,5.7,1l3.5-0.7l-0.2-1.7c-0.1-0.9-0.5-2.7-0.9-3.9l-0.7-2.2L107.8,7.5z M115,18.7
		c-0.6-0.4-0.6-0.4-2,1.4c-1.9,2.4-2.4,4.2-1.8,5.8c2.4-0.7,4.9-1.3,7.2-2c0.2-0.6-0.2-1.4-1.3-2.8C116.3,20.1,115.3,19,115,18.7z
		 M112.8,16.6c-1-0.7-1.6-0.8-2.5-0.6c-0.7,0.2-1.2,0.4-1.2,0.5c0,0.2,0.4,1.2,0.9,2.2s1,2,1.1,2.1c0.2,0.2,0.9-0.5,2.4-2.5l0.8-1
		L112.8,16.6z M102.9,5c-0.7-0.6-0.9-0.6-1.6-0.1c-0.7,0.6-0.7,0.7,0.2,2.3c0.5,0.9,1,2,1.1,2.3c0.2,0.6,0.3,0.5,1.9-1.6
		c0.3-0.5,0.4-0.8-0.1-1.4C104.1,6.1,103.6,5.7,102.9,5z M94,2.3c0.1,1.2,0.2,2.2,0.2,2.4c0.3,0.7,2.6,2,3.2,1.8
		c0.8-0.3,3.2-1.9,4.5-3C99.2,2.7,96.5,2.3,94,2.3z M98.6,7.1c-0.9,0.5-2.3,1.3-3,1.9c-1.1,0.9-1.4,1.3-1.4,2.3
		c-0.1,0.7,0.1,1.8,0.4,2.5c0.7,1.6,0.5,1.4,2.7,2.2c1.3,0.4,2,0.5,2.2,0.2c0.1-0.2,0.3-0.8,0.5-1.4c0.2-0.5,0.8-1.6,1.3-2.5
		c1.1-1.7,1.1-2.1,0.1-3.9c-0.4-0.6-0.7-1.4-0.8-1.7c0-0.1,0-0.1-0.1-0.1C100.3,6.4,99.8,6.5,98.6,7.1z M105.9,17.2
		c-1.3,0.2-2.6,0.5-2.8,0.7s-0.9,1.6-1.5,3.3c-0.6,1.6-1.1,3-1,3.1c0,0,1,0.4,2.1,0.9c1.7,0.7,2.3,0.8,3,0.4
		c0.5-0.3,1.6-0.6,2.5-0.8l1.6-0.3l0.5-1.4c0.4-1.3,0.3-1.6-0.4-3.2c-0.5-1-1-2-1.2-2.4c0-0.1-0.1-0.1-0.1-0.2
		C108.2,16.9,107.6,16.9,105.9,17.2z M88.9,3.1c-1,0.4-1.9,0.8-2.8,1.3c-0.1,0.4-0.1,0.8,0,0.9c0.2,0.3,4.1,0.2,5.7-0.1
		c0.7-0.1,1.2-0.4,1.3-0.6c0.1-0.1,0-1.1,0-2.3C91.5,2.4,90.1,2.6,88.9,3.1z M96.2,7.1C96,7,95.3,6.5,94.7,6
		c-0.8-0.6-1.3-0.7-2.1-0.5c-0.6,0.2-1,0.4-1.1,0.5c0,0.1,0.5,1,1.1,1.9l1.1,1.8l1.5-1.2C96.2,7.7,96.5,7.3,96.2,7.1
		C96.3,7.2,96.2,7.1,96.2,7.1z M107,25.7c-0.1,0.1,0.3,0.6,0.7,1.2c0.9-0.3,1.8-0.6,2.7-0.9c-0.2-0.4-0.4-1-0.4-1
		C110,25,107.2,25.5,107,25.7z M100.2,15.7c-0.5,1.5-0.4,1.8,0.8,2.8c0.5,0.5,0.6,0.5,1-0.5c0.2-0.5,0.3-1.1,0.2-1.3
		s-0.5-0.8-0.9-1.5l-0.6-1.1L100.2,15.7z M105.4,26.5c-0.4,0.3-1.6,0.9-2.7,1.3c-2.3,0.8-3,1.3-2.6,1.8c0.2,0.2,0.2,0.7,0.1,1
		c-0.1,0.6-0.1,1,0.1,1.3c0.2-0.5,0.5-0.9,0.7-1.4c0.5-1.2,2.9-2.3,6-3.4C106.2,26,106.1,26,105.4,26.5z M88.1,6.4
		c-2.2,0.1-2.6,0.2-3.3,1c-0.9,1-1,1.8-0.3,3.3c1,2.2,2.3,4.1,2.7,3.9c0.2-0.1,1.6-0.6,3.1-1.2l2.7-1v-1.2c0-1.1-0.7-2.7-1.8-4.2
		C90.8,6.4,90.1,6.3,88.1,6.4z M100.1,18.6c-0.6-0.7-1.6-1.2-3-1.7c-2.1-0.7-2.8-0.6-4.7,0.9c-0.7,0.6-0.8,0.8-0.4,1.7
		c0.8,2.1,2.7,4.6,4.2,5.4c1.4,0.8,1.4,0.8,2.5-0.2c0.8-0.7,1.2-1.5,1.7-3.1s0.6-2,0.2-2.6C100.5,19.1,100.3,18.9,100.1,18.6z
		 M92.3,13.3c-0.6,0.2-1.2,0.5-1.4,0.7s-0.3,1.1-0.2,2c0.2,1.9,0.2,1.9,2.6,0.4c1.4-0.9,1.4-0.7,0.5-2.7c-0.1-0.2-0.2-0.3-0.2-0.4
		C93.3,13.1,93,13.1,92.3,13.3z M102.2,25.6c-1.3-0.7-2.2-0.9-2.4-0.7c-0.2,0.2-0.7,0.6-1,0.9c-0.5,0.5-0.5,0.7,0.1,1.5
		c0.5,0.6,0.9,0.8,1.3,0.7c0.3-0.1,1.3-0.4,2.2-0.7c0.9-0.3,1.7-0.6,1.7-0.6S103.3,26.2,102.2,25.6z M82.3,6.7
		c0.1,0.1,0.2,0.3,0.4,0.4c0.7,0.6,0.7,0.6,1.6-0.4c0.5-0.6,0.9-1.2,1-2C84.4,5.3,83.3,6,82.3,6.7z M89.2,14.8
		c-0.4,0.1-2.1,1.2-3.6,2.3l-2.9,2.1l1.6,2c1.8,2.3,3.3,3.5,3.8,3.1c0.3-0.2,1.1-1.2,2.7-3.2c0.3-0.4,0.3-1,0-1.8
		c-0.2-0.7-0.5-2-0.7-2.9l-0.2-1.8L89.2,14.8z M98,27.4c-0.6-0.6-1.6-1.4-2.2-1.7l-1.2-0.6l-1.2,1.6c-2.1,2.8-2.2,3.1-1.5,4.4
		l1.3,2.2c0.9,1.6,2.1,1.7,4.3,0.2l1.8-1.2l-0.1-1.9c-0.1-1.2-0.2-1.8-0.6-2.4C98.4,27.9,98.2,27.7,98,27.4z M81.8,7.1
		c-2.2,1.6-4.1,3.6-5.9,5.6c0.8,0.7,1.3,0.8,2.3,0.7c1.5-0.1,1.6-0.2,3.1-1.8c1.8-1.9,2.1-2.8,1.1-4C82.2,7.5,82,7.3,81.8,7.1z
		 M82.8,11.3c-0.4,0.5-1.1,1.2-1.7,1.6c-1,0.8-1,0.8-0.3,2c0.4,0.7,0.9,1.7,1.2,2.2l0.5,0.9l1.8-1.4l1.8-1.4L85.4,14
		c-0.4-0.7-1-1.7-1.3-2.4l-0.6-1.1L82.8,11.3z M91.8,21.1c-0.1,0-0.9,0.9-1.9,2c-0.9,1.1-1.6,2.1-1.4,2.3c0.8,0.8,2.7,2.5,2.9,2.5
		c0.1,0,0.8-0.7,1.4-1.5l1.2-1.5l-1-1.8c-0.4-0.7-0.8-1.4-1.1-1.6C91.9,21.2,91.8,21.1,91.8,21.1z M97.9,34.1l-1.8,1.2l0.7,0.9
		c0.2,0.3,0.5,0.6,0.8,1c0.7-1.4,1.5-2.8,2.2-4.2C99.4,33.2,98.7,33.5,97.9,34.1z M77.9,14.4c-2.4,0.3-2.8,0.9-3.5,3.8
		c-0.5,2.3-0.5,2.7,0.1,3.5c0.6,0.7,0.9,0.9,2,0.8c1-0.1,1.6-0.5,3.4-2c2.4-2,2.4-1.8,0.5-4.9l-0.9-1.5L77.9,14.4z M85.3,24.1
		c-0.1,0-0.9,0.8-1.8,1.9c-1.3,1.6-1.7,2.2-1.9,3.6c-0.1,0.9-0.2,1.8-0.1,1.8s0.2,0.2,0.4,0.3c0.2,0.1,0.8,0.6,1.5,1.1
		c0.9,0.7,1.4,0.8,2.3,0.6c1-0.2,1.3-0.5,3-2.6c1-1.3,1.9-2.4,1.9-2.5C90.7,28.3,85.6,24.2,85.3,24.1z M94.3,35.4
		c-1.3-0.3-3.1,1.1-4.2,3.2c-0.5,1-0.7,1.8-0.5,2.1c0.2,0.2,0.7,1.1,1.2,1.9s1,1.4,1.3,1.4c0.2,0,1.3-0.4,2.4-0.7
		c0.9-1.8,1.8-3.6,2.8-5.4C96.2,36.7,94.9,35.5,94.3,35.4z M82.2,19.6l-2,1.6c-1.7,1.4-1.9,1.6-1.6,2c0.2,0.3,0.9,1.3,1.5,2.2
		l1.1,1.8l1.3-1.3c2.7-2.8,2.7-2.5,1.1-4.5L82.2,19.6z M89.9,30.6c-0.3,0.4-1,1.3-1.6,2l-1,1.3l1.5,1.1c1.6,1.1,2.3,1.1,3.6,0.1
		c0.6-0.5,0.6-0.7,0.1-1.6c-0.3-0.6-1-1.6-1.4-2.3c-0.3-0.5-0.4-0.7-0.5-0.9C90.4,30,90.2,30.2,89.9,30.6z M75.4,13.2
		c-0.5,0.6-1,1.1-1.4,1.7c0.4,0,0.7-0.1,1.2-0.4l1-0.6L75.4,13.2z M73.6,15.5c-1.4,1.9-2.6,3.8-3.7,5.6c0.4,0,0.9-0.1,1.3-0.2
		l1.8-0.3l0.5-2.4c0.3-1.3,0.5-2.5,0.6-2.5C74,15.7,73.8,15.6,73.6,15.5z M88.3,35.4l-1.8-1.1L83.3,35c-1.8,0.4-3.4,0.8-3.6,1
		c-0.2,0.1-0.2,0.8-0.2,1.6c0.1,0.7,0.2,1.4,0.2,1.4c1.3,1.1,5.1,3.3,5.6,3.2c0.8-0.1,3.1-2.6,4.1-4.4l0.6-1.1L88.3,35.4z
		 M76.6,23.5c-1.3,0.1-1.7,0.3-3.1,1.7l-1.7,1.5l0.6,1.1c0.3,0.6,0.8,2,1,3.1l0.3,2l1.3-0.3c0.7-0.2,2.3-0.6,3.4-0.9l2-0.6l0.2-1.5
		c0.2-1.1,0-1.9-0.6-2.8c-0.4-0.7-1-1.8-1.4-2.4c-0.1-0.2-0.3-0.4-0.4-0.6C78,23.4,77.6,23.4,76.6,23.5z M93.8,44.4
		c-2.9,0.9-3.6,1.5-4.4,3.6c-0.4,1.3-0.5,2-0.2,2.7c0.5,1,0.6,1.2,2,1.7C91.7,49.5,92.7,46.9,93.8,44.4L93.8,44.4z M83.6,33.8
		c-0.3-0.2-1-0.7-1.6-1.2c-0.9-0.6-1.4-0.8-2.1-0.6c-0.6,0.2-1.1,0.4-1.3,0.6s-0.1,0.8,0.1,1.5l0.3,1.1l2.6-0.5
		c1.8-0.4,2.4-0.5,2.2-0.8C83.7,33.9,83.7,33.9,83.6,33.8z M71.8,21.5c-0.8,0.2-1.5,0.5-1.5,0.7s0.2,1.2,0.5,2.2l0.5,1.8l0.8-0.7
		c0.5-0.4,1.2-1.1,1.7-1.6c0.8-0.9,0.8-1,0.2-1.8C73.4,21.3,73.1,21.2,71.8,21.5z M88.5,40.5c-0.1,0-0.7,0.5-1.3,1.1
		c-1.1,1.1-1.1,1.3,0,2.2c0.2,0.2,0.8,0.7,1.3,1.2c0.9,0.8,1,0.8,1.8,0.2l0.9-0.7l-1.3-2c-0.3-0.5-0.7-1-0.9-1.4
		C88.8,40.7,88.6,40.5,88.5,40.5z M87.2,44.7c-0.9-0.8-1.8-1.5-2.1-1.6s-1.2,0.4-2.1,1.1c-1.3,1-1.7,1.6-2.3,3.2
		c-0.4,1-0.7,1.9-0.7,1.9l1.5,1c0.8,0.5,1.6,1,1.9,1.1s1.4-0.3,2.5-0.8c2-0.8,2-0.9,2.5-2.1c0.5-1.3,0.6-1.8,0.2-2.4
		C88.3,45.7,87.9,45.3,87.2,44.7z M69.3,22.1c-1.7,3.1-2.9,6-3.5,8.2c0.3,0,0.6,0,1.1,0c1-0.1,2.6-0.3,3.5-0.6
		c1.5-0.4,1.5-0.4,1.4-1c-0.1-0.3-0.7-1.9-1.3-3.6L69.3,22.1L69.3,22.1z M75.2,33.6c-1.3,0.3-2.4,0.6-2.5,0.7s-0.2,0.8-0.3,1.7
		c-0.1,1.1,0.1,2,0.7,3.1c0.5,0.9,0.9,1.6,0.9,1.6s0.5,0.1,1.1,0.2c1,0.1,1.2,0,2.2-1.2c1.3-1.5,1.5-3,0.7-5.2l-0.5-1.4L75.2,33.6z
		 M83.4,42.1c-0.2-0.1-1.3-0.9-2.4-1.7c-1.8-1.3-2.1-1.4-2.5-0.8c-0.2,0.3-0.8,0.8-1.2,1.2c-0.7,0.5-0.6,0.9,0.1,1.4
		c0.2,0.1,1,0.8,1.8,1.5l1.5,1.3l1.6-1.2c1.1-0.8,1.4-1.2,1.2-1.4C83.5,42.1,83.5,42.1,83.4,42.1z M70.9,30.2
		c-0.9,0.2-1.7,0.5-1.7,0.6c-0.2,0.3,2.6,2.5,3.4,2.6c0.6,0.1,0.7-0.1,0.3-1.7l-0.4-1.8L70.9,30.2z M87,50.9c-0.9,0.5-1,0.7-0.7,1.3
		c0.9,2.1,0.7,2,2,1c1.1-0.9,1.2-1,0.7-1.9c-0.1-0.3-0.2-0.5-0.3-0.6C88.3,50.2,88,50.4,87,50.9z M70,32.6c-1.3-1.1-2-1.3-3.1-1.4
		c-0.4,0-0.8,0-1.3,0.1l-0.1,0.3c-0.4,2.4-0.4,5.2,0,7.8c0.1,0,0.2,0.1,0.4,0.1c1.3,0.2,1.6,0.1,3.4-1.1l2-1.3l0.2-1.6l0.1-1.6
		L70,32.6z M78.2,43.6c-2.1-1.8-3.3-2.2-5.1-1.8c-1.6,0.3-1.9,0.8-2.1,2.9c-0.2,2-0.2,2,1.3,3.8c1.1,1.4,1.6,1.8,1.9,1.6
		c0.2-0.2,1.4-0.5,2.7-0.6l2.3-0.3l0.6-1.8c0.3-1,0.6-1.9,0.6-2C80.2,45.3,79.3,44.5,78.2,43.6z M82.4,53c-3.1,1.5-3.3,1.7-3.1,3.6
		c0.1,0.9,0.4,2.4,0.6,3.3l0.1,0.3c0.6,0.4,1.1,0.9,1.7,1.2l0,0c0.6-0.1,1.3-0.2,2-0.4c1.4-0.3,1.7-0.5,2.5-1.5c1-1.4,1-3.4-0.1-6
		c-0.2-0.5-0.3-0.8-0.5-1C85.1,51.7,84.5,52,82.4,53z M69.8,39c-2,1.2-2,1.6-0.1,2.4c0.7,0.3,3,0.1,3.5-0.3c0.1-0.1-1.4-3.2-1.6-3.2
		C71.6,37.8,70.7,38.3,69.8,39z M82.2,51.8c-0.3-0.2-1.1-0.8-1.7-1.2c-1-0.8-1.3-0.8-3.1-0.4c-1.1,0.3-2.1,0.6-2.2,0.7
		c-0.3,0.2-0.3,0.2,1.6,1.7s2,1.6,3.3,0.8c0.6-0.3,1.5-0.7,1.9-0.9c0.5-0.2,0.6-0.3,0.5-0.5C82.4,51.9,82.3,51.9,82.2,51.8z
		 M87.1,59.3c-0.2,0.3-0.6,0.9-0.9,1.3c-0.8,1-0.1,1.8,1.4,1.6l0,0c0.4-0.2,0.7-0.5,1.1-0.9c-0.1-0.3-0.3-0.8-0.7-1.5
		c-0.1-0.2-0.2-0.4-0.3-0.5C87.5,58.9,87.4,58.9,87.1,59.3z M86.3,62.6c0.2,0,0.3-0.1,0.5-0.1C86.6,62.5,86.4,62.6,86.3,62.6z
		 M68.4,41.4c-0.8-0.4-1.9-0.8-2.8-1c0.5,3.2,1.5,6.3,2.7,8.1l0.3-0.5c0.7-1.2,1.2-2.5,1.3-3.8l0.2-2L68.4,41.4z M85.7,62.2
		c-0.5-0.4-1.2-0.4-2.7-0.1c1.1,0.5,2.2,0.7,3.2,0.5C86.1,62.5,85.9,62.3,85.7,62.2z M75.3,52.1c-1.2-0.9-1.2-0.9-3.1-0.1h-0.1
		c1.5,1.5,3.4,3.8,5.5,5.9c0.5-0.6,0.6-1,0.6-1.9c0-0.8,0-1.2-0.4-1.7S76.7,53.2,75.3,52.1z M70.1,46.9l-1,1.7
		c-0.1,0.2-0.2,0.3-0.3,0.5c0.4,0.5,0.9,0.9,1.4,1.2c0.4,0.2,0.9,0.6,1.4,1.2c0.4-0.2,0.8-0.4,1-0.5c0.5-0.2,0.4-0.4-0.9-2.2
		L70.1,46.9z M78.1,58.4c0.3,0.3,0.5,0.5,0.8,0.7c-0.2-0.5-0.3-1-0.4-1C78.5,58.2,78.3,58.3,78.1,58.4z"/>

		<radialGradient id="SVGID_2_" cx="-561.0095" cy="99.302" r="49.5739" gradientTransform="matrix(-0.62 -0.7846 -0.7846 0.62 -190.6334 -461.3534)" gradientUnits="userSpaceOnUse">
		<stop  offset="9.496796e-03" style="stop-color:#8ED089"/>
		<stop  offset="1" style="stop-color:#FFFFFF;stop-opacity:0"/>
	</radialGradient>
	<path class="st2" d="M113.7,9.7c-3.7,2.4,3.1,7,4.4,2.9C116.9,11.5,115.2,10.5,113.7,9.7z M102.8,12.9c2.9-0.2,6.7-0.4,4.2-4.2
		C105.9,5.7,102.2,12.1,102.8,12.9z M113.1,21.4l0.4-0.1l1-0.3C114.1,17.6,110.9,22.5,113.1,21.4L113.1,21.4z M96.6,12.5
		c0.5-1.1,3-3.2,1.8-4.7C96,7,92.9,11.7,96.6,12.5z M103.2,22c2.5,0,5.8-1.5,2.8-4.3C103.7,15.8,100.2,21.8,103.2,22z M88.7,7.2
		c-0.1-0.7-0.8-0.2-1.2-0.4c-3.1-0.9-3.3,1.7-1.4,3.5C87.7,11.3,91.3,9.1,88.7,7.2L88.7,7.2z M97.5,18.7c-0.1-0.7-1.3-1.1-1.9-1.3
		c-2.6-1.5-3.6,1.4-1.2,2.9C95.8,23,97.3,20.8,97.5,18.7L97.5,18.7z M84.3,17.9c1.1,3.4,4.4,1.4,2.9-1.3
		C87.1,15.2,85.1,17.8,84.3,17.9z M92.3,28.3c0,4,4.5,2.6,3.5-0.3C94.4,25.7,93.4,25.9,92.3,28.3z M90.4,23
		C89.9,22.2,89.5,24.5,90.4,23z M82.4,13.1C81.7,10.4,80.6,14.6,82.4,13.1z M74.9,18.5c0.6,1.2,5.1-2,2.6-3.4
		C75.4,13.7,75.2,17,74.9,18.5z M82.4,28.3c0.7,3.4,3.5,0.6,4.3-1.2C84.5,24.2,83.1,25.7,82.4,28.3z M91.2,37.1
		c-2,1.8,1.2,4.6,1.6,0.9C94.6,36,92,35.1,91.2,37.1z M80.8,22C82.2,19.7,77.7,22.3,80.8,22z M80.3,35.9c1.7,2.2,4.7,3.3,5.8-0.2
		C84.7,33.9,82.2,35.7,80.3,35.9z M76.4,25l-0.1-0.2l-0.5-0.9c-2.7,0.1-2.9,2.7-1.7,4.7C76,29.8,79.1,27,76.4,25L76.4,25z
		 M73.2,35.4c0.3,3.3,2.8,0.3,1.8-1.5C74,34,72.8,34,73.2,35.4z M68.1,26.3C68.3,24.1,66.6,27.4,68.1,26.3z M66.3,31.8
		c-1.2,1.7,0.1,6.1,2,1.9C68.6,32.8,67,32.3,66.3,31.8z M80.6,57.4c2.8,1.2,3.9-2.4,2.6-4.4C80.5,52.7,79.3,54.9,80.6,57.4z"/>
	<path class="st3" d="M71.7,41.3c-0.1-0.6,5.3,8.1,4.2,10.4S57.8,75.2,54.8,83.5s7.4,34.1,7.4,34.1s5.8,10.2,0.7,10.2
		c-5.2,0-21.5-22.6-22-24.1s-2.1-19.5-1-22.9c1-3.4,6.7-9.8,6.7-9.8s-4.5-2-12-4.9C27,63.4,16,55.4,13.5,52.9
		C9.9,49.2,5.6,37.6,6.2,38l-4.8-4.7C1.2,29,6,23.5,10,21.3c4.7-2.5,12.2-0.8,17.4,1.4c3.6,1.6,8.6,4.9,13.5,8.6c4.7,3.6,9,11,9,11
		l11.4,3.6L71.7,41.3L71.7,41.3z"/>

		<radialGradient id="SVGID_3_" cx="-213.1146" cy="296.7602" r="47.3537" gradientTransform="matrix(-0.6287 -0.7776 0.7776 -0.6287 -349.638 66.3079)" gradientUnits="userSpaceOnUse">
		<stop  offset="0" style="stop-color:#FFFFFF;stop-opacity:0.6131"/>
		<stop  offset="1" style="stop-color:#EFDD70;stop-opacity:0.2993"/>
	</radialGradient>
	<path class="st4" d="M42.4,46.8c-1.3,1.7-3.1,2.9-5.1,3.8l0,0C23.7,55,22.4,45,20.4,34.6c-0.5-1.3-1.7-1.4-3.1-1.6
		c-9,0.2-9-2.3-9.3-10c-3.3,2.7-6.6,7-6.3,10.6l4.9,4.7c2.8,16.6,22.5,26.3,39,32.1c0.3-7.4,0.1-11.8,3.1-16.1
		c-10,2.1-10.4,2.6-5.5-8.2C43.1,46,42.8,46.4,42.4,46.8z M11.1,21c0.1,0,0.2,0,0.3-0.1v-0.1C11.3,20.9,11.2,21,11.1,21z"/>

		<radialGradient id="SVGID_4_" cx="239.0957" cy="-161.1578" r="30.2346" gradientTransform="matrix(1.5166 1.146 0.3307 -0.4376 -287.3712 -271.9654)" gradientUnits="userSpaceOnUse">
		<stop  offset="0" style="stop-color:#FFFFFF;stop-opacity:0.6131"/>
		<stop  offset="1" style="stop-color:#EFDD70;stop-opacity:0.2993"/>
	</radialGradient>
	<path class="st5" d="M47.5,77.5c-1-1.5-2.4-2.5-3.4-3.2c-6.2,6.6-5,10.5-4.5,21.2C46.7,99.1,51.1,81.7,47.5,77.5L47.5,77.5z"/>

		<radialGradient id="SVGID_5_" cx="204.7974" cy="378.3561" r="20.371" gradientTransform="matrix(-1.7339 -1.0457 -0.4053 0.6721 528.1955 -6.1893)" gradientUnits="userSpaceOnUse">
		<stop  offset="0" style="stop-color:#006F38;stop-opacity:0"/>
		<stop  offset="1" style="stop-color:#76B571"/>
	</radialGradient>
	<path class="st6" d="M71.5,41.9L61,46.3l-11.3-3.8c0,0-4.8-8.1-9.3-11.4L39.8,31c-9.5-7.1-20.6-14.7-31.2-9
		C8.2,34.2,11.2,31.2,20,33.2c3.3,6.8,0.4,22.3,17.3,17.4l0,0c2.3-0.8,4.4-2.6,5.9-4.4c0,0-5.8,10.5-1.7,9.6c12-2.4,4.6-1.9,3.7,8
		c1.5,1.1,2.3,2,2.1,2.8c-1,3.1,3.7-1.2,5.2,3.7c1,3.6-2.1,4.2-4.1,8.3c1.9,14.2-5.7,8.9,4.5,27.8l1.2-12.2
		c-5-13.6,18.9-35.6,21.5-41.8C76.5,50.2,72.6,43.2,71.5,41.9z"/>

		<radialGradient id="SVGID_6_" cx="-202.1846" cy="323.3078" r="17.2636" gradientTransform="matrix(-0.6096 -0.7927 0.7927 -0.6096 -354.2377 61.5446)" gradientUnits="userSpaceOnUse">
		<stop  offset="0" style="stop-color:#85B96E"/>
		<stop  offset="1" style="stop-color:#9BB96E;stop-opacity:0"/>
	</radialGradient>
	<path class="st7" d="M40.6,31.9c-0.2-0.2-0.4-0.3-0.6-0.5c-0.2,2.1-2.3,3.3-4.1,4.4c-6.2-2.6-5.6-4.4-2-8.9L33,26.3
		c-0.9,1.1-1.9,5.1-3.6,4.4c-2.6-0.7-1.9-3.4-1.7-5.6c1.2,0.2,3.2,0.5,4.3,0.6c-0.6-0.4-1.3-0.7-1.8-1.1c-2-0.4-2.4-0.6-3.2-1.6
		c-0.7-0.3-1.4-0.6-2.2-0.9l2.1,2.4c-0.1,1.2-0.2,3.6-0.3,4.7c-8.2-0.1-9-0.4-7.9-8.7c-0.3,0-0.5-0.1-0.7-0.1c0.1,0.9-0.4,5-0.4,5.4
		c0.2,0.9-3.4-0.9-4.1-1.1c0.2-1,0.7-3.7,0.8-4.4c-0.3,0-0.5,0-0.8,0.1c-0.6,4.8-0.4,4.2-4.8,5c0,0.4,0,0.8,0.1,1.1
		c2-0.7,7.5-0.6,8.8,1.6c0.2,0.5-0.4,3.8-0.8,4.7c0.3,0,0.6,0.1,0.9,0.1c0.6-4.1,0.7-4.5,4.4-2.9c0.1,0.1-1.3,2.9-1.8,3.7
		c0.2,0.2,0.4,0.5,0.5,0.8c0.3-0.9,1.5-3,1.7-3.4c1.7-1.5,7.6-0.3,7.7,1.6c0.3,1.2-1.2,6.4-2.2,7.5c-1.5,1.8-5.3-3.5-6.9-4.5
		c0.1,0.5,0.2,1,0.3,1.6l1.8,1.7l-1.4,1c0,0.3,0.1,0.6,0.1,1c1.7-1.6,2.2-1.5,3.9-0.2c1.1,0.9,1.1,0.9,0.4,2.7
		c-1.1,3.4-1.3,1-3.9-0.7c0.1,0.4,0.2,0.8,0.3,1.1c2,1.7,3.3,2.9,4.1,4.5l-0.8,1.2c0.2,0.2,0.4,0.3,0.6,0.4c0.8-1.2,0.7-1.6,3-1
		c2.9,0.7,2.4,0.1,0.6,2.5c0.3,0.1,0.6,0.1,0.8,0.1c3.2-3.5,3.7-3.6,6.4-0.9c0.5-0.2,1-0.4,1.4-0.7c0-3.8,0.9-4.5,4.9-6.1
		c0-0.4,0.1-0.8,0.1-1.3c-0.8,0.5-3.6,1.7-4.7,2.2l-1.5-1.4c-2.3-1.1-1.6-7.5,0.7-7.8c1.8-1.6,2-0.8,4.8,1.4
		c-0.1-0.3-0.1-0.6-0.2-0.9c-1.6-1.5-3.3-2.1-2-4.3L40.6,31.9z M35.3,39c-0.2,0.9-0.4,1.9-0.4,2.2c0.3,1-4.6-1.4-5.5-1.7
		c0.4-1.7,1.1-3.5,1.8-5C33.4,35.7,36.6,35.9,35.3,39z M38,49c-0.4,1.6-0.5,1.6-1.9-0.2C35,48,34.7,43,35.7,43.2
		C37.7,44.8,39.3,45,38,49z M34.5,45l-0.2,2.6c-5.7,2.5-11.1-1-5.9-6.6c0.6-1.5,4.6,0.8,6.2,1.4L34.5,45z"/>

		<radialGradient id="SVGID_7_" cx="279.6649" cy="353.5453" r="7.6107" gradientTransform="matrix(-1.6573 -0.5996 -0.3111 0.8599 589.0696 -97.8927)" gradientUnits="userSpaceOnUse">
		<stop  offset="0" style="stop-color:#005028"/>
		<stop  offset="1" style="stop-color:#006F38;stop-opacity:0"/>
	</radialGradient>
	<path class="st8" d="M20.6,46.5c-2.5-2.2-4.7,0.2-6.6-1.3s-3.5-10.5-2.2-11.1c1.4-0.7,9-0.5,8.4,2.2C19.6,38.9,20.6,46.5,20.6,46.5
		L20.6,46.5z"/>
	<g transform="matrix(.76345 0 0 .76345 139.29 41.374)">
		<path class="st9" d="M-159.4-5.6c1.9,2.4-1.7,5.2-3.5,2.7C-164.9-5.3-161.3-8.1-159.4-5.6z"/>

			<radialGradient id="SVGID_8_" cx="548.8866" cy="536.2396" r="4.69" gradientTransform="matrix(-0.3905 0.3003 0.1894 0.2464 -46.1032 -300.8828)" gradientUnits="userSpaceOnUse">
			<stop  offset="0" style="stop-color:#EEEEEC"/>
			<stop  offset="1" style="stop-color:#EEEEEC;stop-opacity:0"/>
		</radialGradient>
		<path class="st10" d="M-159.4-4.6c0.7,0.9-1,2.2-1.7,1.3C-161.8-4.2-160.1-5.5-159.4-4.6z"/>
	</g>
	<path class="st0" d="M5.5,37.4l0.7,0.8c-0.2-0.1,0.1,1,0.7,2.6c3,4.1,11,6.8,12.3,12.5c-0.2-1-1-4.8-2.6-6.1"/>
	<path class="st0" d="M156.8,174c-0.5-0.7-0.7-1-0.7-1l-18-8c0,0-10.8,6.5-5.9,24.8c5,18.3,29.6,45.5,34.2,41.9
		c4.6-3.6,6.8-7.5,6.7-22.3C173.1,196.5,160.1,178.4,156.8,174L156.8,174z"/>
	<path class="st3" d="M155.1,173.1c-0.1,0.2-0.2,0.7-0.2,0.7s0.8,0.3,1.7,0.7c0.1,0,0.2,0.1,0.2,0.1l-0.7-1L155.1,173.1z
		 M156.6,176.7c-1.9,0.7-2.5,1.1-2.1,1.5c0.2,0.2,0.2,0.6,0.2,0.8c-0.2,1.1,0,1.5,1.6,2.6s1.6,1.1,3,0.7l1.5-0.5l0.1-1.3
		c-1.1-1.8-2.1-3.1-2.9-4.3C157.5,176.4,157.1,176.6,156.6,176.7z M156.2,175c-1.1-0.6-1.8-0.7-2-0.6c-0.2,0.2-0.6,0.5-0.8,0.7
		c-0.4,0.4-0.4,0.6,0.1,1.2c0.4,0.5,0.7,0.7,1.1,0.6c0.2-0.1,1.1-0.3,1.8-0.6c0.7-0.2,1.4-0.5,1.4-0.5
		C157.8,175.8,157.1,175.4,156.2,175z M161.8,182.1c0.2,0.2,0.3,0.3,0.6,0.5l-0.7-1C161.7,181.9,161.7,182,161.8,182.1z M163,183.8
		c-1.9-1.7-1.8-1.7-3.1-1.2c-0.7,0.2-1.3,0.5-1.5,0.6c-0.2,0.2,0.2,0.6,1.4,1.3c0.8,0.5,1.5,0.7,2.4,0.5c1-0.2,1.3-0.2,1.3-0.5
		l-0.2-0.3C163.3,184.1,163.2,184,163,183.8z M147.7,169.9c0,0.1,0,0.1,0.1,0.2c0.7,1.7,2.3,3.7,3.4,4.4c1.1,0.7,1.1,0.7,2-0.1
		c0.4-0.4,0.8-0.8,1.1-1.5L147.7,169.9z M163.4,185.2c-0.7,0.2-1.5,0.5-1.6,0.6c-0.5,0.3-0.3,1.9,0.4,3.7c0.4,1.1,0.7,2,0.8,2.2
		s0.6,0.2,1.1,0.2c0.8-0.1,1.4-0.4,2.7-1.4l0.1-0.1c-1-1.9-2-3.7-3-5.3C163.7,185.1,163.5,185.2,163.4,185.2z M165.7,192.2l1.4,0.8
		c0.7,0.4,1.1,0.6,1.3,0.6c-0.4-0.9-0.8-1.7-1.3-2.6L165.7,192.2z M168.7,194.8c-1,1.5-1.1,1.6-0.7,2.4c0.2,0.4,0.7,1.1,1,1.7l0.6,1
		l1.3-0.3c-0.6-1.6-1.2-3.4-2-5C168.8,194.7,168.8,194.7,168.7,194.8z M166.7,193.3c-1.3-0.7-1.6-0.8-3-0.5
		c-0.9,0.2-1.9,0.6-2.2,0.8c-0.5,0.3-0.6,0.7-0.3,1.2c0.5,1.6,2.7,4.2,3.3,3.7c0.4-0.3,2.6-2.8,3.1-3.6l0.7-0.8L166.7,193.3z
		 M159.2,184.6l-1.6-1.1l-1.6,1.3c-1.6,1.3-1.6,1.3-1.5,2.2c0.1,0.5,0.6,1.4,1.1,2c0.8,1.1,1,1.1,1.9,1.1c0.9-0.1,1.1-0.2,2-1.3
		c0.6-0.7,1.1-1.6,1.1-2.2l0.2-1L159.2,184.6z M152.7,176.5c-0.5-0.5-1.3-1.1-1.8-1.4l-1-0.5l-1,1.3c-1.7,2.3-1.8,2.5-1.2,3.6
		l1.1,1.8c0.7,1.3,1.6,1.4,3.5,0.2l1.5-1l-0.1-1.6c-0.1-1-0.2-1.5-0.6-1.9C153,176.8,153,176.6,152.7,176.5z M142.9,167.7
		c-0.1,0.1-0.2,0.2-0.3,0.2l-2.4,1.7l1.3,1.6c1.5,1.9,2.7,2.9,3.1,2.5c0.2-0.2,0.9-1,2.2-2.6c0.2-0.3,0.2-0.8,0-1.5
		c0-0.1-0.1-0.2-0.1-0.3L142.9,167.7z M170.7,200.5c-1,0.3-1.5,0.7-2.2,1.4s-1,1.5-1.1,2.3l-0.2,1.3l2,0.5c1.6,0.3,2.4,0.4,3.3-0.1
		c-0.2-1.8-0.7-3.7-1.3-5.6L170.7,200.5z M147.6,171.2c-0.1,0-0.7,0.7-1.6,1.6c-0.7,0.9-1.3,1.7-1.1,1.9c0.7,0.7,2.2,2,2.4,2
		c0.1,0,0.7-0.6,1.1-1.2l1-1.2l-0.8-1.5c-0.3-0.6-0.7-1.1-0.9-1.4C147.7,171.3,147.7,171.2,147.6,171.2z M159.9,189.4
		c-0.9,1.1-1,1.2-0.7,1.8c0.2,0.3,0.6,1,0.7,1.5c0.5,0.9,0.7,0.9,1.9,0.1c0.7-0.5,0.7-0.5,0-2.5c-0.4-1.1-0.8-2-0.8-2
		C161,188.3,160.5,188.8,159.9,189.4z M156.9,183c-0.2-0.1-0.7-0.6-1.2-1.1s-1.1-0.9-1.2-1s-1,0.3-1.8,0.9l-1.5,1l0.6,0.7
		c0.3,0.4,0.9,1.1,1.3,1.5l0.7,0.7l1.7-1.3C156.6,183.6,157.1,183.3,156.9,183L156.9,183z M165.8,198l-1.2,1.1l1.2,1.6l1.3,1.6l1-1
		c0.6-0.6,1-1.1,1-1.1c0-0.2-1.8-3.4-2-3.4C167.1,196.9,166.5,197.4,165.8,198z M138.4,165.8c0.1,0.2,0.2,0.2,0.2,0.4
		c0.3,0.6,0.7,1.4,1,1.8l0.4,0.8l1.5-1.2l0.3-0.2L138.4,165.8z M172,207.2c0,0.2,0.3,1.1,0.7,2.1c0-0.1,0-0.2,0-0.2
		c0-0.8-0.1-1.7-0.2-2.5C172.2,206.8,172,207.1,172,207.2z M170,206.9l-1.3-0.3l-1.2,2.1c-0.7,1.1-1.5,2.4-1.9,2.6
		c-0.6,0.4-0.6,0.6-0.2,1.1c1.1,1.2,2,1.7,3.4,1.6c0.9-0.1,2.7-0.7,3.8-1.2c0-0.7,0-1.3,0-2c-0.1-0.3-0.2-0.7-0.4-1.1l-1.1-2.7
		L170,206.9z M157.5,191c-0.9,0-4.2,1.1-4.8,1.6c-0.2,0.2-0.2,0.7-0.2,1.3c0.1,0.6,0.2,1.1,0.4,1.3c1.1,1.1,2.7,2.5,3,2.6
		c0.7,0.2,2.8-0.4,3.9-1.1c1-0.6,1-0.6,0.7-1.3c-0.2-0.4-0.7-1.6-1.1-2.6l-1-1.9L157.5,191z M133.5,171.7L133.5,171.7
		c0.6,0.7,0.8,0.8,1.7,0.7c0.8-0.1,1.3-0.4,2.8-1.6c2-1.6,2-1.5,0.4-4L138,166C137.1,166.7,135,168.5,133.5,171.7z M142.4,173.7
		c-0.1,0-0.7,0.7-1.5,1.6c-1.1,1.3-1.4,1.9-1.6,3c-0.1,0.7-0.2,1.5-0.1,1.5c0.1,0.1,0.2,0.2,0.3,0.2c0.2,0.1,0.7,0.5,1.2,0.9
		c0.7,0.6,1.1,0.7,1.9,0.5c0.8-0.2,1.1-0.3,2.5-2.1c0.8-1.1,1.6-2,1.6-2C146.7,177.1,142.6,173.8,142.4,173.7z M163.3,199l-0.9-0.5
		l-1.1,1.4c-0.8,1.1-1.2,1.8-1.4,2.9c-0.2,1.3-0.2,1.5,0.6,2c0.4,0.3,1.5,1,2.3,1.5l1.6,0.9l1.1-0.9c0.8-0.7,1.1-1.1,1.3-2
		c0.2-1.1,0.2-1.2-1.1-2.9C164.7,200.1,163.8,199.3,163.3,199z M149.7,182.9c-1.1-0.2-2.5,0.9-3.4,2.6c-0.4,0.8-0.6,1.5-0.4,1.7
		c0.2,0.2,0.6,0.9,1,1.6c0.4,0.7,0.9,1.1,1.1,1.1c0.5-0.1,4.5-1.4,5.3-1.8c0.6-0.2,0.7-0.4,0.5-1.1c-0.1-0.2-0.3-0.7-0.7-1.1
		C152.1,184.7,150.4,183.1,149.7,182.9z M161.7,197.3c-0.4-0.6-0.6-0.6-1.7,0c-1.3,0.7-1.5,0.9-0.9,2c0.2,0.4,0.4,0.9,0.5,1.1
		c0.2,0.4,0.2,0.3,0.7-0.2c1.6-1.9,1.9-2.3,1.6-2.8C161.8,197.4,161.7,197.4,161.7,197.3z M141,171.5l-1.1-1.5l-1.6,1.2
		c-1.4,1.1-1.6,1.3-1.3,1.6c0.2,0.2,0.7,1.1,1.2,1.8l0.9,1.5l1.1-1.1c1.7-1.7,2-2,1.6-2.7c-0.1-0.1-0.2-0.2-0.3-0.4
		C141.3,171.9,141.2,171.7,141,171.5z M155.2,189.5c-0.9-1.1-0.9-1.1-1.9-0.7c-0.6,0.2-1.1,0.5-1.3,0.7c-0.4,0.3,0,2.7,0.4,2.6
		c0.9-0.3,3.5-1.2,3.6-1.3c0,0-0.1-0.2-0.2-0.4C155.7,190.1,155.4,189.8,155.2,189.5z M146.1,179c-0.2,0.3-0.8,1.1-1.3,1.6l-0.8,1.1
		l1.2,0.8c1.3,0.9,1.8,0.9,2.9,0.1c0.5-0.4,0.5-0.6,0.1-1.3c-0.2-0.5-0.7-1.4-1.1-1.9c-0.2-0.2-0.2-0.4-0.3-0.6
		C146.5,178.5,146.4,178.6,146.1,179z M167.2,205.9c-0.5,0-0.9,0.2-1.6,0.8c-0.8,0.8-0.9,1-0.5,1.6c0.2,0.4,0.5,1,0.6,1.2
		s0.2,0.4,0.3,0.2s0.6-1,1.1-1.9c0.7-1.1,0.9-1.6,0.7-1.9C167.9,206,167.6,205.9,167.2,205.9z M172.2,213.8c-0.8,0.4-1.4,0.8-1.4,1
		s0.2,1.1,0.6,2l0.6,1.6l0.4-0.3c0.2-1.4,0.2-2.9,0.3-4.6L172.2,213.8z M149.4,190.3c-2.4,0.7-3,1.2-3.6,3c-0.3,1.1-0.4,1.6-0.1,2.2
		c0.5,1.1,0.3,0.9,2.7,1.7c1.4,0.5,2.1,0.6,2.3,0.3c0.7-1.9,0.9-3.4,0.8-5.4l-0.2-2.4L149.4,190.3z M158.1,198.6
		c-0.1-0.1-0.2-0.2-0.2-0.2c-0.6-0.1-5.6,0.7-5.8,0.8c-0.1,0.1-0.3,1-0.4,2c-0.1,1-0.2,1.9-0.1,1.9c0.5,0.5,1.9,1.1,3.4,1.5
		c2.6,0.7,3.8,0.2,4.2-2c0.2-1.1-0.2-2.9-0.7-3.7C158.3,198.7,158.2,198.7,158.1,198.6z M144.8,182.9l-1.5-1l-2.6,0.6
		c-1.5,0.3-2.8,0.7-2.9,0.8c-0.2,0.1-0.2,0.7-0.2,1.3c0.1,0.6,0.2,1.1,0.2,1.1c1.1,0.9,4.2,2.7,4.6,2.7c0.7-0.1,2.5-2.1,3.4-3.6
		l0.5-0.9L144.8,182.9z M168.7,214.9l-1.4,0.1l-0.8,1.1c-1,1.4-1.7,3.8-1.5,4.7c0.3,1.1,0.5,1.1,2.9,1.5l2.3,0.3l0.7-0.8
		c0.8-1.1,0.8-2.4-0.1-4.8c-0.4-1.1-0.7-2-0.7-2C170.1,214.9,169.4,214.9,168.7,214.9z M162.9,207.2c-1.3-0.7-1.6-0.8-2-0.4
		c-0.3,0.2-1.1,0.9-1.6,1.4c-0.9,0.7-1.1,1.1-1,1.6c0.1,0.7,0.2,1,2.7,3.1c2.6,2.3,2.4,2.2,2.9,0.6c0.2-0.8,0.7-1.8,1.1-2.3
		c0.5-0.5,0.7-1,0.6-1.2c-0.2-0.6-0.4-1-0.7-1.4C164.3,208.1,163.8,207.7,162.9,207.2z M135.2,173.2c-1.1,0.1-1.4,0.2-2.5,1.4
		l-0.4,0.4c-0.2,0.6-0.3,1.1-0.4,1.8c0.2,0.5,0.7,1.7,0.8,2.6l0.2,1.6l1.1-0.2c0.6-0.2,1.8-0.5,2.7-0.7l1.6-0.5l0.2-1.2
		c0.2-0.9,0-1.6-0.5-2.3c-0.3-0.6-0.9-1.5-1.1-2c-0.1-0.2-0.2-0.3-0.3-0.5C136.3,173.1,136.1,173.1,135.2,173.2z M154.5,197.5
		c-0.4-0.4-1.1-1.1-1.6-1.6L152,195l-0.6,1.7c-0.3,0.9-0.5,1.7-0.5,1.8c0.2,0.2,1.2,0.2,2.9,0l1.5-0.2L154.5,197.5z M159.9,205.1
		c-0.7-0.5-0.9-0.5-1.6-0.1c-0.4,0.2-0.8,0.6-0.9,0.7c0,0.2,0,0.9,0.1,1.6l0.2,1.4l1.6-1.4c0.8-0.8,1.6-1.5,1.6-1.6
		c0,0,0-0.1-0.1-0.1C160.6,205.6,160.2,205.4,159.9,205.1z M140.9,181.6c-0.2-0.2-0.8-0.7-1.3-1c-0.7-0.5-1.1-0.7-1.8-0.5
		c-0.5,0.2-0.9,0.3-1,0.5s-0.1,0.7,0.1,1.2l0.2,0.9l2-0.4C140.7,182,141.2,182,140.9,181.6C141,181.7,141,181.7,140.9,181.6z
		 M164.6,212.7c-0.2,0-0.5,0.6-0.7,1.3s-0.2,1.5,0,1.6c0.8,0.9,1.3,1.1,1.5,0.8c0.1-0.2,0.5-0.7,0.8-1.1c0.3-0.4,0.7-0.8,0.7-1
		c0,0,0-0.1-0.1-0.2C166.4,214,165,212.8,164.6,212.7z M132.6,173.9c0.2-0.2,0.3-0.3,0.4-0.4c0.6-0.7,0.6-0.8,0.2-1.3
		C133,172.7,132.7,173.3,132.6,173.9z M145,187.1c-0.1,0-0.6,0.4-1.1,0.9c-0.9,0.9-0.9,1.1,0,1.8c0.2,0.2,0.7,0.6,1.1,1
		c0.7,0.7,0.8,0.7,1.5,0.1l0.7-0.6l-1.1-1.6c-0.2-0.4-0.6-0.8-0.7-1.1C145.2,187.4,145,187.1,145,187.1z M171.2,222.2
		c-0.4,0.7-0.4,0.8,0.1,1.1c0.2-0.5,0.3-1.1,0.4-1.6C171.6,221.7,171.5,221.8,171.2,222.2z M154.9,205.4l-2-0.5l-1,1.3
		c-0.5,0.7-1.1,2-1.4,3c-0.2,0.9-0.4,1.8-0.2,2c0.8,0.9,2.5,1.8,3.4,2l1.1,0.2l1.1-1.6c1.1-1.5,1.1-1.6,1.1-3.8l-0.1-2.2
		L154.9,205.4z M168,223l-2.5-0.4l-0.6,1.1c-0.7,1.3-0.7,2.2,0.1,4.6c0.3,1,0.5,1.8,0.6,1.8c0,0,0.6,0.2,1.1,0.2
		c1.9-1.6,3.4-3.4,4.3-6.3c0-0.1-0.1-0.2-0.1-0.2C170.7,223.4,169.8,223.2,168,223z M144,190.6c-0.7-0.7-1.5-1.2-1.7-1.3
		s-1,0.3-1.7,0.9c-1.1,0.8-1.4,1.3-1.9,2.5c-0.3,0.8-0.6,1.6-0.6,1.6l1.2,0.8c0.7,0.4,1.3,0.8,1.6,0.9c0.2,0.1,1.1-0.2,2-0.7
		c1.6-0.7,1.6-0.7,2-1.7c0.4-1.1,0.5-1.5,0.2-2C144.9,191.4,144.4,191.1,144,190.6z M148.1,197.9c-2-0.7-2.1-0.7-3,0
		s-0.9,0.8-0.7,2.4c0.2,0.9,0.4,2,0.7,2.4c0.2,0.4,0.4,1,0.6,1.2c0.2,0.3,0.6,0.3,1.9,0.1c2.9-0.7,3.2-0.8,3.4-2.9
		c0.2-1.1,0.2-1.6-0.2-2C150.4,198.7,149.7,198.4,148.1,197.9z M134.1,181.5c-1.1,0.2-2,0.5-2,0.6c-0.1,0.1-0.2,0.7-0.2,1.4
		c-0.1,0.9,0.1,1.6,0.6,2.5c0.4,0.7,0.7,1.3,0.7,1.4c0,0,0.4,0.1,0.9,0.1c0.8,0.1,1,0,1.8-1c1.1-1.2,1.2-2.5,0.6-4.2l-0.4-1.1
		L134.1,181.5z M164,216.6c-0.4-0.4-1.3-1.1-1.9-1.5c-1-0.7-1.2-0.7-2.2-0.3c-2.5,0.8-2.6,0.9-2,2.1c0.2,0.6,0.7,2,0.9,2.9l0.4,1.8
		l0.9,0.2c0.7,0.2,1.3,0,2.4-0.7c1.5-0.8,1.5-0.8,1.9-2.3c0.3-1.1,0.4-1.4,0.1-1.8C164.3,216.9,164.2,216.8,164,216.6z M140.8,188.4
		c-0.2-0.1-1.1-0.7-2-1.4c-1.5-1.1-1.7-1.1-2-0.7c-0.2,0.2-0.7,0.7-1,1c-0.6,0.4-0.5,0.7,0.2,1.1c0.2,0.1,0.8,0.7,1.5,1.2l1.2,1
		l1.3-1C140.8,188.9,141,188.7,140.8,188.4C140.8,188.5,140.8,188.4,140.8,188.4z M158.2,211.4l-0.8-0.7l-1.1,1.6
		c-0.7,0.9-1.1,1.6-1,1.7c0.1,0.1,0.5,0.3,0.9,0.7c0.8,0.5,1.1,0.5,3.7-0.7c0.4-0.2,0.6-0.2,0.4-0.5
		C160.2,213.2,159.5,212.7,158.2,211.4z M131.6,178.4c-0.1,0.8-0.2,1.7-0.2,2.7c0.2,0.1,0.4,0.2,0.5,0.2c0.5,0.1,0.6-0.1,0.3-1.5
		l-0.3-1.5L131.6,178.4z M150.3,203.6c-0.9,0.4-1.1,0.9-0.6,1.9c0.2,0.5,0.5,1.1,0.6,1.3s0.2,0.3,0.2,0.2c0.3-0.2,1.7-2.2,1.8-2.5
		c0-0.1,0-0.2-0.1-0.2c0-0.1-0.1-0.2-0.1-0.2C151.8,203.7,150.8,203.4,150.3,203.6z M143.8,195.6c-0.7,0.4-0.8,0.6-0.6,1
		c0.7,1.7,0.6,1.6,1.6,0.8c0.9-0.7,0.9-0.8,0.6-1.5c-0.1-0.2-0.2-0.4-0.2-0.5C144.8,195.1,144.5,195.2,143.8,195.6z M164.3,220.8
		c-0.1,0-0.7,0.2-1.4,0.7c-1.2,0.7-1.4,0.9-1,1.2c0.2,0.1,0.7,0.5,1.1,0.9l0.9,0.7l0.5-1.1c0.3-0.7,0.3-1.3,0.2-1.7
		c-0.1-0.2-0.2-0.3-0.2-0.5C164.4,220.9,164.4,220.8,164.3,220.8z M136.6,189.7c-1.7-1.5-2.7-1.8-4.2-1.5h-0.1
		c0.2,0.6,0.2,1.1,0.4,1.8c0.4,1.6,1,3.1,1.6,4.7c0.3-0.1,0.6-0.2,1-0.2l1.9-0.2l0.5-1.5c0.2-0.8,0.5-1.6,0.5-1.6
		C138.1,191.1,137.5,190.4,136.6,189.7z M146.6,204.9c-1.1,0.2-2.3,0.6-2.4,0.7c-0.2,0.2-0.5,1.1-0.7,2.1c-0.4,1.6-0.4,2.1,0,2.9
		c0.3,0.4,0.7,0.9,0.9,1.3c0.8,0.3,3.6,0,4.3-0.6c0.4-0.3,0.8-1.1,1.1-2.1c0.3-1.3,0.2-1.9-0.2-2.8c-0.2-0.7-0.6-1.4-0.7-1.6
		c0-0.1,0-0.1-0.1-0.1C148.6,204.5,148.1,204.6,146.6,204.9z M139.9,197.4c-2.5,1.2-2.7,1.4-2.5,2.9c0,0.3,0.1,0.7,0.2,1.2
		c0.5,0.9,1,1.8,1.6,2.7c0.4-0.1,1.1-0.2,1.8-0.3c1.1-0.2,1.4-0.4,2-1.2c0.8-1.1,0.8-2.8-0.1-4.9c-0.2-0.4-0.2-0.7-0.4-0.8
		C142.2,196.3,141.7,196.5,139.9,197.4z M162.5,223.7c-1.9-1.4-3.1-1.5-4.6-0.3c-0.7,0.5-1.4,1.3-1.8,2c2.1,2,4.1,3.6,5.7,4.6h0.1
		l0.9-2.5c0.5-1.4,1-2.5,1-2.6c0,0,0-0.1-0.1-0.2C163.4,224.4,162.9,224.1,162.5,223.7z M153.5,214c-1.6-0.3-3,0.6-4.2,2.7l-0.5,0.9
		c1,1.2,2,2.4,3,3.4l0.7-0.2c1.7-0.4,4.7-2,4.7-2.5c0-0.2-0.2-0.8-0.4-1.6c-0.2-0.4-0.2-0.7-0.5-1.1c-0.1-0.1-0.2-0.2-0.2-0.3
		C155.6,214.6,154.7,214.1,153.5,214z M156.6,219.7c-0.8,0.5-1.5,1-1.5,1.1c0,0.2,0.2,0.8,0.7,1.5l0.7,1.2l0.8-0.4
		c1.4-0.7,1.6-1.1,1.1-2.6L158,219L156.6,219.7z M132.2,187.7c0.1-0.1,0.2-0.1,0.3-0.2c0.1,0-0.2-0.7-0.6-1.3
		C132,186.7,132.1,187.2,132.2,187.7z M139.9,196.4c-0.2-0.2-0.9-0.7-1.4-1.1c-0.8-0.7-1.1-0.7-2.5-0.3c-0.5,0.1-0.9,0.2-1.2,0.3
		c0.2,0.5,0.4,1,0.7,1.5l0,0l0.1,0.1c1.6,1.2,1.6,1.3,2.7,0.7c0.5-0.2,1.2-0.6,1.6-0.7c0.4-0.2,0.5-0.2,0.4-0.4
		C140,196.5,139.9,196.5,139.9,196.4z M163.8,227c-0.1,0.1-0.5,0.9-0.9,1.8c-0.2,0.6-0.4,1.1-0.6,1.5c0.7,0.3,1.2,0.7,1.8,0.7
		l0.9-0.8l-0.6-1.7C164.3,227.7,164,227.2,163.8,227C163.8,227,163.8,226.9,163.8,227z M143.9,202.5c-0.2,0.2-0.6,0.7-0.8,1
		c-0.7,0.9,0.1,1.6,1.5,1.2c1-0.2,0.9-0.2,0-1.9c-0.1-0.2-0.2-0.3-0.2-0.4C144.1,202.2,144,202.2,143.9,202.5z M150.7,212.2
		c-1-0.8-1.1-0.9-1.7-0.4c-0.6,0.4-0.6,0.6-0.2,1.6c0.2,0.6,0.5,1.2,0.5,1.3s0.3,0,0.8-0.2c0.9-0.5,1.8-1.1,1.7-1.3
		C151.7,213.1,151.2,212.7,150.7,212.2z M165.1,231.2c0.3,0,0.6,0,0.8-0.2C165.6,231.1,165.3,231.1,165.1,231.2z M142.6,204.9
		c-0.5-0.3-1.1-0.4-2.7,0l-0.3,0.1c0.8,1.3,1.6,2.6,2.5,3.9c0.2-0.5,0.3-1,0.4-1.4c0.3-1.1,0.6-2,0.6-2.1
		C143.2,205.4,143,205.1,142.6,204.9z M145,212.7c1.1,1.4,2,2.7,3.2,4c0.7-1.6,0.7-1.9,0.3-2.9c-0.2-0.7-0.5-1.1-0.5-1.2
		C148,212.6,146.3,212.7,145,212.7z M153.5,221.3c-0.3,0.1-0.7,0.2-1.1,0.3c1.1,1.1,2,2.1,3,3.1c0.5-0.9,0.4-1.1,0.1-1.8
		c-0.2-0.4-0.4-0.7-0.6-1C154.4,221.3,154.2,221.2,153.5,221.3z M135.9,198c0.2,0.4,0.4,0.9,0.7,1.3c0-0.4-0.1-0.7-0.3-1
		C136.1,198.3,136,198.2,135.9,198z"/>

		<radialGradient id="SVGID_9_" cx="-1000.6398" cy="125.6433" r="45.9499" gradientTransform="matrix(-0.5075 -0.6422 -0.6422 0.5075 -260.3798 -501.4494)" gradientUnits="userSpaceOnUse">
		<stop  offset="0" style="stop-color:#8ED089"/>
		<stop  offset="1" style="stop-color:#FFFFFF;stop-opacity:0"/>
	</radialGradient>
	<path class="st11" d="M156.9,179.3c-0.7,2.2,4.7,3.3,1.6,0.4C158.1,178.4,157.6,179,156.9,179.3z M164.4,189.1l-0.3-0.6l-0.4-0.7
		C163.4,189.5,166.3,192.6,164.4,189.1L164.4,189.1z M163.5,195.4c0.2,1.7,1.9,2.2,2.6,0C165.8,194.6,164.3,195.1,163.5,195.4z
		 M156.7,187.6c0.7,2.5,2.4,1.4,2.9-0.4C158.4,185.6,157.5,186.5,156.7,187.6z M149.6,179.1c0,3.4,3.9,1.9,2.8-0.4
		C151.1,176.7,150.7,177.4,149.6,179.1z M145.3,171.9C143.9,168.4,142,172.6,145.3,171.9z M148.1,174.8
		C147.7,174.2,147.4,176,148.1,174.8z M170.6,203.4c-2.5,1.6,1.9,2.9,0.2,0.2C170.7,203.2,170.6,203.3,170.6,203.4z M155,183.9
		C154.7,182.7,153.4,185.2,155,183.9z M168.9,211.1c-3.5,2.8,4.2,2.6,2.5,0C170.4,207.7,169.9,209.5,168.9,211.1z M154.8,194.7
		c0.5,2.9,6.5,2.5,3.8-0.5C158.8,192.4,154.5,194.1,154.8,194.7z M162.6,202.3c-2.6,2.4,3.8,5.1,2.8,1.6
		C164.5,203.1,163.5,200.1,162.6,202.3z M138.1,169.4C137.2,169.8,136.8,171.2,138.1,169.4z M141.6,178.9c0.2,2.9,2.9,1.1,3.5-0.7
		C143.7,176.1,142.1,176.7,141.6,178.9z M148.7,186.3c-1.9,2.3,1.8,2.9,3.4,1.5C151.6,186.9,149.9,183.9,148.7,186.3z M140.5,173.7
		C139.7,171.6,138.6,175.8,140.5,173.7z M156.6,201c-2.5-0.7-4.3,2.4-1.3,2.6c2.4,1.6,3.3-0.7,2.4-2.6
		C157.6,200.5,156.5,201.8,156.6,201z M139.8,185.3c1.3,1.7,3.8,2.8,4.8-0.2C143.4,183.7,141.3,185.2,139.8,185.3z M147.8,195.7
		c2.7,2.3,2.7-1,2.5-2.9C149.2,192.2,147.1,194.3,147.8,195.7z M167.9,221.2c2.9,1.7,2.7-1.5,1.8-3.1
		C169.4,214.7,165.7,221.7,167.9,221.2z M161.6,211.7c1.1,2.2,2.2,0,2.4-1.1C162.9,207.9,158.5,209.9,161.6,211.7z M134.4,178
		c-0.7,2.8,4.3,1.3,2.9-0.7C137,174,133.2,175.9,134.4,178z M152.5,211c1.5,2.6,4,0,3.4-2.1C154.6,205.4,152.7,209.1,152.5,211z
		 M141.3,192.9c-2.2,2.4,2.7,2.6,2.8,0.2C143.1,192,142.3,191.3,141.3,192.9z M166.7,226.3c-0.1,3.7,2,1.5,2.9-0.7
		C168.6,225.3,166.5,224.4,166.7,226.3z M146.6,200.6c-0.7,3,3.9,3,3.4,0.2C149.3,200.7,146.1,198.6,146.6,200.6z M160.7,219.2
		c-0.7,2.7,2.6,1.2,2.6-0.2C163.2,216.9,158.6,215.5,160.7,219.2z M134,184.7c0.2,2.9,2.4,0.7,1.6-1
		C134.9,183.8,133.7,183.6,134,184.7z M136.8,192.3c-2.6-3.8-1.7,2-0.2,0.7L136.8,192.3z M145.3,210.1c1.3,2.5,4.6-0.2,3.3-2.5
		C147.2,205.8,145,208.2,145.3,210.1z M139.9,202c1.6,2.9,3.7-0.9,2.2-2.6C141.1,199.1,138.6,200.5,139.9,202z M151.6,218.3
		c0.4,2.7,5.6,1,4-1C154.5,215.4,151.2,216.3,151.6,218.3z M160.4,224.9c-3.2,0.1,0.5,3.6,1.3,2.6
		C162.9,226,161.7,225.2,160.4,224.9z"/>
	<path class="st12" d="M209.8,136.9c-1.4-1.6-3.4-1.6-10.2-4.5c-8.3-3.6-26.8,1-26.8,1c-1.6,0.3-3.3,10.9,2.2,15.7
		s16.2,6.5,22.7,3.1c6.6-3.3,14.6-10.6,13-13.9C210.5,137.7,210.2,137.3,209.8,136.9L209.8,136.9z"/>
	<path class="st13" d="M207.5,135.9l-0.4,1.4l0.7,0.9c0.7,0.8,0.8,0.9,1.8,0.8c0.2,0,0.3-0.1,0.5-0.1c-0.1-0.1-0.1-0.3-0.1-0.5
		c-0.2-0.4-0.4-0.7-0.6-1C208.9,136.7,208.3,136.3,207.5,135.9z M210.1,139.5c-1.5,0.2-1.6,0.3-2.4,1.1c-0.6,0.6-0.8,1.2-0.9,1.8
		c-0.1,0.8,0.1,1.4,0.6,2C208.9,142.7,210.1,140.9,210.1,139.5L210.1,139.5z M201.8,133.8c-0.1,0.4-0.3,0.8-0.3,1.1
		c-0.1,0.6-0.1,1.5,0,2.2l0.3,1.3l2.4-0.6l2.4-0.6l0.4-1.5C205.7,135.1,204.2,134.7,201.8,133.8z M206.1,137.7
		c-0.3,0.1-0.6,0.3-0.6,0.4s0.2,0.9,0.5,1.7l0.6,1.5l0.6-0.6c1.1-1.3,1.1-1.3,0.3-2.2C206.8,137.7,206.6,137.5,206.1,137.7z
		 M204.7,138.2c-0.1,0-0.8,0.1-1.5,0.3l-1.3,0.3l-0.7,1.4c-0.3,0.8-0.7,1.6-0.7,1.8c0,0.3,0.1,0.9,0.3,1.5l0.3,1l1.3-0.1
		c2.2-0.1,3.6-0.9,3.6-2.2c0.1-0.7-0.8-3.3-1.2-4C204.8,138.3,204.8,138.2,204.7,138.2z M199.3,132.7c-0.6-0.3-1.3-0.5-2-0.6l0,0
		c-0.7,0.1-1.1,0.6-1.5,1.6c-0.3,0.6-0.5,1-0.5,1s0.3,0.6,0.7,1.2c0.8,1.3,1,1.3,3.3,0.6l1.3-0.4l0.2-1c0.2-0.9,0.1-1.1-0.5-1.9
		C199.9,133,199.7,132.9,199.3,132.7z M200.7,136.4c-0.1,0.1-0.6,0.2-1.3,0.4c-1.1,0.3-1.2,0.3-0.9,0.6c0.6,0.6,2.3,2.2,2.4,2.2
		c0.3,0,0.3-1.6,0.1-2.4C200.9,136.9,200.9,136.5,200.7,136.4L200.7,136.4z M205.4,144.1c-0.5,0.3-0.9,0.6-0.9,0.8s0.1,0.6,0.4,1
		l0.3,0.6c0.6-0.5,1.1-1,1.7-1.6c0-0.1-0.1-0.3-0.3-0.7c-0.1-0.1-0.1-0.3-0.2-0.3C206.2,143.6,206,143.7,205.4,144.1z M194.7,131.7
		c0.5,0.4,0.9,0.7,1,0.8c0.1,0,0.3-0.1,0.4-0.4c0-0.1,0.1-0.1,0.1-0.1C195.7,131.8,195.2,131.7,194.7,131.7z M194.9,132.4
		c-0.1-0.1-0.6-0.5-1-0.8c-1.2-0.1-2.4-0.1-3.7-0.1c-0.4,0.1-0.8,0.2-1.2,0.2l-0.9-0.1l-0.1,1.8c-0.1,1-0.1,1.9,0.1,2
		c0.6,0.6,1.8,1.5,2,1.6c0.6,0,2.6-0.8,3.5-1.5c1.2-1,2-2.4,1.5-2.9C195,132.4,194.9,132.4,194.9,132.4z M199.8,139.3
		c-0.4-0.3-1-0.9-1.3-1.3c-0.5-0.4-0.8-0.6-1.3-0.5c-0.7,0.1-3.3,1.9-3.3,2.2c0,0.1,0.3,0.9,0.6,1.7c0.8,2,1,2.2,2.1,2.3
		c0.9,0.1,1,0,2-1c0.6-0.6,1.3-1.5,1.5-2c0.3-0.7,0.4-0.9,0.1-1.3C200.2,139.7,200,139.5,199.8,139.3z M203.2,145.1
		c-0.5,0-1.1,0.1-1.5,0.1c-0.6,0.1-0.6,0.2-0.6,0.9c0,0.4-0.3,1.3-0.6,2c-0.6,1-0.6,1.2-0.2,1.6c0.1,0.1,0.2,0.1,0.3,0.3
		c1.5-1,2.9-2,4.3-3.2c-0.1-0.1-0.1-0.3-0.2-0.4c-0.2-0.4-0.3-0.7-0.5-0.9C203.9,145.1,203.7,145.1,203.2,145.1z M193.8,135.7
		c-0.8,0.7-0.9,0.8-0.8,2.2l0.1,1.5l0.8-0.4c0.4-0.2,1.1-0.7,1.5-1l0.8-0.6l-0.6-0.9c-0.2-0.3-0.3-0.7-0.5-0.8
		C194.7,134.9,194.6,135.1,193.8,135.7z M199.9,142.4c-0.1,0-0.5,0.4-1,1l-1,1l1.1,0.8c1.9,1.2,1.7,1.2,1.8,0.5
		c0.1-0.5-0.5-2.5-0.7-3.1C199.9,142.5,199.9,142.5,199.9,142.4z M191.6,137.2c-0.6,0.3-1.5,0.6-2.2,0.8c-0.6,0.2-1.3,0.4-1.4,0.5
		c-0.4,0.3-0.3,1.6,0.3,3.1c0.3,0.9,0.6,1.7,0.7,1.9c0.1,0.1,0.5,0.2,1,0.1c0.7-0.1,1.2-0.3,2.3-1.2l1.4-1.1l-0.5-0.9
		c-0.3-0.6-0.5-1.5-0.5-2.3v-1.5L191.6,137.2z M198.8,145.6c-1.4-0.8-3.3-1.3-3.8-0.9c-0.1,0.1-0.7,0.8-1.2,1.5
		c-0.8,1.3-0.9,1.4-0.6,2c0.2,0.3,0.6,1,0.8,1.5l0.5,0.9l1.3-0.3c2.5-0.6,3.1-1,3.6-2.1c0.5-1,0.6-1.4,0.3-1.7
		C199.7,146.2,199.4,146,198.8,145.6z M181.9,132.1c0.1,0.1,0.1,0.4,0.1,0.6c-0.2,0.9,0,1.3,1.4,2.2s1.4,0.9,2.6,0.6l1.2-0.4
		l0.1-1.8c0.1-0.9,0.1-1.4,0-1.7C185.5,131.7,183.6,131.9,181.9,132.1z M193.9,141.9c-0.1,0-0.6,0.5-1.3,1l-1.3,1l1.2,0.7
		c1.1,0.6,1.3,0.6,1.7,0.2c0.3-0.3,0.5-0.6,0.6-0.8C194.9,143.7,194.3,142.3,193.9,141.9C194,141.9,193.9,141.9,193.9,141.9z
		 M198.4,149.9l-1,0.4l0.5,0.8l0.2,0.3c0.6-0.3,1.3-0.7,2-1.1c0-0.1-0.1-0.3-0.1-0.3C199.5,149.5,199.4,149.5,198.4,149.9z
		 M189,136.9c-1.6-1.5-1.5-1.5-2.6-1c-0.6,0.2-1.1,0.4-1.2,0.5c-0.2,0.2,0.1,0.5,1.2,1.1c0.7,0.4,1.3,0.5,2,0.4
		c1-0.1,1.3-0.2,1.1-0.6C189.4,137.2,189.2,137,189,136.9z M192.2,145c-1.1-0.6-1.4-0.7-2.6-0.5c-0.8,0.1-1.6,0.5-1.9,0.7
		c-0.4,0.3-0.5,0.6-0.3,1c0.4,1.4,2.3,3.6,2.8,3.1c0.3-0.3,2.2-2.4,2.7-3l0.5-0.7C193.4,145.7,192.2,145,192.2,145z M185.8,137.5
		l-1.4-0.9l-1.4,1.1c-1.4,1.1-1.4,1.1-1.3,1.9c0.1,0.4,0.5,1.2,0.9,1.7c0.7,0.9,0.8,1,1.6,1c0.8-0.1,0.9-0.1,1.7-1.1
		c0.5-0.6,0.9-1.4,1-1.9l0.1-0.8C187.2,138.4,185.8,137.5,185.8,137.5z M195.6,151c-0.8,0.3-1.3,0.6-1.9,1.2
		c-0.3,0.3-0.4,0.6-0.6,0.9c1.5-0.3,3-0.7,4.3-1.3l-0.8-1C196.7,150.7,195.6,151,195.6,151z M181.1,132.2c-2,0.3-3.7,0.6-5,0.9
		l0.9,1.5c0.6,1.1,1.4,1.2,3,0.2l1.3-0.8l-0.1-1.4C181.1,132.5,181.1,132.4,181.1,132.2L181.1,132.2z M186.4,141.6
		c-0.8,0.9-0.8,1-0.6,1.5c0.1,0.3,0.5,0.8,0.6,1.3c0.4,0.8,0.6,0.8,1.6,0.1c0.6-0.4,0.6-0.4,0-2.1c-0.3-0.9-0.7-1.7-0.7-1.7
		C187.3,140.6,186.8,141.1,186.4,141.6z M183.8,136.1c-0.1-0.1-0.6-0.5-1-0.8c-0.4-0.4-0.9-0.8-1-0.8c-0.1-0.1-0.8,0.3-1.5,0.8
		l-1.3,0.8l0.5,0.6c0.3,0.3,0.8,0.9,1.1,1.3l0.6,0.6l1.5-1.1C183.6,136.7,183.9,136.3,183.8,136.1
		C183.8,136.2,183.8,136.1,183.8,136.1z M191.4,149l-1,1l1,1.3l1.1,1.4l0.8-0.8c0.5-0.5,0.8-0.8,0.8-0.9c0-0.1-1.5-2.9-1.7-2.9
		C192.5,148,192,148.4,191.4,149z M184.4,143c-0.8,0-3.6,0.9-4.1,1.4c-0.1,0.1-0.3,0.6-0.2,1.1s0.2,1,0.3,1.2c1,1,2.2,2.1,2.6,2.2
		c0.6,0.1,2.4-0.3,3.3-0.9c0.8-0.5,0.8-0.5,0.6-1.1c-0.1-0.3-0.6-1.4-1-2.2l-0.8-1.5L184.4,143z M189.3,149.8l-0.8-0.4l-1,1.2
		c-0.7,0.9-1,1.5-1.2,2.4c0,0.1,0,0.1,0,0.1c2,0.3,3.9,0.3,5.8,0.1c-0.1-0.3-0.3-0.7-1-1.5C190.5,150.8,189.7,150.1,189.3,149.8z
		 M177.7,136.1c-0.9-0.2-2.2,0.8-2.9,2.2c-0.3,0.7-0.5,1.3-0.3,1.5c0.1,0.1,0.5,0.8,0.8,1.3c0.3,0.6,0.7,1,0.9,1
		c0.4-0.1,3.8-1.2,4.5-1.5c0.5-0.2,0.6-0.4,0.4-1c-0.1-0.2-0.3-0.6-0.6-0.9C179.7,137.7,178.3,136.3,177.7,136.1z M186.5,148.3
		c-1.1,0.6-1.3,0.8-0.8,1.7c0.1,0.3,0.3,0.8,0.4,1c0.1,0.3,0.2,0.3,0.6-0.2c1.5-1.8,1.6-2,1.2-2.6
		C187.5,147.8,187.4,147.8,186.5,148.3z M180.8,141c-0.5,0.2-1,0.4-1.1,0.6c-0.3,0.3,0,2.4,0.4,2.2c0.8-0.3,3-1,3.1-1.1
		c0,0-0.3-0.5-0.8-1C181.6,140.7,181.6,140.7,180.8,141z M174.1,133.5c-0.2,0.2-0.3,0.4-0.5,0.6l-0.7,0.9l1,0.7
		c1.1,0.8,1.5,0.8,2.5,0.1c0.4-0.3,0.4-0.5,0.1-1.1c-0.2-0.4-0.6-1.1-0.9-1.6C174.9,133.3,174.4,133.5,174.1,133.5z M177.4,142.3
		c-2,0.6-2.6,1-3.1,2.6c-0.3,0.9-0.3,1.4-0.1,1.9c0.4,0.9,0.3,0.8,2.3,1.5c1.2,0.4,1.8,0.5,1.9,0.3c0.6-1.6,0.8-2.9,0.7-4.6l-0.1-2
		L177.4,142.3z M184.7,149.3c-0.5-0.1-4.7,0.6-4.9,0.7c-0.1,0.1-0.2,0.5-0.3,1c1.9,0.9,4,1.5,6.1,2c0-0.1,0.1-0.1,0.1-0.2
		c0.1-1-0.3-2.9-0.8-3.4C184.8,149.4,184.8,149.3,184.7,149.3z M173.5,136.1l-1-0.7c-0.3,1.3-0.6,3.1-0.4,5c0.7-0.6,1.7-1.7,2.3-2.7
		l0.4-0.8L173.5,136.1z M181.8,148.5c-0.3-0.3-1-1-1.4-1.4l-0.8-0.8l-0.5,1.4c-0.3,0.8-0.4,1.5-0.4,1.5c0.1,0.2,1,0.2,2.4,0l1.3-0.2
		L181.8,148.5z M173.7,139.7c-0.1,0-0.5,0.3-0.9,0.8c-0.8,0.8-0.8,0.9,0,1.5c0.1,0.1,0.6,0.5,0.9,0.8c0.6,0.6,0.7,0.6,1.3,0.1
		l0.6-0.5l-0.9-1.4c-0.2-0.3-0.5-0.7-0.6-1C173.9,139.8,173.7,139.7,173.7,139.7z M172.8,142.6c-0.1-0.1-0.3-0.3-0.5-0.4
		c0.2,1.2,0.6,2.4,1.1,3.5c0.1-0.1,0.1-0.2,0.1-0.4c0.3-0.9,0.4-1.3,0.1-1.7C173.5,143.3,173.3,143,172.8,142.6z M176.4,148.8
		c-0.3-0.1-0.6-0.2-0.8-0.3c0.1,0.1,0.1,0.1,0.1,0.1c0.9,0.8,2,1.5,3.1,2.1c0-0.4,0-0.7-0.2-0.9
		C178.4,149.5,177.7,149.3,176.4,148.8z M174.4,147.3c-0.2-0.3-0.4-0.6-0.6-1C173.9,146.7,174.2,147,174.4,147.3z"/>

		<radialGradient id="SVGID_10_" cx="-1132.0646" cy="42.529" r="23.9677" gradientTransform="matrix(-0.4322 -0.5469 -0.5469 0.4322 -272.9053 -487.0276)" gradientUnits="userSpaceOnUse">
		<stop  offset="9.496796e-03" style="stop-color:#8ED089"/>
		<stop  offset="1" style="stop-color:#FFFFFF;stop-opacity:0"/>
	</radialGradient>
	<path class="st14" d="M205.2,135.7C206.9,134.7,201.9,135.6,205.2,135.7z M203.7,142.5c2,0.3,3.1-1.3,1.7-2.9
		C204.6,138,202.5,142,203.7,142.5z M198.8,132.9c-2,1.9,1.7,2.7,2,0.8C200.2,133.3,199.4,133.1,198.8,132.9z M190.7,132.8
		c-0.5,3.3,3.4,1.5,4.3-0.3C194,132.2,191.3,131.7,190.7,132.8z M197.1,140.4c0.3,3,2.6,0.6,3.1-0.6C200,137.3,196,139,197.1,140.4z
		 M203.9,146.3C205.2,145.6,203.3,146,203.9,146.3z M196.5,146.4c-1.5,2.3,2.5,2.2,3.3,0.6C200.1,145.9,196.6,144.4,196.5,146.4z
		 M191.4,141.7c1.9-0.5,1.9-1.8,1.3-3.3C189.1,138.4,191,140,191.4,141.7z M186.1,132.5c-3.1-0.4,1.9,2.7,1.3,0.1
		C187.5,131.9,186.1,132.9,186.1,132.5z M190.6,145.4c-0.7,1.1,1.7,2.4,2,0.1C192.4,144.9,191.2,145.3,190.6,145.4z M184.5,138.8
		c0.5,2.2,2,1.3,2.4-0.3C186,137.4,185.6,137.8,184.5,138.8z M183.1,135.8C182.9,134.6,181.5,137,183.1,135.8z M179.7,133.5
		C179.9,133.5,179.6,133.4,179.7,133.5z M183.6,145.7c0.8,2,4.8,0.7,2.6-1.2C186.1,143.1,181.2,144.4,183.6,145.7z M190.7,151.4
		C191.2,149.8,188.2,151.6,190.7,151.4z M177.9,137.6c-2,2,1.3,2.7,2.7,1.5C180.4,138.6,178.8,135.7,177.9,137.6z M185.5,150.3
		C182.8,149.7,186.1,151.3,185.5,150.3z M177,145.7c2.3,2,2.3-0.9,2.1-2.4C178.2,142.7,176.4,144.6,177,145.7z"/>
	<path class="st15" d="M186.6,147.3c1.8-3.1,1.2-8.5-2.2-14c1.7-5.1-1.2-11.4-3.6-16.4c0,0-7.3-18.7-35.5-51S75.2,31.7,75.2,31.7
		c-11,2.1-2.3,8.4-3.8,17.8c-1.2,7.8-9.3,13.9-16.7,24.5c-4.3,7.1-7.3,18.6-3.7,31.1c0.3,4.1,2,8.9,4.1,13.8
		c4,9.1,9.6,17.4,17.6,24.5c3.8,5,7.5,8.4,11,10.1c4.4,4.8,9,8.6,15,10.4c5.5,4.6,12.3,9.5,18.2,9.1c5.3,3,9.8,4,14,4.3
		c7.2,3.4,14.2,3.6,19.6,3.3c5.2,0.6,13.2-0.1,16.8-3.1c6.1-3.4,11.8-8.8,13.3-15.1C184.7,159.9,187.3,154,186.6,147.3L186.6,147.3z
		"/>
	<g transform="translate(205.55 58.588)">
		<path class="st16" d="M-75.2,106.2c-6.6,0.1-23.7-4.4-30.3-16c7.6-12.8,12.9-24.8,22-38.4c6.2-1.6,11.3-2,17.3-1.8
			c3.4,6,5.8,12.7,7.3,20.2C-62.4,81.4-66.2,92.3-75.2,106.2L-75.2,106.2z"/>
		<path class="st16" d="M-63.6,5.5c-2.4-3.2-5-5.9-7.9-7.4c-3.7-0.8-7.1-1.2-10.5-1.6c0.5,15.1-2,23.1-5.5,31.8
			c2,6.4,3.3,14.4,3.7,23.9c0.1-0.2,0.2-0.3,0.3-0.5c6-1.5,11-1.9,16.8-1.8c8.4-13.5,9.3-27.9,4.1-43C-62.9,6.5-63.2,6-63.6,5.5
			L-63.6,5.5z"/>
		<path class="st16" d="M-48.2,23.3c-5.3-6.6-9.9-11.4-14.6-16.7c0.1,0.1,0.2,0.2,0.3,0.3c5.3,15.1,4.4,29.5-4.1,43h0.5
			c3.3,5.9,5.7,12.5,7.2,19.8c5-1.5,9.9-2.3,13.9-2.2c3.1-6.7,11.5-20.5,2.4-36.9C-44.6,28-46.4,25.6-48.2,23.3L-48.2,23.3z"/>
		<path class="st16" d="M-44.8,67.3l-0.2,0.3c-4-0.2-8.9,0.7-13.9,2.2c0,0.1,0.1,0.3,0.1,0.4c-3.6,11.2-7.4,22.1-16.3,36l0,0
			c5.9,6.2,24.7,6.4,29.7,0.9C-41.5,93-42.3,80-44.8,67.3L-44.8,67.3z"/>
		<path class="st16" d="M-30,51.5c-2.6-3.5-5.8-5.8-8.8-9.3c1.4,11-3.7,19.9-6.1,25.1C-42.4,80-41.6,93-45.6,107
			c10.6-5.2,22.8-14.6,20.1-43.9C-26.3,57.7-27.9,54.3-30,51.5L-30,51.5z"/>
		<path class="st16" d="M-37.5,36.4c-1.5-1.8-3.1-3.6-4.9-5.5l0,0c2.2,3.9,3.3,7.7,3.8,11.3c3,3.5,6.2,5.8,8.8,9.3
			c0.5,0.6,0.9,1.3,1.3,2c-1.3-5-3.6-10-7.5-15.3C-36.6,37.6-37,37-37.5,36.4L-37.5,36.4z"/>
		<path class="st16" d="M-87.5,28.6c-7,1.8-14.4,3.5-22.1,5.2c-4.4,13.7-14.2,24.2-24.5,34.3c7.5,18.9,17.9,22,28.8,21.9
			c7.4-12.6,12.6-24.4,21.5-37.7C-84.2,42.9-85.5,34.9-87.5,28.6L-87.5,28.6z"/>
		<path class="st16" d="M-86.5-10.1c-1.4-1.8-3-3.5-4.8-5.4c-3.1-2.5-5.5-3-7.9-3.8c-2.6,1.7-4.6,3.3-5.9,4.7
			c0.7,13-1.9,17.9-3.7,24.9c1.5,6.1,0.4,14.8-0.4,23.4c7.5-1.7,14.9-3.3,21.7-5.1v-0.1c3.4-8.6,5.9-16.5,5.5-31.2
			C-83.2-5.4-84.6-7.8-86.5-10.1L-86.5-10.1z"/>
		<path class="st16" d="M-71.7-1.9C-77-6.7-83.2-11-90.5-14.6c1.5,1.5,2.8,3,4,4.5c1.8,2.3,3.3,4.6,4.4,7.3c0-0.2,0-0.4,0-0.6
			C-78.7-3.1-75.4-2.6-71.7-1.9L-71.7-1.9z"/>
		<path class="st16" d="M-106.9-17.7c-1.3-1.7-3.1-3.6-6.5-5.7c-4.9-1.9-10.5-2.2-16-3c12.5,20-0.8,32.6-8.7,38.4
			c1.5,2,2.8,4.5,3.3,8.1c8.9-1.5,18.5-5.7,26.2-10.3c1.8-6.8,4.3-11.8,3.6-24.4c0,0,0.1-0.1,0.1-0.2
			C-105.5-15.8-106.1-16.7-106.9-17.7L-106.9-17.7z"/>
		<path class="st16" d="M-98.9-19.2c-4.4-2.4-9.1-3.4-14-3.9c3.1,2,4.8,3.8,6,5.4c0.8,1,1.3,1.9,2,2.9c1.2-1.4,3.3-2.9,5.7-4.5
			C-99.1-19.3-99-19.2-98.9-19.2L-98.9-19.2z"/>
		<path class="st16" d="M-108.7,9.8c-7.7,4.6-17.3,8.9-26.2,10.3c-0.1-0.4-0.1-0.9-0.2-1.3c-3.8,7.7-8.1,16.2-12.8,21.1
			c-0.5,16.5,7,22.2,13.8,28.1c1.3-1.2,2.5-2.5,3.8-3.7c0,0,0.1,0,0.1-0.1c1.2-1.3,2.5-2.5,3.6-3.8c0,0,0.1,0,0.1-0.1
			c0.6-0.6,1.2-1.3,1.7-1.9c0,0,0.1,0,0.1-0.1c0.3-0.4,0.6-0.7,0.9-1.1c0.3-0.3,0.5-0.6,0.8-0.9c0.6-0.7,1.1-1.3,1.6-2
			c0,0,0,0,0.1,0c0.5-0.7,1.1-1.4,1.6-2c0,0,0,0,0.1,0c0.5-0.7,1-1.4,1.5-2.1l0,0c0.2-0.2,0.3-0.4,0.5-0.7c0.3-0.5,0.7-1,1-1.5
			c0.5-0.7,1-1.4,1.4-2.2l0,0c0.4-0.7,0.9-1.5,1.3-2.2l0,0c0.2-0.3,0.3-0.7,0.5-1.1c0.2-0.4,0.5-0.9,0.7-1.3
			c0.4-0.8,0.8-1.6,1.1-2.4c0.7-1.6,1.3-3.3,1.9-5c0.1,0,0.3-0.1,0.4-0.1c0.8-8.6,1.8-17.3,0.4-23.4
			C-108.7,10.1-108.7,9.9-108.7,9.8L-108.7,9.8z"/>
		<path class="st16" d="M-138,12.1c-10.8,6.8-11.1,16.7-9.4,27.3c4.5-5,8.6-13.2,12.3-20.6C-135.6,15.9-136.7,13.9-138,12.1
			L-138,12.1z"/>
	</g>
	<g transform="matrix(.64769 0 0 .64769 164.92 186.8)">
		<path class="st17" d="M30.5-83c-1.9-0.7-3.9-1.3-6.5-1.4c-0.2,4.8-0.7,9.2-1.4,13.1c3.6,2.6,7.4,6.4,11.1,10.7
			c2.5-4.8,1.6-13-3.5-21.4C30.3-82.4,30.4-82.7,30.5-83L30.5-83z"/>
		<path class="st17" d="M33.7-60.6c0.2-0.3,0.3-0.6,0.4-0.9C34.1-61.2,33.9-60.9,33.7-60.6z M33.7-60.6c-3.8-4.2-7.5-8-11.1-10.7
			c-1.4,7.1-3.7,13-6.5,17.9c5.3,5.8,7.7,10.7,9.1,15.8c5.6-3.7,9.3-12.5,8.4-22.6C33.6-60.3,33.7-60.5,33.7-60.6L33.7-60.6z"/>
		<path class="st17" d="M24.1-108.8L24.1-108.8l-3-1.1c1,2.7,1.8,5.7,2.4,9.4c0.5,5.9,0.7,11.2,0.5,16.1c2.5,0.2,4.6,0.7,6.5,1.4
			c2-7.7-2.3-17-5.8-24.4C24.7-107.4,24.5-107.9,24.1-108.8L24.1-108.8z"/>
		<path class="st17" d="M19.6-49.2c-1-1.4-2.1-2.7-3.5-4.2c-5.3,9-12.4,14.5-19.6,18.5C0.2-29,5.1-24,4.8-14.2
			c9.1-5.2,17.5-13.3,19.7-23c0.2-0.1,0.4-0.3,0.6-0.4C24.1-41.4,22.5-45.1,19.6-49.2L19.6-49.2z"/>
		<path class="st17" d="M-3.5-34.9c-1.4,0.8-2.7,1.5-4,2.1c0,0.1,0,0.1-0.1,0.2c-3,3.4-9.5,5.4-16.8,5.9c4.1,7.1,3.6,12.2,0.7,17.7
			c0.6,0,1.1,0,1.7-0.1c8,0.9,20.4-0.2,26.1-4.7c0.3-0.1,0.5-0.3,0.8-0.5C5.1-24,0.3-29-3.5-34.9L-3.5-34.9z"/>
		<path class="st17" d="M-44.6-28.9c0.2,5.4-2.6,10.8-6.3,15.5c9.8,4.2,19.5,4.7,27.2,4.4c2.9-5.4,3.4-10.6-0.7-17.7
			C-31.1-26.1-38.6-26.9-44.6-28.9z"/>
		<path class="st17" d="M-44.6-28.9c-3.6-1.2-6.7-2.9-8.7-5.1c-4.2,0-11.2-1.1-18.7-3.8c1.2,10.2-0.7,13.4-3,17.1c0.3,0,0.5,0,0.8,0
			c8.1,4.6,15.2,6.1,21.8,6.6c0.5,0.2,1,0.5,1.5,0.7C-47.2-18.1-44.4-23.5-44.6-28.9L-44.6-28.9z"/>
		<path class="st17" d="M-94.4-51.2c-0.8,7.1-3.6,13.2-8.1,16.6c8.3,6.9,18.4,14.1,27.5,13.9c2.2-3.7,4.2-6.9,3-17.1
			C-79.9-40.5-88.2-44.9-94.4-51.2z"/>
		<path class="st17" d="M-99.8-58.9c-6.9,0-13.7-0.8-20.1-3.8c-0.7,4.4-3.2,8.9-7.3,11.1c0.5,0.3,1,0.6,1.5,0.8
			c6.7,7.5,13.9,13.3,23.2,16c0,0,0,0.1,0.1,0.1c4.4-3.4,7.2-9.5,8.1-16.6c0.1,0.1,0.3,0.2,0.4,0.4c-2.3-2.3-4.4-4.9-6.1-7.8
			C-100-58.7-99.9-58.8-99.8-58.9L-99.8-58.9z"/>
		<path class="st17" d="M-119.9-62.6c-5.5-2.5-10.8-6.7-15.5-13.3c-1.5,4-3.5,7.6-8.1,8.8c0.3,0.2,0.6,0.5,0.8,0.7
			c5.3,7,10.5,12,15.5,14.9C-123.1-53.8-120.6-58.3-119.9-62.6L-119.9-62.6z"/>
		<path class="st17" d="M-144.2-92.9c-6.4-5.7-13.3-11.2-17.5-20.7c-3.3,0.8-6.5,3.2-9.5,6.5c0.4,0.9,0.7,1.8,1.1,2.7
			c6.1,13.8,14.5,26.4,26.5,37.2c4.6-1.2,6.6-4.8,8.1-8.8c-3.2-4.4-6.2-9.9-8.9-16.8C-144.3-92.8-144.2-92.8-144.2-92.9L-144.2-92.9
			z"/>
		<path class="st17" d="M-165.4-135.4c-4.5,2-8.3,4.7-11.2,8.7c0.1,0.3,0.1,0.6,0.2,0.8c0.4,5.6,2.6,12,5.3,18.7
			c3-3.3,6.2-5.6,9.5-6.5C-164.1-119.2-165.6-126.2-165.4-135.4L-165.4-135.4z"/>
		<path class="st17" d="M-150.3-179.2c-5.5-0.8-11.2-0.6-18.3,2.2c-0.8,1-1.5,2-2.3,3.1c-6.5,10.8-11.1,28.5-5.8,47.3
			c2.9-4,6.7-6.8,11.2-8.7c0-0.3,0-0.6,0-0.9c0.2-0.3,0.4-0.5,0.7-0.8C-167.5-153.4-167-168.7-150.3-179.2L-150.3-179.2z"/>
		<path class="st17" d="M-136.7-238.7l-1.5-0.8c-0.1,0-0.8-0.1-0.8-0.1c-17.1,3.3-3.6,12.9-5.9,27.6c-1.8,11.3-12.8,20.4-23.7,34.9
			c7.1-2.8,12.8-3,18.3-2.2c-0.6,0.4-1.1,0.7-1.6,1.1l2.1-0.5c-0.2-0.3-0.4-0.6-0.6-0.8c12.2-8.9,32.7-28.4,13.4-59.3L-136.7-238.7
			L-136.7-238.7z"/>
	</g>
	<g transform="matrix(.64769 0 0 .64769 164.93 185.3)">
		<path class="st18" d="M29.2-78.8L29.2-78.8l-0.5-0.8c-1.3,1.4-0.6,5.4-1.3,7.8c1.1,2.1,4.2,3.8,5.9,6
			C33.3-70.5,31.5-74.8,29.2-78.8L29.2-78.8z"/>
		<path class="st18" d="M31.9-58.1c-1.7-2.4-3.9-4.4-6-6.4c-1.2,4.1-2.7,8.2-4.6,11.9c2.7,3.2,5,6.8,6.7,10.6
			C31.3-46.6,32.3-52.5,31.9-58.1L31.9-58.1z"/>
		<path class="st18" d="M28.5-91.8L28.4-92c0.5,1.8-0.6,5,0.2,6.2C30.1-86.5,28.7-90,28.5-91.8L28.5-91.8z"/>
		<path class="st18" d="M18.4-46.3L18.4-46.3L17.8-47c-4,5.8-9.4,10.6-15.5,14.3c3,4.3,5.7,9,6.6,14.2c5.1-3.4,9.8-8.2,12.5-13.8
			C24.9-37,21.2-42.3,18.4-46.3L18.4-46.3z"/>
		<path class="st18" d="M-2.5-28.9L-2.6-29L-3-29.6c-4.3,3.6-9.5,5.8-15,6.7c0.5,3.3,1.8,8.3,0.3,12.2c7,0.3,14.6-0.2,20.7-3.9
			C3.3-19.9,0.4-24.7-2.5-28.9L-2.5-28.9z"/>
		<path class="st18" d="M-24.6-22c-5-0.4-10.7-0.2-15.9-1.7c-0.6,3.5-2.2,6.9-4.1,9.9c6.3,2.6,13.2,2.9,19.9,3
			C-22.1-13.4-22.9-18.7-24.6-22L-24.6-22z"/>
		<path class="st18" d="M-46.5-24.9c-0.6-2-4.3-2.2-5.8-4c-4.7-1.9-10.1-1.5-14.9-3.3c0.1,3.8-0.3,7.7-2,11.1
			c5.5,2.9,11.9,4.3,18.1,5.2C-48.6-17.6-47.2-21.7-46.5-24.9L-46.5-24.9z"/>
		<path class="st18" d="M-73.5-33.6v-0.7c-6.3-2.4-12.3-5.6-17.5-9.8c-1,3.7-2.7,7.2-5.1,10.2c5.2,5,13,10.2,20.9,11.3
			C-73.4-26-73.1-29.9-73.5-33.6L-73.5-33.6z"/>
		<path class="st18" d="M-100.4-54.3c-5.1-0.9-10.9-1-16-3c-1.1,2.5-2.4,5.1-4.4,7c5.3,5.7,11.5,10.8,19,13.3
			c2.5-2.1,3.9-5.4,4.8-8.6C-94.7-49-98.8-51.7-100.4-54.3L-100.4-54.3z"/>
		<path class="st18" d="M-122.2-59.6c-3.5-2.3-7.4-5-10.3-8.3c-1.6-2.5-2.7,2.5-4.6,3c2.9,4,6.8,7.9,10.9,10.8
			C-124.1-54.8-123-57.7-122.2-59.6L-122.2-59.6z"/>
		<path class="st18" d="M-145.3-89.1c-5.3-5.8-11.9-10.7-15.7-17.8c-0.9-3.6-3.8,1.1-5.1,1.8c5.4,12.8,13.3,24.7,23.3,34.4
			c2,3.1,4.4-1.6,5.2-3.3C-140.1-78.8-143.4-83.9-145.3-89.1L-145.3-89.1z"/>
		<path class="st18" d="M-167.1-128.5c-0.8-0.8-3.3,2.3-4.4,3.3c-0.9,3.8,1.1,8,2.2,11.8c0.3,4.1,2.6,0.2,4.5-0.5
			C-165-118.4-167-123.6-167.1-128.5L-167.1-128.5z"/>
		<path class="st18" d="M-157.8-175c-1.7-0.1-4.9,0.9-7.1,1.7c-8,10.2-10.5,24.2-9.3,37.1c0.5,1.5-0.2,6.3,2.1,3.2
			c1.3-1.8,4.6-1.8,5.4-3.8C-169.2-149.9-167.8-165.3-157.8-175L-157.8-175z"/>
		<path class="st18" d="M-137.3-234.4c-1.2-1.4-4.2,0.3-5.4,1.5c-1.3,5.3,2.3,10.8,2.6,16.2c1.2,14.4-10.3,25.4-18.9,35.6
			c2.9-0.4,5.7-0.5,8.6-0.1c4.8-3.1,9.2-7.4,12.7-12.1C-128.2-204.9-129.3-222.5-137.3-234.4L-137.3-234.4z"/>
	</g>
	<g transform="translate(205.55 58.588)">
		<path class="st19" d="M-66,53.7l-0.7-1.5c-4.4-0.5-8.9,0.4-13.2,1.2c-8.3,10.9-13.6,23.9-20.7,35.7c5.7,7.8,15.4,11.6,24.7,12.9
			c5.9-8,9.7-17.4,13-26.8C-58.8,68.1-63.1,60.4-66,53.7L-66,53.7z"/>
		<path class="st19" d="M-65,6.3c-2.8-4.8-7.3-7.1-12.7-7.3c0.1,9.3-1.4,18.7-5,27.5c0.4,6.8,2.7,13.7,2.9,20.6
			c4.1-0.8,8.3-1.2,12.5-1.2C-60.1,34.2-59.1,18.7-65,6.3L-65,6.3z"/>
		<path class="st19" d="M-45.5,29.1c-3.3-4-6.5-8.1-10-12c1.5,10.7-0.5,21.7-5.9,31.1c1.4,4.5,4.1,9.1,5.2,13.9
			c-0.1,3.3,2.1,2.7,4.5,2.1c2.3-1.1,6.5,1,7-2.6C-39.2,51.7-38.5,38.5-45.5,29.1L-45.5,29.1z"/>
		<path class="st19" d="M-45.8,71.5l-0.3-1.7c-3,0.1-6,0.7-9,1.5c-3.8,11.5-8,23.1-14.9,33c6.5,3.3,15.6,4.1,22.5,0.4
			C-43.7,94.2-44.2,82.4-45.8,71.5L-45.8,71.5z"/>
		<path class="st19" d="M-31,52.8c-1-1.4-2.2-2.7-3.4-3.9c-0.6,6.3-3.2,12.3-6,18c2.1,10.9,2.7,22.2,0.7,33
			c4.7-3.4,8.3-8.1,10.3-13.5C-26.4,75.6-24.7,62.8-31,52.8L-31,52.8z"/>
		<path class="st19" d="M-88,33.4l-0.5-2.1c-5.8,1.5-11.7,2.8-17.6,4.1c-4.2,12.1-12.7,22-21.6,31c-2.3,0.9-1.4,2.9-0.2,4.3
			c3.6,8.7,12.2,15.6,21.9,15.4c6.8-11.1,12.3-23.4,19.5-34.3C-84.8,46-87,39.3-88,33.4L-88,33.4z"/>
		<path class="st19" d="M-85.8-6.8c-2.7-3-4.9-6.7-8.4-8.8c-2-1.8-4.6-1.4-6.2,0.9c-0.3,7.3-0.9,15-3.4,22.2
			c-0.5,6.9,0.4,14.2-0.6,21.3c5-1.1,10-2.3,15-3.5c2.5-2.3,2.8-7.1,4-10.5C-84.5,7.8-81.9-0.3-85.8-6.8L-85.8-6.8z"/>
		<path class="st19" d="M-108.1-16.8c-1.9-2.9-5-4.7-8.3-5.6c-1.7-0.2-6-2.1-5.9-0.4c5.5,11.3,0.9,25.2-8.5,33c-2.9,1-1.4,3-0.4,4.9
			c5.4-0.3,11.6-3.5,16.8-6c4-0.9,5.6-4.6,6.1-8.3C-107.6-4.9-105.1-11.4-108.1-16.8L-108.1-16.8z"/>
		<path class="st19" d="M-110,15.6l-0.1-1.8c-7,3.7-14.4,6.7-22.1,8.2c-3.5,5.9-6.5,12.4-11,17.9c-1.6,8.6,3.4,17.5,10,22.9
			c5.7-5.1,10.8-10.9,15-17.2C-111.7,37-109.2,26.2-110,15.6L-110,15.6z"/>
		<path class="st19" d="M-137.5,15.7c-3.6,2.1-5.5,6.8-6.1,11c-0.9,4.1,0.2,3.7,1.7,0.2C-140.8,23.1-136.3,19.9-137.5,15.7
			L-137.5,15.7z"/>
	</g>
	<path class="st18" d="M139.4,114.7c-1.2-4.7-7.3-1-10.4-1.1c-7.7,9.9-12.4,21.7-18.8,32.6c4.9,5.6,12.3,8.6,19.6,9.9
		c4.7-6.9,7.9-14.4,10.7-22.2C144.2,127.9,142.5,120.7,139.4,114.7L139.4,114.7z"/>
	<path class="st18" d="M138.6,64c-1.4-2-3.6-3.5-5.9-4.1c-0.9,5.9-1.3,12.7-3.2,18.7c-3.6,7.1-0.2,14.7,0.7,21.9
		c2,0.5,5.3-0.5,7.8-0.3C144,89.2,144.7,75,138.6,64L138.6,64z"/>
	<path class="st18" d="M159.6,88.9c-1.4-1.9-3-3.7-4.5-5.6c-0.3,7.6-2.3,15.2-5.8,22c0.1,3.9,3,7.4,4,11.2c0,3.6,3.8,1.1,6.1,1.4
		C164.4,109.5,165.3,97.4,159.6,88.9L159.6,88.9z"/>
	<path class="st18" d="M158.4,131.1c0-1.8-2.7,0-3.8,0c-3.9,9.7-7.1,20-12.8,28.9c4.2,1.9,10.5,1.8,15.2-0.2
		C160.1,150.6,159.7,140.7,158.4,131.1L158.4,131.1z"/>
	<path class="st18" d="M174.4,113.6l-0.1-0.2c-1.1,3.6-2.5,7.1-4.2,10.5c0.1,6,1.8,12.3,1.5,18.5c0.5,1.5-1.1,8.7,0.9,4.9
		C177.4,137,179.3,124.2,174.4,113.6L174.4,113.6z"/>
	<path class="st18" d="M116.2,92.5c-4,0.5-8.7,2-13,2.8c-4.6,11.7-12.6,21.8-21.9,30.3c2.6,7.3,9.7,14,17.8,14.6
		c5.6-9.1,10.1-18.9,15.7-28C120,106.8,117.7,99,116.2,92.5L116.2,92.5z"/>
	<path class="st18" d="M118,51.4c-2.3-2.5-4.5-6.4-7.8-7.7c-1.4,3.9-0.8,9-1.8,13.3c-2.7,7.5-2.3,15.5-2.2,23.4
		c-1,3.1,2.2,1.1,3.7,0.7c2.4-1.4,6.5,0.4,7.1-3.4C118.4,69.2,123,59.5,118,51.4L118,51.4z"/>
	<path class="st18" d="M96.1,41.8c-1.6-2.3-4.2-3.4-6.8-4.1c2.5,10.5-1,22.1-8.5,29.8c-1.7,1.7-0.1,0.8,1.2,0.3
		c4-2.4,9.3-2.8,12.5-6.3C95.9,55.2,98.9,48.2,96.1,41.8L96.1,41.8z"/>
	<path class="st18" d="M94.1,76.3c-5.5,1.8-11.3,4.8-17.3,5.8c-2.9,5.1-5.5,10.4-9,15.1c-3.2,6.5,1.5,14,6,18.7
		C84.8,105.9,94.7,91.9,94.1,76.3L94.1,76.3z"/>

		<linearGradient id="SVGID_11_" gradientUnits="userSpaceOnUse" x1="-615.5273" y1="81.6171" x2="-723.249" y2="69.763" gradientTransform="matrix(-0.62 -0.7846 -0.7846 0.62 -235.6391 -436.5252)">
		<stop  offset="0" style="stop-color:#847052"/>
		<stop  offset="0.2618" style="stop-color:#857352;stop-opacity:0.7382"/>
		<stop  offset="0.438" style="stop-color:#887C54;stop-opacity:0.562"/>
		<stop  offset="0.5889" style="stop-color:#8C8B57;stop-opacity:0.4111"/>
		<stop  offset="0.7255" style="stop-color:#93A05A;stop-opacity:0.2745"/>
		<stop  offset="0.8527" style="stop-color:#9BBC5F;stop-opacity:0.1473"/>
		<stop  offset="0.9711" style="stop-color:#A5DE64;stop-opacity:2.892298e-02"/>
		<stop  offset="1" style="stop-color:#A8E766;stop-opacity:0"/>
	</linearGradient>
	<path class="st20" d="M73.5,33.6c-0.1,0-0.2,0.1-0.3,0.1c-4.5,1-1.4,6.2-1,9c2.7,9.3-4.3,17.5-10.1,24c-2,1.8-2.1,2.4-1,2.5
		c6.6-8.3,12.8-13.9,13.9-20.7C76.1,41.8,72.2,36.7,73.5,33.6L73.5,33.6z M144.1,179.4c-2.9-0.5-6-1.3-9.1-2.8l0,0
		c-0.1,0.2-0.3,0.4-0.4,0.7C137.1,178.6,140.6,179.1,144.1,179.4L144.1,179.4z M58.3,72.9c-0.4,0.1-0.9,0.3-1.2,0.4
		c-6.3,7.5-7.6,18.7-5.8,28.2c0.6-0.7,1.5-1.3,2.3-1.8C51.7,89,54.5,79.3,58.3,72.9C58.3,73,58.3,72.9,58.3,72.9L58.3,72.9z
		 M131,176.1c-3.1-0.6-6.5-1.7-10.2-3.8c-0.7,0-1.4,0-2.1-0.1c2,2.2,6.6,3.1,9.9,3.7C129.6,176.3,130.4,176.3,131,176.1L131,176.1z
		 M115.5,171.4c-4.5-1.6-9-5-12.9-8.2c-0.2-0.1-0.4-0.1-0.6-0.2c-0.3,0.4-0.7,0.9-1.1,1.3c4.2,3.3,8.6,6.7,13.9,7.5
		C115.1,171.7,115.3,171.6,115.5,171.4L115.5,171.4z M54.3,102.9c-3.7,2.2-1.2,6.8-0.3,10.1c0.2,2.5,1.5,1.1,2.8,0.1
		c-1.1-3.2-2-6.2-2.2-8.9C54.5,103.8,54.4,103.3,54.3,102.9L54.3,102.9z M99,161.8c-4.4-2-8-5.2-11.5-9c-0.4-0.2-0.7-0.4-1.1-0.6
		c-0.3,0.4-0.6,0.8-1,1c2,3.4,6.5,6.6,10.5,8.5C97.1,162.7,98.1,162.6,99,161.8L99,161.8z M57.9,116c-0.7,0.5-1.5,1.2-2,1.8
		c3.5,8.4,8.5,16.1,15,22.4c0.9,1.8,2.1,1.3,3.1,0.2c-6.8-6.6-11.6-14.1-15.2-22.3C58.4,117.4,58.2,116.7,57.9,116L57.9,116z
		 M83.8,150.4c-2.4-1.9-4.8-4.5-7.3-7.7c-0.1-0.1-0.2-0.2-0.2-0.2c-0.4,0.6-0.9,1.2-1.4,1.3c0.6,2.1,3.7,4.5,5.6,6.3
		C81.6,151.9,82.8,151.5,83.8,150.4L83.8,150.4z"/>
	<path class="st12" d="M48.9,104c-0.2-0.3-0.5-0.6-0.7-0.9c-1.8-2.1-4.1-3.6-7.1-3.5c-9.5,0.4-15.4,4-24.9,17.5s-5.9,34.7-4.8,51.3
		s7.8,32,10,32c2.1-0.1,1.4-1.1,5.1-6.7c3.7-5.7,2.4-15.6,2.4-15.6s1.9-3.7,3.4-8.1c1.4-4.4,2.5-13.4,2.5-13.4s5.3-5.8,9.6-11.4
		c4.3-5.6,9.4-28.8,9.4-28.8C53.6,115.7,52.3,108.8,48.9,104L48.9,104z"/>

		<linearGradient id="SVGID_12_" gradientUnits="userSpaceOnUse" x1="-657.298" y1="153.2172" x2="-588.903" y2="153.2172" gradientTransform="matrix(-0.62 -0.7846 -0.7846 0.62 -235.6391 -436.5252)">
		<stop  offset="9.496796e-03" style="stop-color:#8ED089"/>
		<stop  offset="0.4404" style="stop-color:#90D18B;stop-opacity:0.565"/>
		<stop  offset="0.5956" style="stop-color:#96D392;stop-opacity:0.4083"/>
		<stop  offset="0.7063" style="stop-color:#A2D89D;stop-opacity:0.2966"/>
		<stop  offset="0.7957" style="stop-color:#B2DFAE;stop-opacity:0.2062"/>
		<stop  offset="0.8724" style="stop-color:#C7E8C4;stop-opacity:0.1288"/>
		<stop  offset="0.939" style="stop-color:#E0F2DF;stop-opacity:6.161177e-02"/>
		<stop  offset="0.999" style="stop-color:#FEFFFE;stop-opacity:1.059532e-03"/>
		<stop  offset="1" style="stop-color:#FFFFFF;stop-opacity:0"/>
	</linearGradient>
	<path class="st21" d="M46.7,105.4c-0.9-1.1-1.9-1.9-3.1-2.5c0,0.1,0,0.1,0,0.2c0.1,0.8,0.3,2.1,0.6,2.9s0.5,1.4,0.5,1.4
		s0.9,0.1,1.9,0.3l1.7,0.3c-0.3-0.5-0.7-1.1-1-1.6C47.2,106,46.9,105.7,46.7,105.4z M46.5,108.4c-1.2-0.2-2.1-0.2-2.3,0.1
		c-0.2,0.2-0.8,0.9-1.4,1.5c-1.1,1.1-1.2,1.2-1,3.2l0.2,2.1l0.9-0.2c0.7-0.1,1.1,0,1.7,0.6c2.3,2.1,1.9,2.1,4.2-0.3
		c1.7-1.8,1.9-2.8,1.1-4.3c-0.3-0.6-0.8-1.4-1-1.8c-0.1-0.1-0.1-0.3-0.2-0.4C48.3,108.8,47.7,108.6,46.5,108.4z M40,102.1
		c-1.1,0-2.2,0.1-3.2,0.3c-0.1,0.5-0.2,1-0.3,1.4c-0.1,1,0.6,2.1,2.4,3.6c0.9,0.7,1,0.8,1.4,0.3c0.2-0.3,0.9-1.1,1.4-1.7
		c0.8-1,1-1.5,1-2.8c0-0.2,0-0.4,0-0.6C41.8,102.2,40.9,102,40,102.1z M51.1,114.9c0,1.1,0.1,2.1,0.2,2.2c0,0.1,0.2,0.1,0.5,0.1
		c-0.1-0.6-0.3-1.4-0.7-2.8C51.1,114.6,51.1,114.7,51.1,114.9z M41.6,106.9c-0.8,1-1.4,1.9-1.4,1.9s0.2,0.5,0.5,1.1l0.5,1l1.2-1.2
		c2-2,2-1.9,1-3.8l-0.4-0.8L41.6,106.9z M50.3,114.9c-0.1,0-0.8,0.7-1.6,1.5l-1.4,1.5h1.5c0.8,0,1.6,0,1.7-0.1
		C50.7,117.6,50.6,115.5,50.3,114.9C50.4,114.9,50.3,114.9,50.3,114.9z M51.5,118.2l-1.2,0.2l-0.7,2.4l-0.7,2.4l0.9,1.1
		c0.2,0.3,0.4,0.5,0.5,0.7c1-3.9,1.6-6.7,1.7-6.9C51.8,118.2,51.6,118.2,51.5,118.2z M47.9,118.5c-0.9,0-1.6-0.3-2.2-0.8
		c-0.5-0.4-1.1-1-1.4-1.3l-0.6-0.5l-0.8,1.5c-0.4,0.9-1,2.1-1.1,2.8s-0.2,1.9,0,2.8l0.3,1.5l3-0.7l3-0.7l0.6-2.3l0.6-2.3H47.9z
		 M29,105.2c0.3,0.2,0.7,0.5,1,0.8c1.2,1,1.1,1,3.6-0.3c1.6-0.8,1.6-0.9,1.9-2.1c0.1-0.4,0.2-0.7,0.1-0.9
		C33.3,103,31.2,103.9,29,105.2z M38.5,108.3c-1-0.8-1.3-1-1.5-0.6c-0.2,0.2-0.9,1-1.6,1.8s-1.4,1.8-1.5,2.2c-0.2,0.6,0,1.1,1,2.5
		l1.1,1.7l1.6,0.1c1.4,0.1,3-0.2,3.4-0.5c0,0,0-1,0-2.1c-0.1-1.5-0.4-2.6-1-3.5C39.6,109.3,39.1,108.8,38.5,108.3z M35.5,105.3
		c-0.1,0.1-1,0.6-2.1,1.1l-1.9,1l1.1,1.4c0.8,1,1.2,1.4,1.4,1.2c0.2-0.2,1-1.1,2.4-2.8c0.3-0.4,0.3-0.7-0.2-1.3
		C35.9,105.5,35.6,105.2,35.5,105.3z M40.2,116.4c-0.2,0.1,0,0.6,0.6,1.3c0.5,0.6,0.9,0.9,0.9,0.8c0.1-0.1,0.5-0.8,0.9-1.5
		s0.7-1.4,0.6-1.5C43,115.3,40.6,116,40.2,116.4z M47.6,123.8c-0.5,0.1-0.8,0.3-0.8,0.5s0.3,1.2,0.7,2.2l0.7,1.8l0.7-0.8
		c1.4-1.6,1.4-1.6,0.4-2.8C48.5,123.7,48.3,123.6,47.6,123.8z M49.5,127.5c-0.7,0.8-1,1.5-1.1,2.2c-0.1,0.5,0,1,0.2,1.4
		c0.4-1.3,0.7-2.5,1-3.8C49.6,127.5,49.6,127.5,49.5,127.5z M45.8,124.5c-0.2,0-1,0.2-1.9,0.4l-1.6,0.4l-0.8,1.7
		c-0.5,1-0.9,2-0.9,2.3s0.2,1.1,0.4,1.8l0.4,1.3l1.6-0.1c2.7-0.1,4.5-1.2,4.6-2.7c0.1-0.9-1-4.2-1.5-5
		C45.9,124.5,45.9,124.5,45.8,124.5z M37.8,116.7c-1.8-0.2-2.5,0.3-3.3,2.1c-0.3,0.7-0.6,1.3-0.6,1.3s0.4,0.7,0.8,1.5
		c1,1.6,1.2,1.7,4.2,0.7l1.7-0.5l0.3-1.3c0.2-1.1,0.2-1.4-0.6-2.4C39.4,116.9,39.2,116.8,37.8,116.7z M30,107.2
		c-0.5-0.4-0.5-0.4-1.7,1.2c-1.6,2.2-2.1,3.7-1.6,5.1c0.2,0.6,0.5,1.3,0.5,1.5c0.1,0.3,0.5,0.2,1.3-0.3c0.7-0.4,1.9-1.1,2.7-1.5
		c2.2-1.2,2.3-1.7,0.6-3.8C31.1,108.3,30.3,107.4,30,107.2z M28.4,105.5c-0.9,0.6-1.8,1.3-2.6,2c0.4,0.7,0.8,1.5,0.8,1.5
		c0.1,0.2,0.8-0.4,2.1-2.1l0.7-0.9L28.4,105.5z M40.8,122.2c-0.1,0-0.8,0.3-1.6,0.5c-1.4,0.4-1.5,0.5-1.2,0.8c0.7,0.8,2.9,2.8,3,2.8
		c0.4,0,0.5-2,0.2-3.1C41.1,122.8,41,122.4,40.8,122.2L40.8,122.2z M46.7,131.8c-0.6,0.4-1.1,0.8-1.1,0.9c0,0.1,0.2,0.7,0.5,1.3
		l0.5,1l1-1c0.1-0.1,0.1-0.1,0.2-0.2c0.2-0.6,0.3-1.1,0.5-1.7c0-0.1-0.1-0.1-0.1-0.2c-0.1-0.2-0.2-0.3-0.2-0.5
		C47.7,131.2,47.5,131.3,46.7,131.8z M33.2,112.9c-0.1,0-0.6,0.3-1.2,0.6c-0.8,0.5-1,0.7-0.8,0.9c0.4,0.5,3.2,2.7,3.4,2.7
		c0.1,0,0.3-0.2,0.5-0.5c0.3-0.4,0.2-0.8-0.7-2.1c-0.3-0.4-0.5-0.9-0.8-1.2C33.4,113,33.2,112.9,33.2,112.9z M33.5,117.1
		c-0.3-0.2-1.1-0.9-1.8-1.5l-1.3-1.1l-1.6,0.9c-1.1,0.6-1.9,0.8-2.8,0.7l-1.1-0.1l-0.2,2.3c-0.1,1.3-0.1,2.4,0.1,2.5
		c0.7,0.7,2.3,2,2.5,2c0.7,0,3.3-1.1,4.4-2c1.4-1.1,2.3-2.7,2-3.5C33.7,117.2,33.7,117.2,33.5,117.1
		C33.5,117.2,33.5,117.1,33.5,117.1z M47.2,135.6l0.1-0.4C47.3,135.3,47.2,135.5,47.2,135.6z M39.7,125.9l-1.7-1.6
		c-0.6-0.6-1-0.7-1.7-0.6c-0.9,0.2-4.2,2.4-4.2,2.8c0,0.1,0.3,1.1,0.8,2.2c1.1,2.6,1.3,2.8,2.7,2.9c1.1,0.1,1.3,0,2.6-1.2
		c0.8-0.7,1.6-1.8,1.9-2.5c0.3-0.7,0.5-1,0.3-1.4C40.2,126.4,40,126.2,39.7,125.9z M20.5,113.2c0.6,0.2,1,0.1,1.4-0.1
		s1.4-0.5,2.1-0.7l1.4-0.2l0.4-1.3c0.4-1.1,0.3-1.5-0.4-2.8c0-0.1-0.1-0.1-0.1-0.2C23.8,109.3,22.2,111.1,20.5,113.2z M43.9,133.2
		c-0.6,0-1.4,0.1-1.8,0.1c-0.7,0.1-0.8,0.2-0.8,1.1c0,0.5-0.4,1.6-0.9,2.4c-0.7,1.2-0.7,1.5-0.3,2s3.9,2.2,4.7,2.3
		c0.1,0,0.2-0.1,0.4-0.3c0.5-1.1,1-2.4,1.4-3.7l0,0c-0.1-0.7-0.5-1.4-1-2.5c-0.2-0.4-0.3-0.6-0.4-0.9c-0.1-0.2-0.2-0.3-0.2-0.4
		C44.8,133.2,44.5,133.2,43.9,133.2z M32.1,121.3c-1.1,0.9-1.1,0.9-0.9,2.7l0.2,1.9l0.9-0.5c0.5-0.3,1.4-0.9,1.9-1.3l1-0.7l-0.7-1.2
		c-0.3-0.5-0.5-0.9-0.7-1.1C33.3,120.3,33,120.5,32.1,121.3z M39.8,129.7c-0.1,0-0.7,0.6-1.4,1.2l-1.2,1.3l1.4,0.9
		c2.3,1.5,2.2,1.5,2.3,0.6c0.1-0.6-0.6-3.2-0.9-3.8C39.9,129.8,39.8,129.7,39.8,129.7z M23,113.3c-0.1,0.1,0.3,0.6,0.7,1.2
		c0.7,0.9,1.1,1.1,2,1.2l1.2,0.1l-0.6-1.5c-0.3-0.8-0.6-1.5-0.7-1.5C25.7,112.7,23.2,113.2,23,113.3z M29.3,123.2
		c-0.7,0.3-2,0.8-2.8,1s-1.6,0.6-1.7,0.7c-0.5,0.4-0.4,2,0.4,3.9c0.4,1.1,0.8,2.2,0.9,2.3s0.6,0.3,1.3,0.2c0.9-0.1,1.5-0.5,2.8-1.5
		l1.7-1.4l-0.6-1.1c-0.4-0.7-0.6-1.8-0.6-2.9v-1.8L29.3,123.2z M38.5,133.7c-1.7-1.1-4.1-1.7-4.7-1.2c-0.2,0.1-0.9,1-1.5,2
		c-1,1.6-1.1,1.8-0.7,2.5c0.2,0.4,0.7,1.3,1,1.9l0.6,1.1l1.7-0.4c3.1-0.8,3.8-1.3,4.5-2.7c0.6-1.3,0.9-1.8,0.5-2.2
		C39.6,134.4,39.2,134.2,38.5,133.7z M21.6,114c-0.4,0.3-1.4,0.8-2.3,1.1c-0.2,0.1-0.3,0.1-0.5,0.2c-0.5,0.7-1.1,1.4-1.7,2.2l0,0
		c-0.2,1.1,0,1.6,1.8,2.8c1.7,1.2,1.7,1.2,3.3,0.7l1.5-0.5l0.2-2.3c0.2-2.2,0.2-2.4-0.7-3.5C22.3,113.5,22.3,113.5,21.6,114z
		 M40.6,140.8c-0.4,0.3-1.5,2.8-1.7,3.9c-0.1,0.4,0.2,1.7,0.6,2.7c0.3,0.8,0.5,1.2,0.6,1.5c1-1.2,2-2.4,2.9-3.6
		c0.6-0.7,1.2-1.8,1.7-3.1C43,141.5,40.8,140.7,40.6,140.8z M32.2,129c-0.1,0-0.8,0.6-1.7,1.3l-1.6,1.4l1.5,0.8
		c1.4,0.8,1.5,0.8,2.1,0.2c0.3-0.3,0.6-0.8,0.7-1C33.2,131.3,32.6,129.5,32.2,129C32.2,129.1,32.2,129,32.2,129z M19.9,113.9
		c-0.2,0.2-0.4,0.5-0.6,0.7c0.5-0.2,1.1-0.4,1.1-0.4C20.5,114.2,20.3,114.1,19.9,113.9z M37.9,139.2l-1.4,0.6l0.6,1
		c0.3,0.6,0.8,1.3,1.1,1.7l0.5,0.7l0.7-1.6c0.5-1.2,0.6-1.7,0.3-2.2c-0.1-0.2-0.2-0.3-0.2-0.4C39.1,138.7,38.8,138.8,37.9,139.2z
		 M26.1,122.8c-2-1.8-1.9-1.8-3.3-1.3c-0.7,0.3-1.4,0.5-1.5,0.6c-0.3,0.2,0.1,0.6,1.5,1.4c0.9,0.5,1.6,0.7,2.5,0.5
		c1.3-0.2,1.7-0.3,1.4-0.7C26.5,123.2,26.3,123,26.1,122.8z M30.1,132.9c-1.4-0.8-1.8-0.9-3.3-0.6c-0.9,0.2-2,0.6-2.3,0.8
		c-0.5,0.4-0.6,0.7-0.4,1.3c0.5,1.7,2.9,4.4,3.5,4c0.4-0.3,2.8-3,3.4-3.8l0.7-0.9L30.1,132.9z M22.1,123.6l-1.7-1.1l-1.8,1.4
		c-1.7,1.4-1.8,1.4-1.6,2.3c0.1,0.5,0.6,1.5,1.2,2.2c0.9,1.1,1.1,1.2,2,1.2c1,0,1.1-0.1,2.1-1.4c0.6-0.8,1.2-1.8,1.3-2.4l0.2-1.1
		L22.1,123.6z M34.4,140.6c-1,0.3-1.5,0.7-2.3,1.5c-0.7,0.7-1.1,1.6-1.2,2.5l-0.3,1.4l2.2,0.5c2.2,0.5,2.9,0.4,4.3-0.7
		c1.4-1,1.4-1.9-0.1-3.9l-1.2-1.7L34.4,140.6z M19.5,121.8c-0.2-0.1-0.8-0.6-1.3-1.1s-1.1-1-1.3-1c-0.2-0.1-1,0.3-1.8,0.9l0,0
		c-0.4,0.6-0.7,1.3-1,2l0,0c0.3,0.4,0.9,1.2,1.4,1.6l0.8,0.8l1.8-1.5C19.3,122.5,19.7,122.1,19.5,121.8
		C19.6,121.9,19.6,121.9,19.5,121.8z M22.8,128.7c-1,1.1-1.1,1.3-0.7,1.9l0.8,1.6c0.5,0.9,0.7,0.9,2,0c0.8-0.5,0.8-0.5,0-2.6
		c-0.4-1.2-0.8-2.1-0.9-2.1C23.9,127.5,23.4,128,22.8,128.7z M35.7,147.7c0,0.2,0.3,1.3,0.8,2.3l0.7,1.9l0.6-0.5
		c0.1-0.1,0.1-0.1,0.2-0.2c0.4-0.5,0.9-1,1.3-1.6c0.1-0.5,0-1.1-0.4-2c-0.4-1-0.8-1.9-0.8-1.9C37.7,145.9,35.7,147.4,35.7,147.7z
		 M29.1,137.9l-1.3,1.3l1.3,1.7l1.4,1.7l1.1-1.1c0.6-0.6,1.1-1.1,1.1-1.2c0-0.2-1.9-3.7-2.1-3.7C30.5,136.7,29.8,137.3,29.1,137.9z
		 M15.9,119.4l0.4-0.3v-0.3C16.1,119,16,119.2,15.9,119.4z M33.6,147.5l-1.4-0.3l-1.3,2.3c-0.7,1.3-1.6,2.6-2,2.9
		c-0.6,0.5-0.6,0.6-0.2,1.1c1.1,1.3,2.2,1.9,3.6,1.8c0.7,0,2-0.4,3-0.8c0.5-0.6,0.6-0.7,1.4-1.6c-0.2-0.5-0.4-1.3-0.8-2.1l-1.1-2.8
		L33.6,147.5z M20.3,130.4c-0.9,0-4.5,1.2-5.2,1.7c-0.2,0.2-0.3,0.8-0.2,1.4c0.1,0.6,0.2,1.3,0.4,1.4c1.2,1.3,2.9,2.7,3.3,2.7
		c0.7,0.2,3-0.4,4.2-1.1c1-0.6,1.1-0.6,0.8-1.4c-0.1-0.5-0.7-1.7-1.3-2.8l-1-2L20.3,130.4z M26.4,139l-1-0.6l-1.2,1.5
		c-0.9,1.1-1.3,1.9-1.4,3c-0.2,1.4-0.2,1.6,0.6,2.2c0.5,0.4,1.6,1.1,2.4,1.6l1.6,0.9l1.2-1c0.9-0.8,1.2-1.2,1.4-2.2
		c0.3-1.3,0.3-1.3-1.2-3.1C27.9,140.3,27,139.3,26.4,139z M13.8,123.2c-0.8,1.8-1.4,3.6-1.9,5.5c1.5-0.5,3.2-1.1,3.8-1.3
		c0.6-0.3,0.7-0.4,0.5-1.1c-0.1-0.3-0.4-0.8-0.9-1.4S14.3,123.7,13.8,123.2z M24.7,137.2c-0.5-0.6-0.6-0.6-1.8,0
		c-1.4,0.7-1.5,1-1,2.2c0.2,0.4,0.4,1,0.5,1.2c0.1,0.4,0.2,0.4,0.8-0.3c1.7-2,2-2.4,1.7-3C24.8,137.3,24.8,137.2,24.7,137.2z
		 M15.7,128c-0.6,0.2-1.2,0.6-1.4,0.7c-0.5,0.4,0,2.9,0.5,2.8c0.9-0.3,3.8-1.3,3.9-1.4c0,0-0.4-0.6-0.9-1.3
		C16.7,127.5,16.7,127.5,15.7,128z M30.6,146.4c-0.5,0-0.9,0.2-1.6,0.9c-0.9,0.9-1,1-0.6,1.8c0.2,0.5,0.5,1.1,0.6,1.4
		c0.1,0.3,0.3,0.4,0.4,0.3c0.1-0.1,0.6-1,1.2-2c0.7-1.1,1-1.8,0.8-2.1C31.3,146.5,31,146.4,30.6,146.4z M11.6,129.6
		c-0.6,2.4-0.9,4.9-1.1,7.5c1.4,0.5,2.2,0.6,2.3,0.3c0.8-2,1-3.6,0.9-5.8l-0.2-2.6L11.6,129.6z M20.6,138.4c-0.6-0.1-6,0.7-6.2,0.9
		c-0.1,0.1-0.3,1.1-0.4,2.1s-0.2,2-0.1,2c0.5,0.5,2.1,1.1,3.6,1.6c2.8,0.8,4.1,0.1,4.5-2.2c0.2-1.3-0.4-3.6-1-4.3
		C20.8,138.5,20.7,138.4,20.6,138.4z M32.2,156h-1.5l-0.9,1.3c-1.1,1.5-1.8,4-1.5,5c0.3,1.1,0.5,1.2,3.2,1.6l1.3,0.2
		c0.7-3.5,1.1-6.8,1.2-7.6l-0.2-0.5C33.7,156,33,156,32.2,156z M25.9,147.8c-1.4-0.8-1.7-0.9-2.2-0.5c-0.3,0.3-1.1,0.9-1.8,1.5
		c-1,0.8-1.2,1.2-1.1,1.8c0.1,0.8,0.3,1,2.9,3.3c2.8,2.4,2.6,2.4,3,0.6c0.2-0.9,0.8-1.9,1.2-2.4c0.5-0.6,0.7-1,0.6-1.3
		c-0.3-0.6-0.5-1.1-0.7-1.5C27.4,148.7,26.9,148.3,25.9,147.8z M17,137.4c-0.5-0.4-1.2-1.2-1.8-1.7l-1-0.9l-0.6,1.8
		c-0.3,1-0.5,1.9-0.5,1.9c0.2,0.2,1.3,0.2,3.1,0l1.6-0.2L17,137.4z M22.8,145.5c-0.8-0.6-1-0.6-1.7-0.1c-0.5,0.3-0.9,0.7-1,0.8
		c0,0.1,0,0.9,0.1,1.8l0.1,1.5L22,148c0.9-0.8,1.7-1.6,1.7-1.7C23.7,146.3,23.3,145.9,22.8,145.5z M27.8,153.7
		c-0.2,0-0.5,0.6-0.7,1.4c-0.2,0.8-0.2,1.6,0,1.8c0.9,0.9,1.4,1.2,1.6,0.9c0.1-0.2,0.5-0.7,0.9-1.2c0.4-0.4,0.7-0.9,0.7-1
		c0,0,0-0.1-0.1-0.2C29.8,155,28.2,153.8,27.8,153.7z M17.4,145.9l-2.1-0.5l-1,1.4c-0.6,0.8-1.2,2.2-1.5,3.2s-0.4,1.9-0.3,2.1
		c0.9,0.9,2.6,2,3.6,2.2l1.2,0.2l1.2-1.6c1.2-1.6,1.2-1.8,1.1-4l-0.1-2.4L17.4,145.9z M10.5,137.9c-0.1,2-0.2,4.1-0.2,6.1
		c2.3-0.5,2.6-0.9,2.9-2.9c0.1-1.1,0.2-1.7-0.2-2.1S11.9,138.4,10.5,137.9z M27.2,157.8c-0.5-0.4-1.4-1.2-2-1.6
		c-1-0.7-1.3-0.7-2.4-0.4c-2.7,0.9-2.8,0.9-2.2,2.2c0.3,0.6,0.7,2,1,3.1l0.4,2l1,0.2c0.7,0.1,1.4-0.1,2.6-0.7c1.6-0.9,1.6-0.9,2-2.5
		c0.3-1.1,0.4-1.5,0.1-1.9C27.6,158.2,27.4,158,27.2,157.8z M31.5,164.7l-2.6-0.4l-0.6,1.2c-0.7,1.4-0.7,2.3,0,4.9
		c0.3,1.1,0.6,2,0.6,2s0.6,0.1,1.2,0.2c0.5-1.2,1-2.4,1.5-3.9c0.4-1.1,0.7-2.5,1-3.9C32.2,164.8,31.9,164.8,31.5,164.7z M21,152.3
		l-0.9-0.8l-1.2,1.7c-0.7,0.9-1.2,1.8-1.1,1.8c0.1,0.1,0.5,0.4,1,0.7c0.9,0.6,1.3,0.5,4-0.7c0.4-0.2,0.6-0.2,0.4-0.5
		C23,154.2,22.4,153.6,21,152.3z M12.5,143.9c-1,0.4-1.2,1-0.6,2c0.3,0.5,0.6,1.1,0.6,1.4c0.1,0.2,0.2,0.4,0.3,0.3
		c0.4-0.3,1.9-2.4,1.9-2.6c0-0.1,0-0.1,0-0.2C14.4,144.2,13.1,143.7,12.5,143.9z M27.6,162.4c-0.1,0-0.8,0.3-1.5,0.7
		c-1.3,0.7-1.6,1-1.1,1.3c0.1,0.1,0.7,0.5,1.3,0.9l1,0.8l0.5-1.1c0.3-0.7,0.4-1.4,0.2-1.9c-0.1-0.2-0.2-0.4-0.3-0.5
		C27.7,162.5,27.6,162.4,27.6,162.4z M10.3,144.9c0,2.4,0.1,4.9,0.3,7.3c0,0,0.1,0,0.1-0.1c0.5-0.4,0.9-1.1,1.1-2.3
		c0.3-1.4,0.3-2-0.1-3c-0.3-0.7-0.6-1.5-0.7-1.7c0-0.1,0-0.1-0.1-0.1C10.8,145,10.6,144.9,10.3,144.9z M25.5,165.5
		c-2-1.5-3.3-1.6-4.9-0.4c-0.7,0.5-1.5,1.4-1.9,2.1c-0.4,0.6-0.6,1.2-0.5,1.3s1,0.8,2.1,1.6c1.4,1.1,2.3,1.6,3.3,1.7l1.4,0.3l1-2.7
		c0.6-1.5,1-2.8,1-2.8C26.9,166.6,26.2,166,25.5,165.5z M15.9,155c-1.8-0.3-3.2,0.6-4.4,2.8l-0.3,0.6l0.2,1.9l0.6,0.8l1.3,1.7
		l1.8-0.4c1.9-0.5,5-2.1,5.1-2.6c0-0.2-0.2-0.9-0.4-1.7c-0.1-0.4-0.3-0.8-0.6-1.2C18.4,155.9,17.3,155.3,15.9,155z M19.2,161.2
		c-0.9,0.5-1.6,1-1.6,1.2s0.3,0.8,0.7,1.6l0.8,1.3l0.9-0.5c1.5-0.8,1.6-1.2,1.2-2.9l-0.4-1.6L19.2,161.2z M27,168.9
		c-0.1,0.1-0.5,1-1,2c-0.6,1.3-0.8,2.1-0.6,2.9l0.2,1l1.4-1.2l1.3-1.2l-0.6-1.8C27.4,169.8,27.2,169.2,27,168.9
		C27,169,27,168.9,27,168.9z M27.5,174.1l-1.2,0.9l1.1,1.7c0.5,0.7,0.8,1.3,1.1,1.7c-0.1-1.1-0.2-1.9-0.2-1.9s0.6-1.3,1.4-3.1
		C28.8,173.2,28.5,173.3,27.5,174.1z M12.9,153.1c-1.1-0.9-1.2-0.9-1.8-0.4c-0.2,0.2-0.4,0.3-0.4,0.5s0,0.3,0.1,0.5s0.1,0.4,0.2,0.7
		c0.3,0.6,0.5,1.3,0.5,1.4s0.4,0,0.8-0.2c1-0.5,1.9-1.2,1.8-1.4C14.1,154.1,13.5,153.6,12.9,153.1z M15.9,162.9
		c-1,0.2-3.2,1-4.4,1.5c0.1,1,0.1,2,0.2,2.9c0,0.5,0.1,1.1,0.1,1.6c0.1,0.2,0.3,0.3,0.5,0.5c1,1,3,1.5,3.3,0.9
		c0.1-0.3,0.9-1.4,1.6-2.5c1.3-2,1.3-2.1,0.8-3.1c-0.2-0.4-0.4-0.8-0.6-1C17,162.8,16.6,162.7,15.9,162.9z M23.2,172.7
		c-1.3-0.3-4,0.2-4.8,0.9c-0.1,0.1,0,1.1,0.2,2.1c0.8,3.3,1.1,3.5,3.3,3.8c1.5,0.2,2.2,0,3.3-0.5c0.8-0.4,1.5-0.8,1.6-0.9
		s-0.2-0.8-0.7-1.6s-1-1.9-1.2-2.4c-0.1-0.4-0.2-0.6-0.3-0.8C24.4,173,24,172.9,23.2,172.7z M28.5,179.4c-0.7-0.8-1.1-1.2-1.3-1
		c-0.2,0.1-0.8,0.5-1.5,0.9c-1.4,0.7-1.5,1-0.8,2.3c0.2,0.4,0.5,1,0.6,1.2c0.2,0.5,1.3,0,3.1-1.4C28.6,180.7,28.6,180,28.5,179.4
		L28.5,179.4z M20.3,170.9l-1.8-1.4l-1-0.7l-0.8,1.3c-0.9,1.3-0.9,1.6,0.5,2.6c0.5,0.3,1,0.3,2.3-0.2c0.9-0.4,1.7-0.7,1.7-0.8
		S20.8,171.2,20.3,170.9z M25,185.1c-0.6,0.7-0.6,0.8,0.2,1.8c0.6,0.8,1,1,2.2,1.4c0.7-2,0.9-4.2,1.1-6.1
		C27.3,182.9,25.9,184.1,25,185.1z M11.4,161.5l-0.1-0.1c0.1,0.8,0.1,1.6,0.2,2.4c0.2-0.1,0.4-0.1,0.5-0.2l0.8-0.3L11.4,161.5z
		 M21.7,180.2c-1.8-0.2-2.3-0.1-3.5,0.5c-0.7,0.4-1.4,0.8-1.4,1c-0.1,0.2,0,0.9,0.1,1.6c0.2,0.9,0.6,1.8,1.3,2.6
		c1,1.2,1,1.2,2.3,1.1c2.3-0.3,2.8-0.4,2.9-0.9c0.1-0.2,0.4-0.8,0.8-1.2c0.9-1,0.9-1.2,0.2-3.1l-0.5-1.4L21.7,180.2z M16.1,172.4
		c-0.5-0.5-1.5-1.1-2.1-1.3c-0.9-0.2-1.1-0.2-1.8,0.4c0.3,2.6,0.8,5.2,1.3,7.6c0.8-0.2,1.7-0.5,2.6-0.8c1-0.4,1.9-0.8,1.9-0.8
		s-0.2-1-0.4-2.1c-0.3-1.3-0.5-1.9-1-2.4C16.5,172.8,16.3,172.6,16.1,172.4z M12,169.8c0,0.3,0.1,0.7,0.1,1c0.2-0.2,0.3-0.4,0.3-0.4
		s0-0.1-0.1-0.2C12.2,170.1,12.1,169.9,12,169.8z M18.4,178c-0.1,0-1,0.3-2,0.7c-2,0.8-2,0.8-0.7,1.9c0.5,0.5,0.8,0.4,2.5-0.5
		c1-0.6,1-0.7,0.7-1.3c-0.1-0.2-0.2-0.4-0.3-0.5S18.5,178,18.4,178z M25.9,189c-0.4,0.3-1,2.7-1.2,4.5c0.4-0.6,0.8-1.3,1.3-2.2
		c0.4-0.7,0.8-1.4,1.1-2.2C26.6,188.9,26.1,188.8,25.9,189z M23.7,187c0,0.1,0.2,1,0.5,1.8l0.5,1.6l0.4-1c0.3-0.9,0.3-1.2-0.3-2.1
		C24.2,186.4,23.6,186.3,23.7,187z M23,187.6c-0.1,0-1,0.1-2,0.2l-1.8,0.3l-0.8,1.3c-0.3,0.5-0.9,1.2-1.3,1.6
		c0.6,1.5,1.2,2.8,1.8,3.8c0.4,0.3,0.7,0.6,0.8,0.6c0.3,0.1,1.2,0,2.1-0.2l1.6-0.3l0.3-2c0.2-1.3,0.2-2.6-0.1-3.7
		C23.4,188.5,23.2,187.9,23,187.6C23.1,187.7,23.1,187.6,23,187.6z M14.9,180.6c-0.5-0.4-0.7-0.6-1.2-0.6c0.4,1.7,0.9,3.4,1.3,5
		c0.2,0,0.4-0.1,0.5-0.1c0.9-0.2,0.8-0.2,0.5-1.8c-0.2-1-0.4-1.5-0.7-2C15.2,180.9,15.1,180.8,14.9,180.6z M16,185.4
		c-0.4,0.1-0.7,0.2-0.8,0.3c0.1,0.2,0.1,0.4,0.2,0.6c0.1,0.2,0.2,0.3,0.3,0.5l1.2,2c0.6,1.1,0.6,1.1,1.3-0.2c0.5-1,0.5-1-0.4-2.3
		C16.9,185.2,16.7,185.1,16,185.4z M23.1,195.6c-0.9,0.2-1,0.4-0.3,1.4c0.2-0.3,0.5-0.9,0.8-1.5C23.4,195.5,23.3,195.6,23.1,195.6z
		 M16.4,189.2l0.3,0.9l0,0C16.8,189.9,16.7,189.7,16.4,189.2C16.5,189.2,16.4,189.2,16.4,189.2z M20.3,196.5c-0.1,0-0.2,0.1-0.3,0.1
		c0.5,0.6,0.9,1,1.2,1c0.5,0,0.8-0.1,1-0.2c-0.1-0.3-0.2-0.4-0.4-0.6C21.5,196.3,21.1,196.3,20.3,196.5z"/>

		<radialGradient id="SVGID_13_" cx="-628.3513" cy="183.868" r="57.3373" gradientTransform="matrix(-0.62 -0.7846 -0.7846 0.62 -235.6391 -436.5252)" gradientUnits="userSpaceOnUse">
		<stop  offset="9.496796e-03" style="stop-color:#8ED089"/>
		<stop  offset="1" style="stop-color:#FFFFFF;stop-opacity:0"/>
	</radialGradient>
	<path class="st22" d="M44.8,113.5c1.5,2.5,4.9-0.4,2.8-2.3C46.4,108.3,41.5,112.8,44.8,113.5z M40.5,104.2
		C37.6,103,38.9,106.6,40.5,104.2z M44.5,119.2c-1.5,1.2-1.1,4.6,1.9,2.2C47.6,119.9,45,120.3,44.5,119.2z M36.2,112.6
		c1.6,3.1,3.8,0.5,2.1-1.6C37.9,109.1,35.1,111.8,36.2,112.6z M42.7,130.1c1.6,1,4.3-1,2.2-3.1C43.7,126,42.3,128.9,42.7,130.1z
		 M37.1,118.7c-2.6,1.2,1.1,3.7,1.8,1C38.6,118.8,37.8,118.5,37.1,118.7z M30.7,111.1C29.4,107.5,26.6,115.4,30.7,111.1z M27,118.1
		c-1.8,3.6,3.5,2.4,4.5,0C30.4,115.7,28.8,118.2,27,118.1z M34.7,128c0.4,3.2,2.5,0.8,3.4-0.6C38.1,124.6,33.4,126.3,34.7,128z
		 M42.3,137.7c1.5,2.3,3.2-0.7,1.6-2.3C42.9,134.2,42.9,137.3,42.3,137.7z M34.3,135c-2.8,2.9,2.4,3.2,3.2,1
		C37.8,135.3,34.7,133.6,34.3,135z M19.3,118.1c1.6,2.2,3.5,0.7,2.7-1.7C21.2,116,19.7,117.3,19.3,118.1z M26.8,127.5
		c0.2,3.5,3.5,0.4,2-1.5C28.5,125.6,25.5,125.9,26.8,127.5z M41.8,143.5C41.5,142.4,40.5,145.9,41.8,143.5z M28.4,134.3
		c-1.9-0.9-2.6,1.9-0.7,1.2C27.9,135.1,29.2,134.5,28.4,134.3z M33.9,143.1c-3,2.1,3.9,2.2,1.4-0.1C35,142.1,34.3,142.8,33.9,143.1z
		 M34.5,144.7C34.4,144.7,34.5,144.8,34.5,144.7z M19.2,125.9c-0.3,2,1.9,2,2.2-0.1C21.1,124.7,20,124.9,19.2,125.9z M16.5,122.2
		C17,122.2,16.4,121.8,16.5,122.2z M16.9,133.4c0.1,2.8,6.1,3.1,3.6-0.2C20.1,131.6,18,133.2,16.9,133.4z M32,151.4
		c-3.3,2.6,3.7,2.2,2.2-0.1C33.8,148.4,32.8,149.9,32,151.4z M25.5,141.6c-2.9,2,3,5.3,2.4,2C27.6,143.5,26,140.2,25.5,141.6z
		 M16.6,142.7c2.1,1.5,4.4,0.5,3-2.1C18.5,140.4,14.1,141.2,16.6,142.7z M23.3,150.3c0,1.8,3.2,2.9,3.1,0.3
		C25.6,149.6,24.1,148.7,23.3,150.3z M30.9,159.4c-1.9,3,1.3,2.7,0.6-0.5C32.1,157.2,31,159.2,30.9,159.4z M30.3,161.4
		C30.2,161.4,30.2,161.5,30.3,161.4z M14.6,151c1.3,2.5,3.8-0.1,3.1-2.2C16.5,145.7,14.8,149.3,14.6,151z M23,158.9
		c-0.3,2.6,2.1,2.9,2.7,0.8C26.2,158.6,21.8,156.3,23,158.9z M29.9,167.3C30.5,164.5,29.2,169,29.9,167.3z M15.2,156.9
		c-4.9,1.7,1.8,5.7,2.2,1.3C17,157.4,16.1,157,15.2,156.9z M21.8,166.7c-3.1,0.9,2,4.7,2.2,2.1C25.6,167.4,23,165.5,21.8,166.7z
		 M13.7,166.2c-0.7,4.2,2.8,0.7,2.4-1C15.7,164.7,13.5,165.6,13.7,166.2z M21,177c2,1.5,4.1-0.2,2-2.2C21.3,174.2,19.5,174.6,21,177
		z M19.1,182.5c-1.3,2.9,4.6,3.4,3.4,0.1C21.7,182,20.1,181.9,19.1,182.5z M14.6,174c-0.1,2.8,1.9,2.8,0.6,0.4
		C15.2,174.3,14.3,173.2,14.6,174z M19.8,191.1c-0.2,4.2,3.4,1.7,2-1.1C21.1,189.4,20.1,190.3,19.8,191.1z"/>
	<path class="st23" d="M71.5,42.1c-0.1-0.6,5.2,8.1,4,10.5S57.2,75.8,54,84.1s6.9,34.2,6.9,34.2s5.7,10.3,0.5,10.2
		s-21.2-22.9-21.7-24.4c-0.4-1.5-1.8-19.5-0.7-22.9s6.9-9.7,6.9-9.7s-4.5-2-12-5.1c-7.5-3-18.4-11.2-20.8-13.7
		c-3.6-3.7-7.7-15.4-7.2-15l-4.8-4.8C0.9,28.6,5.9,23.1,9.9,21c4.7-2.5,12.2-0.7,17.4,1.6c3.6,1.6,8.5,5,13.3,8.8
		c4.6,3.7,8.9,11.1,8.9,11.1l11.5,4L71.5,42.1L71.5,42.1z"/>
</g>
</svg>
