<?xml version="1.0" encoding="utf-8"?>
<!-- Generator: Adobe Illustrator 25.0.1, SVG Export Plug-In . SVG Version: 6.00 Build 0)  -->
<svg version="1.1" id="Layer_1" xmlns="http://www.w3.org/2000/svg" xmlns:xlink="http://www.w3.org/1999/xlink" x="0px" y="0px"
	 viewBox="0 0 747.6 678.3" style="enable-background:new 0 0 747.6 678.3;" xml:space="preserve">
<style type="text/css">
	.st0{fill-rule:evenodd;clip-rule:evenodd;fill:#F9F8D4;stroke:#000000;stroke-width:3.1549;stroke-miterlimit:4.9296;}
	.st1{fill:none;stroke:#000000;stroke-width:8.3187;stroke-miterlimit:4.9296;}
	.st2{fill-rule:evenodd;clip-rule:evenodd;fill-opacity:4.324000e-02;}
	.st3{fill:none;stroke:#000000;stroke-width:8.4727;stroke-miterlimit:4.9296;}
	.st4{fill:none;stroke:#000000;stroke-width:8.6268;stroke-miterlimit:4.9296;}
	.st5{fill-rule:evenodd;clip-rule:evenodd;fill-opacity:8.649000e-02;}
	.st6{fill-rule:evenodd;clip-rule:evenodd;fill:#253B59;stroke:#000000;stroke-width:3.3891;stroke-miterlimit:4.9296;}
	.st7{fill-rule:evenodd;clip-rule:evenodd;fill:#8ED089;stroke:#000000;stroke-width:3.3891;stroke-miterlimit:4.9296;}
	.st8{fill-rule:evenodd;clip-rule:evenodd;fill-opacity:0.2973;}
	.st9{fill-rule:evenodd;clip-rule:evenodd;fill-opacity:0.2;}
	.st10{fill-rule:evenodd;clip-rule:evenodd;fill:#FAFAF3;stroke:#000000;stroke-width:3.1549;stroke-miterlimit:4.9296;}
	.st11{fill:none;stroke:#000000;stroke-width:1.2324;stroke-miterlimit:4.9296;}
	.st12{opacity:0.52;fill-rule:evenodd;clip-rule:evenodd;fill-opacity:0.2811;}
	.st13{opacity:0.58;fill-rule:evenodd;clip-rule:evenodd;fill-opacity:0.1622;}
	.st14{fill-rule:evenodd;clip-rule:evenodd;fill-opacity:0.173;}
	.st15{fill-rule:evenodd;clip-rule:evenodd;fill-opacity:8.108000e-02;}
	.st16{fill-rule:evenodd;clip-rule:evenodd;fill-opacity:3.243000e-02;}
	.st17{fill-rule:evenodd;clip-rule:evenodd;fill-opacity:0.1784;}
	.st18{fill:none;stroke:#000000;stroke-width:5.669;stroke-miterlimit:4.9296;}
	.st19{fill:none;stroke:#000000;stroke-width:4.5599;stroke-miterlimit:4.9296;}
	.st20{fill:none;stroke:#000000;stroke-width:3.8204;stroke-miterlimit:4.9296;}
	.st21{fill:none;stroke:#000000;stroke-width:1.7254;stroke-miterlimit:4.9296;}
	.st22{fill-rule:evenodd;clip-rule:evenodd;fill:#E81844;}
</style>
<path class="st0" d="M485.4,307.4l119.4-129.6c0,0,61.7,139.9,84.4,212s47.3,156.4,47.3,156.4l-257.3,53.5L485.4,307.4L485.4,307.4z
	"/>
<path class="st1" d="M486.2,50.1L469.7,649"/>
<path class="st2" d="M297.8,595.5l17.5-232.8l122.2-113.5L455,351l17.5,235.7L297.8,595.5L297.8,595.5z"/>
<path class="st3" d="M319.5,101.6l-28.8,539.2"/>
<path class="st0" d="M130.2,599.6c0,0,61.7-94.7,96.7-152.3s61.7-107,61.7-107v255.2c0,0-49.4,2.1-86.4,6.2S130.2,599.6,130.2,599.6
	L130.2,599.6z"/>
<path class="st4" d="M137.8,620.2L3.9,598.4"/>
<path class="st5" d="M315.3,595.5l154.2-8.7L455,348.1l-11.6-81.5c0,0-29.1,43.7-55.3,125.2c-26.2,81.5-37.8,110.6-40.7,136.8
	C344.4,554.7,315.3,595.5,315.3,595.5L315.3,595.5z"/>
<path class="st6" d="M116.9,617.4c0,0,229.2,14.8,303.2,12.3c73.9-2.5,140.5-7.4,170.1-4.9c29.6,2.5,138-22.2,113.4-7.4
	s34.5,12.3-46.8,19.7S457.2,654.4,398,649.4c-59.2-4.9-175-14.8-212-19.7C149,624.8,116.9,617.4,116.9,617.4z"/>
<path class="st7" d="M112,615.7l54.2,58.7c0,0,163,1,248.9,0c86.8-1,199.6,1.1,214.4-1.3s66.5-27.8,73.9-32.8
	c7.4-4.9,4.9-22.2,4.9-22.2s-12.3,12.3-78.9,17.3c-66.5,4.9-192.3,12.3-248.9,7.4c-56.7-4.9-138-7.4-179.9-14.8
	C158.8,620.6,112,615.7,112,615.7z"/>
<path class="st8" d="M694.2,640.8c0,0-25.5,16-45.3,25.1s-39.1,6.3-231.8,8.3c-36.2,0-35,1.8-48.2,0.7c28-1,170.4,0,263.5-14
	C678.5,648.9,694.2,640.8,694.2,640.8L694.2,640.8z"/>
<path class="st9" d="M128,627l39.3,45.1l78.6-1.5c0,0-32,7.3-69.8-11.6S128,627,128,627L128,627z"/>
<path class="st0" d="M276.3,344.4c0,0-105,102.9-139.9,131.7c-35,28.8-125.5,117.3-125.5,117.3s80.3-18.5,121.4-22.6
	s61.7-8.2,61.7-8.2L276.3,344.4L276.3,344.4z"/>
<path class="st0" d="M124,424.7c0,0,67.9-109.1,100.8-156.4s82.3-125.5,82.3-125.5s-16.5,76.1-20.6,115.2s-4.1,94.7-4.1,94.7
	s-39.1,8.2-78.2,24.7C165.1,393.8,124,424.7,124,424.7L124,424.7z"/>
<path class="st10" d="M313.3,360.9l125.5-115.2c0,0,12.3,53.5,16.5,100.8c4.1,47.3,16.5,240.8,16.5,240.8l-177,10.3L313.3,360.9
	L313.3,360.9z"/>
<path class="st0" d="M344.7,331.9l94.1-85c0,0,27.9,131,27.3,199.1c-0.5,63.4,3.3,142,3.3,142l-174.2,7.8l16-225.4L344.7,331.9z"/>
<path class="st0" d="M323.6,148.9c0,0,28.8,57.6,26.8,70c-2.1,12.3-6.2,74.1-16.5,107s-22.6,43.2-22.6,43.2L323.6,148.9L323.6,148.9
	z"/>
<path class="st0" d="M490.3,78.9c0,0,28.8,61.7,53.5,76.1s47.3,26.8,47.3,26.8l-74.1,142c0,0-20.6-65.9-24.7-94.7
	s-4.1-49.4-4.1-49.4L490.3,78.9L490.3,78.9z"/>
<path class="st11" d="M4.6,593.4C8.7,579,126,422.6,126,422.6"/>
<path class="st11" d="M323.6,136.6L475.9,225l-131.7,28.8"/>
<path class="st11" d="M348.3,227.1L482.1,62.5"/>
<path class="st5" d="M99.7,570.9l91.1-6.4L271.4,373c0,0-59.6,134.1-87.6,156.4C155.8,551.7,99.7,570.9,99.7,570.9L99.7,570.9z"/>
<path class="st5" d="M158.1,601.3l125.2-5.8l2.9-218.3c0,0-17.5,104.8-37.8,139.7C228,551.8,158.1,601.3,158.1,601.3L158.1,601.3z"
	/>
<path class="st5" d="M213.4,371.4c0,0,11.6-8.7,34.9-14.6c23.3-5.8,32-5.8,32-5.8s0-49.5,2.9-87.3s5.8-46.6,5.8-46.6
	s-23.3,37.8-37.8,78.6C236.7,336.5,213.4,371.4,213.4,371.4L213.4,371.4z"/>
<path class="st5" d="M481.2,598.4l253.2-55.3l-40.7-142.6l-87.3-218.3c0,0-43.7,209.5-66.9,270.7S481.2,598.4,481.2,598.4
	L481.2,598.4z"/>
<path class="st5" d="M513.2,319c0,0,11.6-34.9,11.6-84.4s-20.4-75.7,2.9-69.8c23.3,5.8,61.1,20.4,61.1,20.4L513.2,319L513.2,319z"/>
<path class="st12" d="M164,470.3c0,0,40.7-37.8,64-49.5s20.4-11.6,20.4-11.6l-23.3,61.1c0,0-11.6-8.7-32-5.8S164,470.3,164,470.3
	L164,470.3z"/>
<path class="st13" d="M134.8,595.5c0,0,101.9-101.9,122.2-145.5s29.1-107.7,29.1-107.7v250.3l-113.5,8.7L134.8,595.5L134.8,595.5z"
	/>
<path class="st5" d="M294.9,592.6c0,0,32-20.4,37.8-40.7c5.8-20.4-20.4-186.3-20.4-186.3s17.5,84.4,32,101.9s29.1-8.7,29.1-8.7
	l17.5-58.2c0,0-2.9-46.6-11.6-72.8s-66.9,37.8-66.9,37.8L294.9,592.6L294.9,592.6z"/>
<path class="st14" d="M312.4,362.6l99-90.2c0,0,8.7-5.8-2.9,29.1s-43.7,69.8-61.1,66.9L312.4,362.6L312.4,362.6z"/>
<path class="st15" d="M481.2,569.3L542.3,415l49.5-197.9c0,0-23.3,64-34.9,107.7s-20.4,96-20.4,96s-17.5,14.6-32,55.3
	C489.9,516.9,481.2,569.3,481.2,569.3L481.2,569.3z"/>
<path class="st16" d="M475.1,542.2l56.3-141.5L577,219.1c0,0-21.4,58.7-32.2,98.8S526.1,406,526.1,406s-16.1,13.3-29.5,50.7
	C483.2,494.1,475.1,542.2,475.1,542.2L475.1,542.2z"/>
<path class="st15" d="M553.9,583.8l180.4-40.7L679,365.6c0,0,20.4,78.6,5.8,116.4S554,583.8,553.9,583.8L553.9,583.8z"/>
<path class="st15" d="M373.5,589.6l96-2.9l-8.7-133.9c0,0,5.8,99-8.7,107.7C437.5,569.3,373.5,589.6,373.5,589.6L373.5,589.6z"/>
<path class="st17" d="M315.3,365.5c0,0,11.6-78.6,14.6-113.5s0-75.7,0-75.7s2.9,37.8,5.8,61.1s5.8,43.7,5.8,43.7s0,26.2-8.7,46.6
	C324,348.1,315.3,365.5,315.3,365.5L315.3,365.5z"/>
<path class="st18" d="M469.5,598.4l273.6-55.3"/>
<path class="st19" d="M294.9,595.5l171.7-8.7"/>
<path class="st20" d="M289.1,592.6l-168.8,11.6"/>
<path class="st14" d="M519,327.7c0,0,11.6-37.8,43.7-72.8c32-34.9,52.4-43.7,52.4-43.7s-14.6-29.1-23.3-23.3S519,327.7,519,327.7
	L519,327.7z"/>
<path class="st21" d="M484.1,60L487,4.7"/>
<path class="st22" d="M590.9,19.2c0,0-29.1-8.7-49.5-5.8S492,7.6,492,7.6L489.1,60c0,0,0-20.4,17.5-20.4c17.5,0,8.7,11.6,37.8-2.9
	S590.9,19.2,590.9,19.2L590.9,19.2z"/>
</svg>
