<?xml version="1.0" encoding="utf-8"?>
<!-- Generator: Adobe Illustrator 25.0.1, SVG Export Plug-In . SVG Version: 6.00 Build 0)  -->
<svg version="1.1" id="Layer_1" xmlns="http://www.w3.org/2000/svg" xmlns:xlink="http://www.w3.org/1999/xlink" x="0px" y="0px"
	 viewBox="0 0 747.6 678.3" style="enable-background:new 0 0 747.6 678.3;" xml:space="preserve">
<style type="text/css">
	.st0{fill-rule:evenodd;clip-rule:evenodd;fill:#F9F8D4;stroke:#000000;stroke-width:3.1549;stroke-miterlimit:4.9296;}
	.st1{fill:none;stroke:#000000;stroke-width:8.3187;stroke-miterlimit:4.9296;}
	.st2{fill-rule:evenodd;clip-rule:evenodd;fill-opacity:4.324000e-02;}
	.st3{fill:none;stroke:#000000;stroke-width:8.4727;stroke-miterlimit:4.9296;}
	.st4{fill:none;stroke:#000000;stroke-width:8.6268;stroke-miterlimit:4.9296;}
	.st5{fill-rule:evenodd;clip-rule:evenodd;fill-opacity:8.649000e-02;}
	.st6{fill-rule:evenodd;clip-rule:evenodd;fill:#253B59;stroke:#000000;stroke-width:3.3891;stroke-miterlimit:4.9296;}
	.st7{fill-rule:evenodd;clip-rule:evenodd;fill:#8ED089;stroke:#000000;stroke-width:3.3891;stroke-miterlimit:4.9296;}
	.st8{fill-rule:evenodd;clip-rule:evenodd;fill-opacity:0.2973;}
	.st9{fill-rule:evenodd;clip-rule:evenodd;fill-opacity:0.2;}
	.st10{fill-rule:evenodd;clip-rule:evenodd;fill:#FAFAF3;stroke:#000000;stroke-width:3.1549;stroke-miterlimit:4.9296;}
	.st11{fill:none;stroke:#000000;stroke-width:1.2324;stroke-miterlimit:4.9296;}
	.st12{opacity:0.52;fill-rule:evenodd;clip-rule:evenodd;fill-opacity:0.2811;enable-background:new    ;}
	.st13{opacity:0.58;fill-rule:evenodd;clip-rule:evenodd;fill-opacity:0.1622;enable-background:new    ;}
	.st14{fill-rule:evenodd;clip-rule:evenodd;fill-opacity:0.173;}
	.st15{fill-rule:evenodd;clip-rule:evenodd;fill-opacity:8.108000e-02;}
	.st16{fill-rule:evenodd;clip-rule:evenodd;fill-opacity:3.243000e-02;}
	.st17{fill-rule:evenodd;clip-rule:evenodd;fill-opacity:0.1784;}
	.st18{fill:none;stroke:#000000;stroke-width:5.669;stroke-miterlimit:4.9296;}
	.st19{fill:none;stroke:#000000;stroke-width:4.5599;stroke-miterlimit:4.9296;}
	.st20{fill:none;stroke:#000000;stroke-width:3.8204;stroke-miterlimit:4.9296;}
	.st21{fill:none;stroke:#000000;stroke-width:1.7254;stroke-miterlimit:4.9296;}
	.st22{fill-rule:evenodd;clip-rule:evenodd;fill:#E81844;}
</style>
<g>
	<path class="st0" d="M261.6,307.4l6.2,292.3L10.5,546.2c0,0,24.6-84.3,47.3-156.4s84.4-212,84.4-212L261.6,307.4L261.6,307.4z"/>
	<path class="st1" d="M277.3,649L260.8,50.1"/>
	<path class="st2" d="M449.2,595.5l-174.7-8.8L292,351l17.5-101.8l122.2,113.5L449.2,595.5L449.2,595.5z"/>
	<path class="st3" d="M456.3,640.8l-28.8-539.2"/>
	<path class="st0" d="M616.8,599.6c0,0-35,6.2-72,2.1s-86.4-6.2-86.4-6.2V340.3c0,0,26.7,49.4,61.7,107S616.8,599.6,616.8,599.6
		L616.8,599.6z"/>
	<path class="st4" d="M743.1,598.4l-133.9,21.8"/>
	<path class="st5" d="M431.7,595.5c0,0-29.1-40.8-32.1-66.9c-2.9-26.2-14.5-55.3-40.7-136.8c-26.2-81.5-55.3-125.2-55.3-125.2
		L292,348.1l-14.5,238.7L431.7,595.5L431.7,595.5z"/>
	<path class="st6" d="M561,629.7c-37,4.9-152.8,14.8-212,19.7c-59.2,5-177.5-4.9-258.8-12.3s-22.2-4.9-46.8-19.7s83.8,9.9,113.4,7.4
		c29.6-2.5,96.2,2.4,170.1,4.9c74,2.5,303.2-12.3,303.2-12.3S598,624.8,561,629.7z"/>
	<path class="st7" d="M546.4,628c-41.9,7.4-123.2,9.9-179.9,14.8c-56.6,4.9-182.4-2.5-248.9-7.4c-66.6-5-78.9-17.3-78.9-17.3
		s-2.5,17.3,4.9,22.2c7.4,5,59.1,30.4,73.9,32.8s127.6,0.3,214.4,1.3c85.9,1,248.9,0,248.9,0l54.2-58.7
		C635,615.7,588.2,620.6,546.4,628z"/>
	<path class="st8" d="M52.8,640.8c0,0,15.7,8.1,61.8,20.1c93.1,14,235.5,13,263.5,14c-13.2,1.1-12-0.7-48.2-0.7
		c-192.7-2-212,0.8-231.8-8.3S52.8,640.8,52.8,640.8L52.8,640.8z"/>
	<path class="st9" d="M619,627c0,0-10.3,13.1-48.1,32c-37.8,18.9-69.8,11.6-69.8,11.6l78.6,1.5L619,627L619,627z"/>
	<path class="st0" d="M470.7,344.4L553,562.6c0,0,20.6,4.1,61.7,8.2c41.1,4.1,121.4,22.6,121.4,22.6s-90.5-88.5-125.5-117.3
		C575.7,447.3,470.7,344.4,470.7,344.4L470.7,344.4z"/>
	<path class="st0" d="M623,424.7c0,0-41.1-30.9-80.2-47.3c-39.1-16.5-78.2-24.7-78.2-24.7s0-55.6-4.1-94.7s-20.6-115.2-20.6-115.2
		s49.4,78.2,82.3,125.5S623,424.7,623,424.7L623,424.7z"/>
	<path class="st10" d="M433.7,360.9l18.5,236.7l-177-10.3c0,0,12.4-193.5,16.5-240.8c4.2-47.3,16.5-100.8,16.5-100.8L433.7,360.9
		L433.7,360.9z"/>
	<path class="st0" d="M435.8,370.4l16,225.4L277.6,588c0,0,3.8-78.6,3.3-142c-0.6-68.1,27.3-199.1,27.3-199.1l94.1,85L435.8,370.4z"
		/>
	<path class="st0" d="M423.4,148.9l12.3,220.2c0,0-12.3-10.3-22.6-43.2s-14.4-94.7-16.5-107C394.6,206.5,423.4,148.9,423.4,148.9
		L423.4,148.9z"/>
	<path class="st0" d="M256.7,78.9l2.1,100.8c0,0,0,20.6-4.1,49.4S230,323.8,230,323.8l-74.1-142c0,0,22.6-12.4,47.3-26.8
		S256.7,78.9,256.7,78.9L256.7,78.9z"/>
	<path class="st11" d="M621,422.6c0,0,117.3,156.4,121.4,170.8"/>
	<path class="st11" d="M402.8,253.8L271.1,225l152.3-88.4"/>
	<path class="st11" d="M264.9,62.5l133.8,164.6"/>
	<path class="st5" d="M647.3,570.9c0,0-56.1-19.2-84.1-41.5c-28-22.3-87.6-156.4-87.6-156.4l80.6,191.5L647.3,570.9L647.3,570.9z"/>
	<path class="st5" d="M588.9,601.3c0,0-69.9-49.5-90.3-84.4c-20.3-34.9-37.8-139.7-37.8-139.7l2.9,218.3L588.9,601.3L588.9,601.3z"
		/>
	<path class="st5" d="M533.6,371.4c0,0-23.3-34.9-37.8-75.7c-14.5-40.8-37.8-78.6-37.8-78.6s2.9,8.8,5.8,46.6s2.9,87.3,2.9,87.3
		s8.7,0,32,5.8C522,362.7,533.6,371.4,533.6,371.4L533.6,371.4z"/>
	<path class="st5" d="M265.8,598.4c0,0-35.1-84.3-58.3-145.5s-66.9-270.7-66.9-270.7L53.3,400.5L12.6,543.1L265.8,598.4L265.8,598.4
		z"/>
	<path class="st5" d="M233.8,319l-75.6-133.8c0,0,37.8-14.6,61.1-20.4c23.3-5.9,2.9,20.3,2.9,69.8S233.8,319,233.8,319L233.8,319z"
		/>
	<path class="st12" d="M583,470.3c0,0-8.7-2.9-29.1-5.8c-20.4-2.9-32,5.8-32,5.8l-23.3-61.1c0,0-2.9-0.1,20.4,11.6
		C542.3,432.5,583,470.3,583,470.3L583,470.3z"/>
	<path class="st13" d="M612.2,595.5l-37.8,5.8l-113.5-8.7V342.3c0,0,8.8,64.1,29.1,107.7S612.2,595.5,612.2,595.5L612.2,595.5z"/>
	<path class="st5" d="M452.1,592.6l-17.5-227c0,0-58.2-64-66.9-37.8s-11.6,72.8-11.6,72.8l17.5,58.2c0,0,14.6,26.2,29.1,8.7
		s32-101.9,32-101.9s-26.2,165.9-20.4,186.3C420.1,572.2,452.1,592.6,452.1,592.6L452.1,592.6z"/>
	<path class="st14" d="M434.6,362.6l-35,5.8c-17.4,2.9-49.5-32-61.1-66.9s-2.9-29.1-2.9-29.1L434.6,362.6L434.6,362.6z"/>
	<path class="st15" d="M265.8,569.3c0,0-8.7-52.4-23.3-93.2c-14.5-40.7-32-55.3-32-55.3s-8.8-52.3-20.4-96s-34.9-107.7-34.9-107.7
		L204.7,415L265.8,569.3L265.8,569.3z"/>
	<path class="st16" d="M271.9,542.2c0,0-8.1-48.1-21.5-85.5C237,419.3,220.9,406,220.9,406s-7.9-48-18.7-88.1S170,219.1,170,219.1
		l45.6,181.6L271.9,542.2L271.9,542.2z"/>
	<path class="st15" d="M193.1,583.8c-0.1,0-116.3-64-130.9-101.8S68,365.6,68,365.6L12.7,543.1L193.1,583.8L193.1,583.8z"/>
	<path class="st15" d="M373.5,589.6c0,0-64-20.3-78.6-29.1c-14.5-8.7-8.7-107.7-8.7-107.7l-8.7,133.9L373.5,589.6L373.5,589.6z"/>
	<path class="st17" d="M431.7,365.5c0,0-8.7-17.4-17.5-37.8c-8.7-20.4-8.7-46.6-8.7-46.6s2.9-20.4,5.8-43.7s5.8-61.1,5.8-61.1
		s-3,40.8,0,75.7S431.7,365.5,431.7,365.5L431.7,365.5z"/>
	<path class="st18" d="M3.9,543.1l273.6,55.3"/>
	<path class="st19" d="M280.4,586.8l171.7,8.7"/>
	<path class="st20" d="M626.7,604.2l-168.8-11.6"/>
	<path class="st14" d="M228,327.7c0,0-64.1-134-72.8-139.8s-23.3,23.3-23.3,23.3s20.4,8.8,52.4,43.7
		C216.4,289.9,228,327.7,228,327.7L228,327.7z"/>
	<path class="st21" d="M260,4.7l2.9,55.3"/>
	<path class="st22" d="M156.1,19.2c0,0,17.4,3,46.5,17.5s20.3,2.9,37.8,2.9c17.5,0,17.5,20.4,17.5,20.4L255,7.6c0,0-29,8.7-49.4,5.8
		S156.1,19.2,156.1,19.2L156.1,19.2z"/>
</g>
</svg>
