<?xml version="1.0" encoding="UTF-8"?>
<svg version="1.1" viewBox="0 0 1052.4 744.09" xmlns="http://www.w3.org/2000/svg">
 <g transform="translate(0 -308.27)">
  <rect x="13.182" y="366.4" width="1032" height="589.65" fill="#2a7fff"/>
  <path d="m1044.7 365.07-264.26 0.47221c-137.46 0.26569-245.91 1.4271-241.02 2.564 27.056 6.2941 94.565 29.475 133.3 45.781 106.18 44.703 201.52 109.59 306.57 208.63 16.58 15.632 45.499 39.912 65.416 56.307v-313.76z" fill="#acf"/>
  <path d="m568.91 367.03-259.61 0.47243c-260.55 0.50729-283.81 2.6528-120.61 10.998 46.292 2.3673 106.18 7.8944 133.09 12.28 117.12 19.086 223.3 71.114 340.44 166.83 90.207 73.708 215.25 203.88 321.18 334.4 12.547 15.46 40.074 32.339 61.3 44.972v-281.71l-64.236-46.152c-139.66-105.83-236.53-192.13-375.6-231.84l-35.964-10.256z" fill="#80b3ff"/>
  <path d="m794.8 919.95c-61.703-141.28-121-232.36-203.28-312.22-119.43-115.92-268.02-187.9-466.8-226.13-23.462-4.5126-23.638-4.5848-8.9742-3.6865 8.2263 0.50405 34.7 1.7906 58.831 2.8591 116.56 5.1608 175.76 13.367 239.32 33.171 164.12 51.133 336.92 190.29 557.59 449.01 26.269 30.8 71.782 85.98 74.324 90.11 1.1924 1.9374-22.729 2.4354-116.99 2.4354h-118.49l-15.529-35.557z" fill="#59f"/>
  <path d="m576.79 904.36c-46.673-126.61-69.039-176.99-102.51-230.9-28.083-45.233-53.812-76.598-94.677-115.42-78.919-74.969-175.6-129.14-313.28-175.53-18.457-6.2193-31.67-11.353-29.362-11.407 7.2967-0.17296 48.272 5.4159 78.518 10.709 173.77 30.413 311.75 87.42 429.81 177.58 30.841 23.552 89.453 80.084 115.38 111.28 24.558 29.555 51.553 67.072 71.767 99.738 23.861 38.56 63.138 116.65 87.464 173.89l4.7609 11.203h-229.02l-18.853-51.144z" fill="#2a7fff"/>
  <path d="m397.89 912.15c-3.6542-122.34-28.366-199.9-91.406-286.89-27.066-37.349-51.125-64.306-91.033-102-52.131-49.232-116.7-100.39-178.65-141.54-6.2912-4.1793-10.577-7.8629-9.5244-8.1858 1.0529-0.32291 9.468 1.5584 18.7 4.1806 9.2323 2.6223 17.566 4.3239 18.52 3.7815 0.95359-0.54249 1.7338-0.1437 1.7338 0.88635 0 2.3195 12.492 6.4987 15.059 5.038 1.0304-0.5861 1.8734-0.23232 1.8734 0.78638 0 1.677 8.4922 4.818 13.757 5.0883 1.1641 0.0594 2.5928 0.5887 3.1748 1.1754 2.3451 2.3636 23.879 9.5395 25.633 8.5416 1.0352-0.58891 1.8822-0.26137 1.8822 0.72787 0 1.739 17.927 9.1072 22.224 9.134 1.1641 0.0108 2.5927 0.53903 3.1748 1.1818 0.58203 0.64279 16.774 8.1535 35.981 16.69 132.49 58.888 226.39 133.14 294 232.48 8.3385 12.252 16.318 22.954 17.733 23.782 1.4148 0.8275 1.8515 1.518 0.97068 1.5344-1.5735 0.0291 27.308 54.626 29.905 56.531 0.73042 0.5358 1.4928 2.2893 1.6942 3.8967 0.40178 3.2071 22.161 51.035 23.933 52.605 0.60466 0.53591 1.4248 2.7277 1.8224 4.8708 0.39769 2.1433 1.5347 4.1725 2.5268 4.5098 0.99201 0.33716 1.3262 1.7583 0.74265 3.1582-0.58361 1.4 0.37701 3.8692 2.1347 5.4871 1.7576 1.6181 2.7552 3.3474 2.2168 3.843-1.4761 1.3587 6.0569 19.046 8.1115 19.046 0.98169 0 1.2698 0.76716 0.64018 1.705-1.593 2.3726 5.0652 19.727 7.5684 19.727 1.1234 0 1.5042 0.8017 0.84636 1.7815-0.91867 1.3683 23.086 66.884 31.65 86.38 1.4148 3.2208-4.5286 3.4096-107.4 3.4096h-108.9l-1.2948-43.35z" fill="#06f"/>
  <path d="m197.18 914.1c0.41936-22.771-0.36334-52.362-1.7393-65.757-12.819-124.8-58.582-253.77-151-425.58-14.372-26.716-25.739-48.932-25.26-49.369 1.0792-0.98534 44.495 28.775 80.152 54.942 162.69 119.39 254.86 234.92 284.71 356.88 9.6689 39.495 16.128 97.683 16.145 145.44l8e-3 24.841h-203.78l0.76235-41.402z" fill="#2a7fff"/>
  <path d="m14.596 663.74 0.16619-291.76 26.656 45.786c102.73 176.46 150.73 298.44 166.3 422.62 3.5485 28.297 4.65 86.271 1.9931 104.89l-1.4599 10.229h-193.83l0.16614-291.76z" fill="#59f"/>
  <path d="m337.78 371.52c-141.85 186.72-357.18 344.5 734.52 611.78" fill="none" stroke="#fff" stroke-width="1.2055"/>
  <path d="m356.97 780.26c-6.04 95.978-57.7 146.85-100.35 135.84 22.57-45.92 55.817-91.212 100.35-135.84z" fill="#003380"/>
  <path d="m209.21 809.96c182.54 97.716 320.54 5.3262 455.4-103.58 35.955-29.035 71.686-59.244 107.98-87.337 61.58-62.953 57.171-126.92 105.86-155.31-26.902 9.0484-65.584 46.279-87.251 76.5-54.612 35.834-145.59 79.495-210.59 44.632-10.946-6.5539-65.723 33.988-78.296 36.1-125.41 21.064-186.64 41.936-296.35 135.79-14.99 11.021-15.839 21.713-16.989 28.337-1.5699 9.045 1.9615 13.182 20.238 24.87z" fill="#003380"/>
  <path d="m849.22 485.16c62.022-8.189 124.04-14.927 186.07-45.786-42.539-29.14-86.142-31.248-164.63 17.535-13.234-59.07-38.202-50.671-61.372-52.605-8.2638 39.282 12.136 62.184 39.941 80.856z" fill="#04a"/>
  <path d="m189.21 788.96c73.433 6.7597 106.44 0.65574 148-2.7252 16.985-0.18818 17.675 0.34622 24.957 6.0577 99.058 73.104 150.96 0.0939 264.46-55.38-101.13 75.455-225.57 158-374.69 94.438-21.56-9.1906-47.826-20.179-65.057-37.343-1.4231-2.3192-1.4055-4.8945 2.3286-5.0479z" fill="#80b3ff"/>
  <path d="m434.23 807.61c135.2 25.861 199.45 91.726 177.3 135.41-61.673-33.554-120.82-78.475-177.3-135.41z" fill="#04a"/>
  <path transform="matrix(.079109 0 0 .079109 382.84 526.07)" d="m64.65 3149.4a64.65 64.65 0 1 1 -129.3 0 64.65 64.65 0 1 1 129.3 0z"/>
  <path transform="matrix(.12431 0 0 .018835 393.8 591.45)" d="m64.65 3149.4a64.65 64.65 0 1 1 -129.3 0 64.65 64.65 0 1 1 129.3 0z"/>
  <path d="m204.86 789.64c-8.3047-0.67873-15.259-1.2781-15.454-1.3322-0.65383-0.18191 0.9705-8.9873 2.4143-13.087 2.5796-7.3254 4.0968-13.936 22.344-29.153 73.951-61.673 129.56-88.354 203.45-107.43 19.683-5.0811 27.78-6.7966 61.476-13.025 28.591-5.2851 28.042-5.078 54.555-20.585 18.775-10.982 35.483-19.169 40.723-19.955 3.4144-0.51195 5.473-0.0324 11.901 2.7751 30.589 13.358 65.169 13.378 108.11 0.0637 62.123-14.568 97.623-55.247 138.49-93.089 12.064-10.838 17.39-17.578 19.578-16.738 1.1274 0.43258-4.5988 8.33-7.9744 12.474-2.399 2.9453-7.2736 10.26-10.832 16.256-8.7031 14.662-11.769 20.823-21.064 27.561-37.244 27.001-56.177 96.189-360.56 172.69-28.185 7.0841-73.854 12.795-78.141 14.863-10.424 5.0305-18.435 10.378-43.706 29.173-29.402 21.868-42.648 29.95-60.182 36.722l-8.5537 3.3036-20.738-0.12901c-11.406-0.0712-27.533-0.68424-35.837-1.3628zm196.7-138.43c1.7046-1.5214-6.2821-2.7463-12.159-1.8649-8.0464 1.2066-1.3777 3.6524 7.3698 2.7029 2.411-0.26158 4.5664-0.63879 4.7896-0.83798z" fill="#04a"/>
  <path transform="matrix(.12055 0 0 .12055 344.89 369.13)" d="m338.57 3370.9a17.857 17.143 0 1 1 -35.714 0 17.857 17.143 0 1 1 35.714 0z" fill="#fff"/>
  <path d="m605.15 937.91c-13.359-8.2853-10.29-17.636-41.015-48.066-28.626-28.352-42.332-28.639-54.242-38.165-17.93-14.342-39.472-28.418-56.729-37.069-3.544-1.7766-16.288-6.2939-16.115-6.4662 0.47337-0.47351 19.029 2.2085 30.581 5.3444 56.626 15.371 97.514 38.179 124.23 65.082 11.741 11.821 18.888 23.081 22.116 34.843 1.8304 6.6687 1.7092 16.892-0.27544 23.248-0.85768 2.7467-1.783 4.9887-2.0563 4.9822-0.27322-0.0108-3.1977-1.6871-6.499-3.7344z" fill="#003380"/>
  <path d="m22.154 973.56c-20.359-398.21 1031.6-736.17 1046.3-520.2" fill="none" stroke="#fff" stroke-width="1.2055"/>
 </g>
</svg>
