<?xml version="1.0" encoding="utf-8"?>
<!-- Generator: Adobe Illustrator 25.0.1, SVG Export Plug-In . SVG Version: 6.00 Build 0)  -->
<svg version="1.1" id="Layer_1" xmlns="http://www.w3.org/2000/svg" xmlns:xlink="http://www.w3.org/1999/xlink" x="0px" y="0px"
	 viewBox="0 0 1052.4 744.1" style="enable-background:new 0 0 1052.4 744.1;" xml:space="preserve">
<style type="text/css">
	.st0{fill:none;stroke:#FFFFFF;stroke-width:1.2055;}
	.st1{fill:#003191;}
	.st2{fill:#80B3FF;}
	.st3{fill:#0044AA;}
	.st4{fill:#FFFFFF;}
</style>
<g>
	<path class="st0" d="M316.9,63.3C175,250-40.3,407.8,1051.4,675"/>
	<path class="st1" d="M336.1,472c-6,96-57.7,146.8-100.4,135.8C258.3,561.9,291.6,516.6,336.1,472z"/>
	<path class="st1" d="M188.3,501.7c182.5,97.7,320.5,5.3,455.4-103.6c36-29,71.7-59.2,108-87.3c61.6-63,57.2-126.9,105.9-155.3
		c-26.9,9-65.6,46.3-87.3,76.5c-54.6,35.8-145.6,79.5-210.6,44.6c-10.9-6.6-65.7,34-78.3,36.1C356,333.8,294.8,354.6,185.1,448.5
		c-15,11-15.8,21.7-17,28.3C166.5,485.9,170.1,490,188.3,501.7L188.3,501.7z"/>
	<path class="st1" d="M828.3,176.9c62-8.2,124-14.9,186.1-45.8c-42.5-29.1-86.1-31.2-164.6,17.5C836.5,89.6,811.6,98,788.4,96
		C780.1,135.3,800.5,158.2,828.3,176.9L828.3,176.9z"/>
	<path class="st2" d="M168.3,480.7c73.4,6.8,106.4,0.7,148-2.7c17-0.2,17.7,0.3,25,6.1c99.1,73.1,151,0.1,264.5-55.4
		c-101.1,75.5-225.6,158-374.7,94.4c-21.6-9.2-47.8-20.2-65.1-37.3C164.6,483.4,164.6,480.8,168.3,480.7L168.3,480.7z"/>
	<path class="st3" d="M413.4,499.3c135.2,25.9,199.4,91.7,177.3,135.4C529,601.2,469.8,556.3,413.4,499.3L413.4,499.3z"/>
	<path d="M367.1,466.9c0,2.8-2.3,5.1-5.1,5.1c-2.8,0-5.1-2.3-5.1-5.1s2.3-5.1,5.1-5.1C364.8,461.8,367.1,464.1,367.1,466.9z"/>
	<path d="M381,342.5c0,0.7-3.6,1.2-8,1.2s-8-0.5-8-1.2c0-0.7,3.6-1.2,8-1.2S381,341.8,381,342.5z"/>
	<path class="st3" d="M184,481.4c-8.3-0.7-15.3-1.3-15.5-1.3c-0.7-0.2,1-9,2.4-13.1c2.6-7.3,4.1-13.9,22.3-29.2
		c74-61.7,129.6-88.4,203.5-107.4c19.7-5.1,27.8-6.8,61.5-13c28.6-5.3,28-5.1,54.6-20.6c18.8-11,35.5-19.2,40.7-20
		c3.4-0.5,5.5,0,11.9,2.8c30.6,13.4,65.2,13.4,108.1,0.1c62.1-14.6,97.6-55.2,138.5-93.1c12.1-10.8,17.4-17.6,19.6-16.7
		c1.1,0.4-4.6,8.3-8,12.5c-2.4,2.9-7.3,10.3-10.8,16.3c-8.7,14.7-11.8,20.8-21.1,27.6c-37.2,27-56.2,96.2-360.6,172.7
		c-28.2,7.1-73.9,12.8-78.1,14.9c-10.4,5-18.4,10.4-43.7,29.2c-29.4,21.9-42.6,30-60.2,36.7l-8.6,3.3l-20.7-0.1
		C208.4,482.7,192.3,482,184,481.4L184,481.4z M380.7,342.9c1.7-1.5-6.3-2.7-12.2-1.9c-8,1.2-1.4,3.7,7.4,2.7
		C378.3,343.5,380.5,343.1,380.7,342.9L380.7,342.9z"/>
	<path class="st4" d="M364.8,467.2c0,1.1-1,2.1-2.2,2.1c-1.2,0-2.2-0.9-2.2-2.1c0,0,0,0,0,0c0-1.1,1-2.1,2.2-2.1
		C363.9,465.2,364.8,466.1,364.8,467.2C364.8,467.2,364.8,467.2,364.8,467.2z"/>
	<path class="st1" d="M584.3,629.6c-13.4-8.3-10.3-17.6-41-48.1c-28.6-28.4-42.3-28.6-54.2-38.2c-17.9-14.3-39.5-28.4-56.7-37.1
		c-3.5-1.8-16.3-6.3-16.1-6.5c0.5-0.5,19,2.2,30.6,5.3c56.6,15.4,97.5,38.2,124.2,65.1c11.7,11.8,18.9,23.1,22.1,34.8
		c1.8,6.7,1.7,16.9-0.3,23.2c-0.9,2.7-1.8,5-2.1,5C590.5,633.4,587.6,631.7,584.3,629.6L584.3,629.6z"/>
	<path class="st0" d="M1.3,665.3C-19.1,267.1,1032.9-70.9,1047.6,145.1"/>
</g>
</svg>
