<?xml version="1.0" encoding="utf-8"?>
<!-- Generator: Adobe Illustrator 25.0.1, SVG Export Plug-In . SVG Version: 6.00 Build 0)  -->
<svg version="1.1" id="Layer_1" xmlns="http://www.w3.org/2000/svg" xmlns:xlink="http://www.w3.org/1999/xlink" x="0px" y="0px"
	 viewBox="0 0 882.4 567.1" style="enable-background:new 0 0 882.4 567.1;" xml:space="preserve">
<style type="text/css">
	.st0{fill:#003191;}
	.st1{fill:#003380;}
	.st2{fill:#002E77;}
</style>
<g>
	<path class="st0" d="M187,389c-6,96-57.7,146.8-100.4,135.8C109.2,478.9,142.4,433.6,187,389z"/>
	<path class="st1" d="M39.2,418.7c182.5,97.7,320.5,5.3,455.4-103.6c36-29,71.7-59.2,108-87.3c61.6-63,57.2-126.9,105.9-155.3
		c-26.9,9-65.6,46.3-87.3,76.5c-54.6,35.8-145.6,79.5-210.6,44.6c-10.9-6.6-65.7,34-78.3,36.1C206.9,250.8,145.7,271.6,36,365.5
		c-15,11-15.8,21.7-17,28.3C17.4,402.9,20.9,407,39.2,418.7L39.2,418.7z"/>
	<path class="st2" d="M679.2,93.9c62-8.2,124-14.9,186.1-45.8C822.8,19,779.2,16.9,700.7,65.6C687.4,6.6,662.5,15,639.3,13
		C631,52.3,651.4,75.2,679.2,93.9L679.2,93.9z"/>
	<path class="st0" d="M19.2,397.7c73.4,6.8,106.4,0.7,148-2.7c17-0.2,17.7,0.3,25,6.1c99.1,73.1,151,0.1,264.5-55.4
		c-101.1,75.5-225.6,158-374.7,94.4c-21.6-9.2-47.8-20.2-65.1-37.3C15.5,400.4,15.5,397.8,19.2,397.7L19.2,397.7z"/>
	<path class="st0" d="M264.2,416.3c135.2,25.9,199.4,91.7,177.3,135.4C379.9,518.2,320.7,473.3,264.2,416.3L264.2,416.3z"/>
	<path d="M231.8,259.5c0,0.7-3.6,1.2-8,1.2s-8-0.5-8-1.2s3.6-1.2,8-1.2S231.8,258.8,231.8,259.5z"/>
	<path class="st2" d="M36.7,398.4c-8.3-0.7-15.3-1.3-15.5-1.3c-0.7-0.2,1-9,2.4-13.1c2.6-7.3,4.1-13.9,22.3-29.2
		c74-61.7,129.6-88.4,203.4-107.4c19.7-5.1,27.8-6.8,61.5-13c28.6-5.3,28-5.1,54.6-20.6c18.8-11,35.5-19.2,40.7-20
		c3.4-0.5,5.5,0,11.9,2.8c30.6,13.4,65.2,13.4,108.1,0.1c62.1-14.6,97.6-55.2,138.5-93.1C676.7,92.8,682,86,684.2,86.9
		c1.1,0.4-4.6,8.3-8,12.5c-2.4,2.9-7.3,10.3-10.8,16.3c-8.7,14.7-11.8,20.8-21.1,27.6c-37.2,27-56.2,96.2-360.6,172.7
		c-28.2,7.1-73.9,12.8-78.1,14.9c-10.4,5-18.4,10.4-43.7,29.2c-29.4,21.9-42.6,30-60.2,36.7l-8.6,3.3L72.4,400
		C61.1,399.7,45,399,36.7,398.4L36.7,398.4z"/>
	<path class="st1" d="M435.2,546.6c-13.4-8.3-10.3-17.6-41-48.1c-28.6-28.4-42.3-28.6-54.2-38.2c-17.9-14.3-39.5-28.4-56.7-37.1
		c-3.5-1.8-16.3-6.3-16.1-6.5c0.5-0.5,19,2.2,30.6,5.3c56.6,15.4,97.5,38.2,124.2,65.1c11.7,11.8,18.9,23.1,22.1,34.8
		c1.8,6.7,1.7,16.9-0.3,23.2c-0.9,2.7-1.8,5-2.1,5C441.4,550.4,438.4,548.7,435.2,546.6L435.2,546.6z"/>
</g>
</svg>
