<?xml version="1.0" encoding="utf-8"?>
<!-- Generator: Adobe Illustrator 25.0.1, SVG Export Plug-In . SVG Version: 6.00 Build 0)  -->
<svg version="1.1" id="Layer_1" xmlns="http://www.w3.org/2000/svg" xmlns:xlink="http://www.w3.org/1999/xlink" x="0px" y="0px"
	 viewBox="0 0 873.4 570.1" style="enable-background:new 0 0 873.4 570.1;" xml:space="preserve">
<style type="text/css">
	.st0{fill:#003191;}
	.st1{fill:#80B3FF;}
	.st2{fill:#0044AA;}
	.st3{fill:#FFFFFF;}
</style>
<g>
	<path class="st0" d="M187.1,389c-6,96-57.7,146.8-100.4,135.8C109.3,478.9,142.6,433.6,187.1,389z"/>
	<path class="st0" d="M39.3,418.7c182.5,97.7,320.5,5.3,455.4-103.6c36-29,71.7-59.2,108-87.3c61.6-63,57.2-126.9,105.9-155.3
		c-26.9,9-65.6,46.3-87.3,76.5c-54.6,35.8-145.6,79.5-210.6,44.6c-10.9-6.6-65.7,34-78.3,36.1C207,250.8,145.8,271.6,36.1,365.5
		c-15,11-15.8,21.7-17,28.3C17.5,402.9,21.1,407,39.3,418.7L39.3,418.7z"/>
	<path class="st0" d="M679.3,93.9c62-8.2,124-14.9,186.1-45.8C822.9,19,779.3,16.9,700.8,65.6C687.5,6.6,662.6,15,639.4,13
		C631.1,52.3,651.5,75.2,679.3,93.9L679.3,93.9z"/>
	<path class="st1" d="M19.3,397.7c73.4,6.8,106.4,0.7,148-2.7c17-0.2,17.7,0.3,25,6.1c99.1,73.1,151,0.1,264.5-55.4
		c-101.1,75.5-225.6,158-374.7,94.4c-21.6-9.2-47.8-20.2-65.1-37.3C15.6,400.4,15.6,397.8,19.3,397.7L19.3,397.7z"/>
	<path class="st2" d="M264.4,416.3c135.2,25.9,199.4,91.7,177.3,135.4C380,518.2,320.8,473.3,264.4,416.3L264.4,416.3z"/>
	<path d="M218.1,383.9c0,2.8-2.3,5.1-5.1,5.1c-2.8,0-5.1-2.3-5.1-5.1s2.3-5.1,5.1-5.1C215.8,378.8,218.1,381.1,218.1,383.9z"/>
	<path d="M232,259.5c0,0.7-3.6,1.2-8,1.2s-8-0.5-8-1.2s3.6-1.2,8-1.2S232,258.8,232,259.5z"/>
	<path class="st2" d="M35,398.4c-8.3-0.7-15.3-1.3-15.5-1.3c-0.7-0.2,1-9,2.4-13.1c2.6-7.3,4.1-13.9,22.3-29.2
		c74-61.7,129.6-88.4,203.5-107.4c19.7-5.1,27.8-6.8,61.5-13c28.6-5.3,28-5.1,54.6-20.6c18.8-11,35.5-19.2,40.7-20
		c3.4-0.5,5.5,0,11.9,2.8c30.6,13.4,65.2,13.4,108.1,0.1c62.1-14.6,97.6-55.2,138.5-93.1c12.1-10.8,17.4-17.6,19.6-16.7
		c1.1,0.4-4.6,8.3-8,12.5c-2.4,2.9-7.3,10.3-10.8,16.3c-8.7,14.7-11.8,20.8-21.1,27.6c-37.2,27-56.2,96.2-360.6,172.7
		c-28.2,7.1-73.9,12.8-78.1,14.9c-10.4,5-18.4,10.4-43.7,29.2c-29.4,21.9-42.6,30-60.2,36.7l-8.6,3.3L70.8,400
		C59.4,399.7,43.3,399,35,398.4L35,398.4z M231.7,259.9c1.7-1.5-6.3-2.7-12.2-1.9c-8,1.2-1.4,3.7,7.4,2.7
		C229.3,260.5,231.5,260.1,231.7,259.9L231.7,259.9z"/>
	<path class="st3" d="M215.8,384.2c0,1.1-1,2.1-2.2,2.1s-2.2-0.9-2.2-2.1l0,0c0-1.1,1-2.1,2.2-2.1
		C214.9,382.2,215.8,383.1,215.8,384.2L215.8,384.2z"/>
	<path class="st0" d="M435.3,546.6c-13.4-8.3-10.3-17.6-41-48.1c-28.6-28.4-42.3-28.6-54.2-38.2c-17.9-14.3-39.5-28.4-56.7-37.1
		c-3.5-1.8-16.3-6.3-16.1-6.5c0.5-0.5,19,2.2,30.6,5.3c56.6,15.4,97.5,38.2,124.2,65.1c11.7,11.8,18.9,23.1,22.1,34.8
		c1.8,6.7,1.7,16.9-0.3,23.2c-0.9,2.7-1.8,5-2.1,5C441.5,550.4,438.6,548.7,435.3,546.6L435.3,546.6z"/>
</g>
</svg>
